SplineFontDB: 3.0
FontName: CosmicSansNeueMono
FullName: Cosmic Sans Neue Mono
FamilyName: CosmicSansNeueMono
Weight: Regular
Copyright: Created by Jany Belluz with FontForge 2.0 (http://fontforge.sf.net)
UComments: "2013-9-13: Created." 
Version: 1.3
ItalicAngle: 0
UnderlinePosition: -192
UnderlineWidth: 96
Ascent: 1650
Descent: 398
LayerCount: 2
Layer: 0 0 "Back"  1
Layer: 1 0 "Fore"  0
XUID: [1021 607 50037791 3178130]
FSType: 8
OS2Version: 3
OS2_WeightWidthSlopeOnly: 0
OS2_UseTypoMetrics: 1
CreationTime: 1379052706
ModificationTime: 1385327656
PfmFamily: 49
TTFWeight: 400
TTFWidth: 5
LineGap: 0
VLineGap: 0
Panose: 2 11 5 9 2 2 4 3 2 4
OS2TypoAscent: 1650
OS2TypoAOffset: 0
OS2TypoDescent: -398
OS2TypoDOffset: 0
OS2TypoLinegap: 252
OS2WinAscent: 1850
OS2WinAOffset: 0
OS2WinDescent: 450
OS2WinDOffset: 0
HheadAscent: 1850
HheadAOffset: 0
HheadDescent: -450
HheadDOffset: 0
OS2FamilyClass: 2057
OS2Vendor: 'PfEd'
MarkAttachClasses: 1
DEI: 91125

StartChar: a
Encoding: 97 97 0
Width: 1060
VWidth: 6
Flags: HW
HStem: -10 21G<846 885.95> -6 152<285.367 551.736> 504 153<334.522 669.622> 877 151<326.149 629.625>
VStem: 88 156<186.95 423.616> 706 157<285.558 463.324 597 791.012>
LayerCount: 2
Fore
SplineSet
863 318 m 2x7c
 863 283 863 190 876 173 c 0
 889 155 926 132 955 109 c 1
 872 -10 l 1xbc
 820 30 760 55 742 156 c 1
 664 81 575 -6 393 -6 c 0
 222 -6 88 135 88 301 c 0
 88 377 118 466 177 527 c 0
 272 624 382 657 500 657 c 0
 585 657 651 630 705 597 c 1
 705 792 638 877 486 877 c 0
 348 877 293 828 213 685 c 1
 83 767 l 1
 179 949 306 1025 484 1028 c 1
 709 1028 859 878 859 657 c 1
 863 318 l 2x7c
244 311 m 0
 244 206 300 146 393 146 c 0x7c
 573 146 680 304 706 345 c 1
 706 440 l 1
 649 475 569 504 499 504 c 0
 363 504 244 429 244 311 c 0
EndSplineSet
Validated: 1
EndChar

StartChar: b
Encoding: 98 98 1
Width: 1060
VWidth: -2
Flags: HW
HStem: -7 154<372.022 671.177> 858 155<355.305 635.934> 1392 20G<106 269.5>
VStem: 103 165<5.34919 81.4914 1156.27 1403.8> 122 157<241.719 785.775 949 1399.8> 759 157<249.683 713.724>
LayerCount: 2
Fore
SplineSet
916 459 m 0xec
 916 191 809 -7 534 -7 c 0
 422 -7 342 28 279 84 c 1xec
 278 42 273 20 268 -12 c 1
 103 7 l 1xf4
 113 73 122 160 122 243 c 0
 122 251 122 259 122 267 c 0
 122 516 121 877 121 1157 c 0
 121 1251 113 1335 106 1403 c 1
 265 1412 l 1
 274 1339 279 1243 279 1152 c 2
 279 949 l 1
 327 985 371 1021 471 1021 c 0
 794 1021 916 795 916 459 c 0xec
759 478 m 0
 759 761 648 866 485 866 c 0
 394 866 331 795 279 744 c 1
 279 307 l 1
 350 193 397 147 534 147 c 0
 704 147 759 274 759 478 c 0
EndSplineSet
Validated: 1
EndChar

StartChar: c
Encoding: 99 99 2
Width: 1060
VWidth: 4
Flags: HW
HStem: -7 157<369.683 750.344> 865 153<363.88 709.499>
VStem: 81 159<292.678 736.59>
LayerCount: 2
Fore
SplineSet
240 527 m 0
 240 157 447 150 557 150 c 2
 570 150 l 2
 726 150 801 215 853 302 c 1
 979 211 l 1
 946 169 853 -7 574 -7 c 0
 470 -7 347 1 251 73 c 1
 121 174 81 328 81 527 c 0
 81 894 259 1018 574 1018 c 0
 669 1018 743 994 803 948 c 0
 864 901 895 841 917 789 c 1
 763 729 l 1
 752 770 723 865 563 865 c 0
 342 865 240 766 240 527 c 0
EndSplineSet
Validated: 1
EndChar

StartChar: d
Encoding: 100 100 3
Width: 1060
VWidth: -2
Flags: HW
HStem: -7 154<338.142 637.56> 858 155<379.251 653.98> 1391 20G<715 879.5>
VStem: 94 158<241.806 717.436> 731 157<241.719 785.775 949 1399.8>
LayerCount: 2
Fore
SplineSet
888 267 m 1
 888 241 l 2
 888 158 896 72 906 7 c 1
 742 -12 l 1
 737 20 732 42 731 84 c 1
 668 28 587 -7 475 -7 c 0
 200 -7 94 191 94 459 c 0
 94 810 214 1020 537 1020 c 0
 637 1020 682 980 730 949 c 1
 730 1156 l 2
 730 1250 722 1335 715 1403 c 1
 875 1411 l 1
 884 1338 889 1243 889 1152 c 2
 888 267 l 1
252 478 m 0
 252 274 305 147 475 147 c 0
 612 147 660 193 731 307 c 1
 731 744 l 1
 679 795 614 865 523 865 c 0
 349 865 252 761 252 478 c 0
EndSplineSet
Validated: 1
EndChar

StartChar: e
Encoding: 101 101 4
Width: 1060
VWidth: 32
Flags: HW
HStem: -10 153<356.975 688.993> 460 150<450.379 774> 869 152<371.998 661.11>
VStem: 88 158<258.732 429.895 580 738.031> 774 159<611 749.303>
LayerCount: 2
Fore
SplineSet
519 1021 m 0
 896 1021 933 641 933 503 c 0
 933 483 933 468 932 460 c 1
 647 456 411 439 246 427 c 1
 246 274 329 143 515 143 c 0
 672 143 760 230 795 286 c 1
 916 183 l 1
 903 161 791 -10 511 -10 c 0
 225 -10 88 203 88 516 c 0
 88 802 236 1021 519 1021 c 0
246 580 m 1
 354 591 596 606 739 610 c 2
 774 611 l 1
 768 767 656 869 520 869 c 0
 350 869 247 734 246 580 c 1
EndSplineSet
Validated: 1
EndChar

StartChar: f
Encoding: 102 102 5
Width: 1060
VWidth: -2
Flags: HW
HStem: 859 153<122 265 422 824.016> 1266 152<458.036 834.583>
VStem: 265 157<0 859 1013 1231.57>
LayerCount: 2
Fore
SplineSet
578 1266 m 0
 431 1266 422 1176 422 1068 c 2
 422 1021 l 1
 490 1021 620 1020 693 1020 c 1
 797 1017 824 1009 854 1000 c 1
 825 854 l 1
 804 861 783 867 727 867 c 2
 422 867 l 1
 423 713 425 4 425 0 c 1
 268 0 l 1
 268 25 267 720 265 867 c 1
 122 867 l 1
 122 1020 l 1
 266 1020 l 1
 266 1036 265 1053 265 1072 c 0
 265 1215 293 1418 570 1418 c 0
 789 1418 937 1392 1021 1225 c 1
 895 1148 l 1
 845 1246 783 1266 578 1266 c 0
EndSplineSet
Validated: 1
EndChar

StartChar: g
Encoding: 103 103 6
Width: 1060
VWidth: 14
Flags: HW
HStem: -346 156<269.07 777.902> 69 153<275.055 798.211> 351 153<341.679 668.877> 889 152<344.355 684.546 864.713 974>
VStem: 90 157<-165.163 42.3412 234.782 397.316> 105 158<578.656 807.783> 735 156<572.531 838.407> 821 157<-151.81 42.8716>
LayerCount: 2
Fore
SplineSet
864 840 m 1xf4
 882 799 891 783 891 725 c 0xf6
 891 509 790 373 489 373 c 2
 486 373 l 2
 411 373 335 378 280 399 c 1
 261 377 249 364 249 320 c 0
 249 230 283 220 429 220 c 0
 472 220 567 222 631 222 c 0
 794 222 978 174 978 -27 c 0
 978 -308 816 -346 450 -346 c 0
 246 -346 90 -282 90 -67 c 0xf9
 90 34 124 88 177 135 c 1
 130 170 92 229 92 315 c 0
 92 416 129 455 166 496 c 1
 129 543 105 601 105 669 c 0
 105 672 105 675 105 678 c 0
 105 913 253 1024 507 1024 c 0
 607 1024 701 1011 777 964 c 1
 826 1010 858 1025 974 1025 c 1
 974 862 l 1
 962 864 951 865 941 865 c 0
 907 865 879 855 864 840 c 1xf4
735 720 m 0
 735 840 658 872 507 872 c 0
 339 872 263 795 263 682 c 0
 263 583 364 526 493 526 c 0
 699 526 735 620 735 720 c 0
454 -190 m 0
 483 -190 510 -190 535 -190 c 0
 734 -190 821 -181 821 -28 c 0
 821 55 743 69 564 69 c 0
 510 69 404 67 331 66 c 1
 282 47 247 4 247 -62 c 0xf9
 247 -181 315 -190 454 -190 c 0
EndSplineSet
Validated: 1
EndChar

StartChar: p
Encoding: 112 112 7
Width: 1060
VWidth: -2
Flags: HW
HStem: -7 155<361.305 641.934> 858 155<378.237 677.54> 998 20G<110 276.5>
VStem: 129 156<-393.801 56 220.225 763.281> 765 157<291.52 763.3>
LayerCount: 2
Fore
SplineSet
129 739 m 2xd8
 129 747 129 755 129 763 c 0
 129 846 120 932 110 998 c 1
 274 1018 l 1xb8
 279 986 284 964 285 922 c 1
 348 978 428 1013 540 1013 c 0
 815 1013 922 814 922 546 c 0
 922 210 794 -7 471 -7 c 0
 371 -7 333 25 285 56 c 1
 285 -151 l 2
 285 -245 294 -329 301 -397 c 1
 142 -406 l 1
 133 -333 128 -237 128 -146 c 2
 129 739 l 2xd8
765 527 m 0
 765 731 711 858 541 858 c 0xd8
 404 858 356 812 285 698 c 1
 285 262 l 1
 337 211 394 148 485 148 c 0
 648 148 765 244 765 527 c 0
EndSplineSet
Validated: 1
EndChar

StartChar: h
Encoding: 104 104 8
Width: 1060
VWidth: -2
Flags: HW
HStem: -4 21G<88 248.5 842 897.043> 858 153<341.877 674.129> 1382 20G<100 258.043>
VStem: 101 157<4 785.233 940 1401> 728 157<130.048 802.125>
LayerCount: 2
Fore
SplineSet
728 576 m 2
 728 803 692 858 491 858 c 0
 390 858 289 793 258 731 c 1
 258 198 l 2
 258 119 251 42 246 -4 c 1
 88 4 l 1
 96 76 101 127 101 204 c 0
 101 708 100 1401 100 1401 c 1
 258 1402 l 1
 259 940 l 1
 324 981 396 1011 498 1011 c 0
 619 1011 729 1011 808 915 c 1
 880 830 885 752 885 642 c 2
 885 576 l 2
 885 412 884 335 884 223 c 0
 884 168 910 139 970 100 c 1
 882 -17 l 1
 802 28 728 81 728 208 c 2
 728 576 l 2
EndSplineSet
Validated: 1
EndChar

StartChar: i
Encoding: 105 105 9
Width: 1060
VWidth: 0
Flags: HW
HStem: -18 142<587.434 950.467> 857 156<164.467 418> 1178 225<354 589>
VStem: 354 235<1178 1400> 418 160<133.613 857>
LayerCount: 2
Fore
SplineSet
354 1403 m 1xf0
 589 1400 l 1
 589 1175 l 1
 354 1178 l 1
 354 1403 l 1xf0
EndSplineSet
Refer: 177 305 N 1 0 0 1 40 0 2
Validated: 1
EndChar

StartChar: j
Encoding: 106 106 10
Width: 1060
VWidth: 0
Flags: HW
HStem: -387 156<366.311 631.621> 864 155<414.191 666> 1179 225<600 834>
VStem: 600 234<1179 1401> 667 156<-196.669 864>
LayerCount: 2
Fore
SplineSet
600 1404 m 1xf0
 834 1401 l 1
 834 1176 l 1
 600 1179 l 1
 600 1404 l 1xf0
EndSplineSet
Refer: 321 567 N 1 0 0 1 40 0 2
Validated: 1
EndChar

StartChar: k
Encoding: 107 107 11
Width: 1060
VWidth: -2
Flags: HW
HStem: 872 144<510.523 728.984> 1407 20G<206.455 280.5>
VStem: 146 157<0 469 611.15 735.644 880 1381.07> 752 157<618.956 848.248>
LayerCount: 2
Fore
SplineSet
303 880 m 1
 375 929 525 1016 631 1016 c 0
 767 1016 890 933 904 814 c 0
 907 791 909 761 909 732 c 0
 909 699 906 665 901 639 c 0
 895 605 843 503 740 454 c 1
 838 381 836 261 889 173 c 0
 913 134 939 113 972 89 c 1
 888 -19 l 1
 765 41 730 159 703 238 c 0
 653 383 428 455 304 469 c 1
 304 469 302 279 302 129 c 0
 302 79 303 33 303 0 c 1
 146 0 l 1
 146 1228 l 2
 146 1289 136 1342 123 1383 c 1
 276 1427 l 1
 285 1404 303 1359 303 1293 c 2
 303 880 l 1
596 566 m 0
 697 566 752 657 752 745 c 0
 752 763 750 780 745 795 c 0
 735 828 703 872 640 872 c 0
 616 872 588 866 555 850 c 0
 456 803 377 758 303 708 c 1
 303 618 l 1
 387 605 452 590 501 579 c 0
 538 571 569 566 596 566 c 0
EndSplineSet
Validated: 1
EndChar

StartChar: l
Encoding: 108 108 12
Width: 1060
VWidth: -2
Flags: HW
HStem: -16 142<538.434 901.467> 1273 155<113.466 366>
VStem: 369 160<135.613 1273>
LayerCount: 2
Fore
SplineSet
406 1428 m 2
 526 1428 l 1
 526 1155 529 212 529 212 c 1
 534 130 574 126 666 126 c 0
 759 126 883 147 952 199 c 1
 1020 85 l 1
 934 14 791 -16 667 -16 c 0
 582 -16 506 -2 462 22 c 0
 377 69 369 149 369 208 c 2
 366 1273 l 1
 317 1273 204 1266 109 1244 c 1
 81 1387 l 1
 193 1413 302 1428 406 1428 c 2
EndSplineSet
Validated: 1
EndChar

StartChar: m
Encoding: 109 109 13
Width: 1060
VWidth: 4
Flags: HW
HStem: 853 167<336.785 444.055 617.325 747.486>
VStem: 99 157<0 758.452> 445 141<0 823.106> 757 156<123.69 856.389>
LayerCount: 2
Fore
SplineSet
944 -21 m 1
 873 -7 757 48 757 189 c 2
 757 191 l 1
 758 721 l 2
 758 825 727 861 700 861 c 0
 688 861 628 846 585 760 c 1
 586 0 l 1
 445 0 l 1
 445 814 l 1
 438 844 415 853 397 853 c 0
 394 853 392 852 389 852 c 0
 370 849 307 797 256 666 c 1
 256 0 l 1
 99 0 l 1
 96 809 l 2
 96 902 83 952 66 1001 c 1
 225 1041 l 1
 240 1009 254 972 256 926 c 1
 286 977 330 1020 400 1020 c 0
 474 1020 515 990 545 928 c 1
 570 969 626 1016 717 1016 c 2
 725 1016 l 2
 768 1016 815 1014 858 954 c 0
 901 894 913 834 913 739 c 2
 913 201 l 2
 913 150 964 113 1005 97 c 1
 944 -21 l 1
EndSplineSet
Validated: 1
EndChar

StartChar: o
Encoding: 111 111 14
Width: 1060
VWidth: 6
Flags: HW
HStem: 1 155<353.159 640.662> 878 154<362.497 649.881>
VStem: 82 158<272.944 736.885> 753 159<279.587 758.636>
LayerCount: 2
Fore
SplineSet
492 1 m 1
 220 2 82 184 82 464 c 0
 82 756 184 1032 476 1032 c 0
 673 1032 783 963 853 831 c 0
 894 752 912 639 912 543 c 0
 912 258 816 1 494 1 c 2
 492 1 l 1
664 215 m 1
 729 276 753 382 753 530 c 0
 753 536 753 542 753 548 c 0
 751 732 687 878 510 878 c 0
 302 878 240 713 240 469 c 0
 240 274 327 156 494 156 c 1
 570 157 614 173 664 215 c 1
EndSplineSet
Validated: 1
EndChar

StartChar: n
Encoding: 110 110 15
Width: 1060
VWidth: 6
Flags: HW
HStem: 872 150<419.07 680.196>
VStem: 123 158<0 778.144> 707 159<129.808 841.083>
LayerCount: 2
Fore
SplineSet
281 927 m 1
 407 993 467 1022 577 1022 c 0
 698 1022 866 945 866 796 c 2
 866 211 l 2
 866 145 916 123 972 93 c 1
 888 -19 l 1
 799 24 707 75 707 204 c 2
 707 765 l 2
 707 839 622 872 555 872 c 0
 492 872 427 830 282 760 c 1
 281 0 l 1
 123 -1 l 1
 123 705 l 2
 123 883 115 909 91 1003 c 1
 251 1040 l 1
 261 1016 274 976 281 927 c 1
EndSplineSet
Validated: 1
EndChar

StartChar: q
Encoding: 113 113 16
Width: 1060
VWidth: -2
Flags: HW
HStem: -7 155<409.119 689.98> 858 155<373.869 673.56> 998 20G<775.5 942>
VStem: 130 156<291.52 755.414> 767 156<-393.801 56 220.225 763.281>
LayerCount: 2
Fore
SplineSet
923 739 m 2xb8
 924 -146 l 2
 924 -237 919 -333 910 -406 c 1
 751 -397 l 1
 758 -329 766 -245 766 -151 c 2
 766 56 l 1
 718 25 680 -7 580 -7 c 0
 257 -7 130 210 130 546 c 0
 130 814 236 1013 511 1013 c 0xd8
 623 1013 704 978 767 922 c 1
 768 964 773 986 778 1018 c 1
 942 998 l 1
 932 932 923 846 923 763 c 0
 923 755 923 747 923 739 c 2xb8
286 527 m 0
 286 244 403 148 566 148 c 0
 657 148 715 211 767 262 c 1
 767 698 l 1
 696 812 648 858 511 858 c 0
 341 858 286 731 286 527 c 0
EndSplineSet
Validated: 1
EndChar

StartChar: r
Encoding: 114 114 17
Width: 1060
VWidth: 4
Flags: HW
HStem: 876 160<536.393 761.826>
VStem: 204 156<1 689.995> 772 157<734 869.776>
LayerCount: 2
Fore
SplineSet
364 870 m 5
 457 984 561 1020 716 1020 c 4
 883 1020 929 906 929 724 c 4
 929 722 929 720 929 718 c 5
 772 718 l 5
 768 799 780 860 688 860 c 4
 587 860 460 829 360 606 c 1
 360 0 l 1
 204 1 l 1
 204 759 l 6
 204 816 164 845 102 900 c 5
 206 1041 l 5
 267 992 327 954 364 870 c 5
EndSplineSet
Validated: 1
EndChar

StartChar: s
Encoding: 115 115 18
Width: 1060
VWidth: 6
Flags: HW
HStem: -20 143<325.391 655.341> 881 148<323.448 659.835>
VStem: 102 157<192.72 329> 136 160<706.04 850.139> 725 155<188.544 389.011>
LayerCount: 2
Fore
SplineSet
253 571 m 0xe8
 188 606 136 672 136 783 c 0
 137 956 299 1029 474 1029 c 0
 596 1029 772 989 854 888 c 1
 741 777 l 1
 688 839 574 881 488 881 c 0
 382 881 296 847 296 787 c 0xd8
 296 739 313 716 353 698 c 1
 618 586 880 565 880 281 c 0
 880 119 766 28 659 0 c 1
 603 -13 543 -20 486 -20 c 0
 230 -20 102 115 102 330 c 1
 259 329 l 1
 259 195 328 123 483 123 c 0
 606 123 725 176 725 286 c 0
 725 359 694 385 639 426 c 1
 562 481 358 516 253 571 c 0xe8
EndSplineSet
Validated: 1
EndChar

StartChar: t
Encoding: 116 116 19
Width: 1060
VWidth: 0
Flags: HW
HStem: -6 155<393.71 768.905> 872 145<142 170>
VStem: 172 159<209.621 865 1017 1255>
LayerCount: 2
Fore
SplineSet
331 437 m 1
 331 397 l 2
 331 264 367 163 478 152 c 0
 496 150 573 149 586 149 c 0
 651 149 715 159 740 173 c 0
 797 203 815 258 822 277 c 1
 948 221 l 1
 938 193 915 102 803 37 c 0
 745 3 673 -6 588 -6 c 0
 404 -6 282 13 211 161 c 0
 176 233 172 308 172 394 c 2
 172 437 l 1
 176 541 178 672 184 865 c 1
 170 865 l 2
 142 865 114 861 88 854 c 1
 68 1000 l 1
 92 1009 137 1012 170 1012 c 2
 185 1012 l 1
 185 1082 186 1186 186 1256 c 1
 344 1255 l 1
 344 1189 343 1085 342 1017 c 1
 464 1017 l 1
 609 1018 763 1019 763 1019 c 1
 781 1019 l 1
 781 872 l 1
 464 872 l 2
 418 872 391 869 345 869 c 1
 336 665 335 537 331 437 c 1
EndSplineSet
Validated: 1
EndChar

StartChar: u
Encoding: 117 117 20
Width: 1060
VWidth: 6
Flags: HW
HStem: -10 21G<887.5 930.017> -10 21G<887.5 930.017> 2 154<330.683 595.04> 1001 20G<142.481 272>
VStem: 124 156<180.892 701.424> 749 158<276.783 1001>
LayerCount: 2
Fore
SplineSet
916 -10 m 1x9c
 859 31 805 72 783 158 c 1
 699 72 613 5 463 2 c 1
 454 2 l 2
 392 2 307 3 247 44 c 0
 202 75 135 132 135 214 c 0
 132 482 139 911 112 994 c 1
 272 1021 l 1
 294 929 289 616 291 250 c 1
 297 216 319 190 341 174 c 0
 355 164 406 156 447 156 c 1x3c
 578 162 697 223 749 344 c 1
 750 1020 l 1
 908 1020 l 1
 907 239 l 1
 909 187 958 139 998 107 c 1
 916 -10 l 1x9c
EndSplineSet
Validated: 1
EndChar

StartChar: v
Encoding: 118 118 21
Width: 1060
VWidth: 6
Flags: HW
HStem: -3 21G<377 430>
VStem: 766 155<587.532 1011>
LayerCount: 2
Fore
SplineSet
163 1048 m 1
 233 973 255 924 281 849 c 0
 326 723 500 281 511 177 c 1
 635 320 758 615 764 822 c 0
 765 850 765 886 765 919 c 0
 765 960 765 998 763 1016 c 1
 915 1020 l 1
 918 1004 920 884 920 826 c 0
 918 581 769 251 624 71 c 0
 567 0 483 -3 377 -3 c 1
 377 137 176 685 114 839 c 0
 106 860 60 927 34 952 c 1
 163 1048 l 1
EndSplineSet
Validated: 1
EndChar

StartChar: w
Encoding: 119 119 22
Width: 1060
Flags: HW
HStem: 0 176<350.012 403.887 661.84 731.542> 998 20G<797 961.5>
VStem: 451 141<411.109 823> 802 164<326.951 1018>
LayerCount: 2
Fore
SplineSet
27 984 m 1
 162 1061 l 1
 197 1002 227 913 253 794 c 0
 279 675 313 469 356 175 c 1
 419 175 451 339 451 666 c 2
 451 731 l 1
 451 745 l 2
 451 774 450 800 448 823 c 1
 592 823 l 1
 596 738 621 522 666 176 c 1
 683 176 698 182 711 194 c 0
 724 206 735 223 744 247 c 0
 753 271 761 295 768 320 c 0
 775 345 781 378 785 418 c 0
 789 458 792 491 795 520 c 0
 798 549 799 587 800 632 c 0
 801 677 802 712 802 735 c 0
 802 758 802 790 802 831 c 0
 802 909 800 971 797 1018 c 1
 959 1018 l 1
 964 971 966 907 966 827 c 0
 966 603 950 417 918 270 c 0
 909 226 897 189 882 158 c 0
 867 127 848 99 823 74 c 0
 798 49 767 30 728 18 c 0
 689 6 643 0 590 0 c 2
 556 0 l 1
 542 140 533 239 529 297 c 1
 515 218 503 164 492 136 c 0
 455 48 389 4 292 3 c 1
 287 3 l 1
 260 4 237 8 220 15 c 1
 212 82 192 221 158 430 c 0
 124 639 99 775 82 839 c 0
 67 898 48 947 27 984 c 1
EndSplineSet
Validated: 1
EndChar

StartChar: x
Encoding: 120 120 23
Width: 1060
VWidth: 4
Flags: HW
HStem: 3 153<839.536 960> 1009 20G<760 915>
VStem: 760 158<912.879 1028>
LayerCount: 2
Fore
SplineSet
870 863 m 1
 820 778 702 595 622 488 c 1
 700 385 834 178 854 165 c 0
 858 162 874 156 908 156 c 0
 926 156 944 159 960 162 c 1
 960 9 l 1
 940 6 918 3 898 3 c 0
 858 3 818 15 778 43 c 1
 706 90 602 261 518 379 c 1
 368 184 211 0 196 -18 c 1
 75 84 l 1
 83 95 264 323 420 511 c 1
 336 629 222 786 90 960 c 1
 220 1061 l 1
 344 891 446 740 528 624 c 1
 600 711 656 807 726 930 c 0
 746 965 756 1011 760 1028 c 1
 918 1029 l 1
 912 980 902 914 870 863 c 1
EndSplineSet
Validated: 1
EndChar

StartChar: y
Encoding: 121 121 24
Width: 1060
VWidth: 14
Flags: HW
HStem: -376 153<216.201 363.113> 889 152<30 105.747>
VStem: 16 156<-179.577 0> 748 158<748.803 1043>
LayerCount: 2
Fore
SplineSet
282 -223 m 0
 388 -223 432 -12.5996 470 93.4004 c 1
 376 421.4 203 753 106 857 c 0
 101 862 70 866 45 866 c 0
 40 866 35 865 30 865 c 1
 30 1018 l 1
 63 1018 102 1017 130 1013 c 0
 297 988 468 640.4 581 315.4 c 1
 655 532.4 740 793 748 1020 c 1
 906 1020 l 1
 906 960 901 903 892 852 c 0
 827 499 698 169 566 -142 c 1
 513 -277 435 -376 286 -376 c 0
 111 -376 21 -173 16 0 c 1
 172 0 l 1
 176 -95 202 -223 282 -223 c 0
EndSplineSet
Validated: 524289
EndChar

StartChar: z
Encoding: 122 122 25
Width: 1060
VWidth: 6
Flags: HW
HStem: -9 21G<848.5 876.517> -9 21G<848.5 876.517> 13 156<256 868.911> 854 157<134 682>
LayerCount: 2
Fore
SplineSet
107 866 m 1xb0
 134 1017 l 1
 180 1012 291 1011 415 1011 c 0
 601 1011 817 1014 887 1016 c 1
 911 901 l 1
 900 890 767 736 562 523 c 1
 439 398 331 302 256 169 c 1
 742 168 l 2
 798 168 850 156 911 136 c 1
 871 -9 l 1
 826 4 809 13 744 13 c 2
 81 13 l 1
 81 33 l 2
 81 106 82 158 103 202 c 0
 179 361 309 469 446 618 c 0
 542 723 620 799 682 857 c 1
 614 856 513 854 412 854 c 0
 287 854 164 857 107 866 c 1xb0
EndSplineSet
Validated: 1
EndChar

StartChar: A
Encoding: 65 65 26
Width: 1060
VWidth: 0
Flags: HW
HStem: 351 176<351.397 694.98> 1381 20G<463.607 593.504>
LayerCount: 2
Fore
SplineSet
470 1401 m 1
 587 1401 l 1
 1036 21 l 1
 860 0 l 1
 754 351 l 1
 607 348 405 350 289 321 c 1
 177 0 l 1
 9 26 l 1
 470 1401 l 1
695 529 m 1
 529 1059 l 1
 348 507 l 1
 410 521 463 523 549 527 c 1
 695 529 l 1
EndSplineSet
Validated: 1
EndChar

StartChar: B
Encoding: 66 66 27
Width: 1060
VWidth: 0
Flags: HW
HStem: 3 162<274.23 689.663> 698 168<280.17 518.003> 1241 160<280.972 540.534>
VStem: 92 186<165.33 697.95 866.25 1239.91> 584 185<926.128 1197.07> 778 192<259.123 588.707>
LayerCount: 2
Fore
SplineSet
489 700 m 0
 439 700 400 698 324 698 c 2
 278 698 l 1
 276 443 275 247 274 165 c 1
 386 165 406 158 484 158 c 0
 526 158 561 160 598 165 c 0
 708 179 778 287 778 442 c 0
 778 613 645 700 489 700 c 0
584 1070 m 2
 584 1192 527 1241 384 1241 c 2
 366 1241 l 2
 325 1241 310 1239 278 1236 c 1
 282 1191 283 1144 283 1096 c 0
 283 1021 280 943 280 866 c 1
 453 869 584 873 584 1062 c 2
 584 1070 l 2
92 888 m 0
 92 1075 88 1250 79 1387 c 1
 163 1394 214 1401 332 1401 c 0
 338 1401 344 1401 350 1401 c 0
 564 1401 769 1314 769 1081 c 0
 769 977 742 888 679 828 c 1
 840 772 970 629 970 424 c 0
 970 181 815 25 642 3 c 0
 601 -2 559 -5 518 -5 c 0
 430 -5 336 3 224 3 c 2
 82 3 l 1
 82 212 92 440 92 888 c 0
EndSplineSet
Validated: 1
EndChar

StartChar: C
Encoding: 67 67 28
Width: 1060
VWidth: 0
Flags: HW
HStem: -3 166<410.509 718.454> 1243 166<439.898 706.638>
VStem: 50 190<381.901 972.806>
LayerCount: 2
Fore
SplineSet
582 1243 m 0
 462 1243 395 1173 345 1101 c 1
 298 1031 240 905 240 674 c 0
 240 441 312 163 548 163 c 2
 562 163 l 1
 714 168 795 247 848 368 c 1
 1003 287 l 1
 926 120 787 -3 589 -3 c 2
 586 -3 l 2
 470 -3 334 24 236 123 c 1
 111 255 50 431 50 672 c 0
 50 946 133 1115 187 1197 c 0
 262 1312 404 1409 586 1409 c 0
 732 1409 864 1318 955 1147 c 1
 804 1059 l 1
 741 1189 671 1243 582 1243 c 0
EndSplineSet
Validated: 1
EndChar

StartChar: D
Encoding: 68 68 29
Width: 1060
VWidth: 0
Flags: HW
HStem: 0 158<251.46 608.232> 1243 164<258.188 535.29>
VStem: 70 186<160.875 1240.18> 766 187<328.3 954.166>
LayerCount: 2
Fore
SplineSet
63 135 m 1
 63 193 70 612 70 952 c 2
 70 1033 l 2
 70 1169 65 1300 56 1393 c 1
 140 1402 187 1407 290 1407 c 0
 756 1407 953 1085 953 613 c 0
 953 274 819 32 575 8 c 0
 518 3 464 0 407 0 c 0
 320 0 179 0 60 0 c 1
 60 36 60 31 63 135 c 1
334 1243 m 2
 303 1243 l 2
 296 1243 290 1243 284 1243 c 0
 275 1243 267 1243 256 1241 c 1
 257 1214 257 1181 257 1148 c 0
 257 1081 256 1008 256 935 c 0
 256 611 252 265 251 161 c 1
 342 158 369 158 431 158 c 0
 663 158 766 294 766 581 c 0
 766 953 705 1243 334 1243 c 2
EndSplineSet
Validated: 1
EndChar

StartChar: E
Encoding: 69 69 30
Width: 1060
VWidth: 0
Flags: HW
HStem: -3 162<280.5 925.604> 719 162<283.47 716.76> 1235 165<283.47 914.76>
VStem: 97 186<159.39 718.74 881.1 1234.53>
LayerCount: 2
Fore
SplineSet
97 1395 m 1
 155 1399 228 1400 309 1400 c 0
 342 1400 375 1400 411 1400 c 2
 526 1400 l 2
 680 1400 822 1396 899 1396 c 2
 915 1396 l 1
 915 1235 l 1
 283 1235 l 5
 283 881 l 5
 717 881 l 1
 717 719 l 1
 283 719 l 5
 283 686 l 6
 283 467 280 242 280 159 c 5
 804 160 l 2
 862 160 926 189 926 189 c 1
 971 29 l 1
 921 15 885 -3 806 -3 c 2
 97 -3 l 1
 97 1395 l 1
EndSplineSet
Validated: 1
EndChar

StartChar: F
Encoding: 70 70 31
Width: 1060
VWidth: 0
Flags: HW
HStem: 721 162<297.99 728.799> 1236 165<297.99 929.35>
VStem: 112 186<2.97 719.73 881.1 1235.52>
LayerCount: 2
Fore
SplineSet
303 1 m 5
 112 3 l 1
 112 1401 l 1
 824 1401 l 1
 904 1398 953 1382 989 1363 c 1
 931 1206 l 1
 904 1221 881 1235 779 1236 c 1
 706 1236 l 2
 634 1236 561 1236 464 1236 c 0
 416 1236 361 1236 298 1236 c 5
 298 881 l 5
 423 881 468 883 595 883 c 0
 686 883 747 867 748 867 c 2
 767 862 l 1
 731 706 l 1
 692 716 639 721 592 721 c 0
 529 721 479 722 426 722 c 0
 387 722 346 721 298 720 c 5
 298 589 303 101 303 1 c 5
EndSplineSet
Validated: 1
EndChar

StartChar: G
Encoding: 71 71 32
Width: 1060
VWidth: 0
Flags: HW
HStem: -9 167<377.378 727.553> 633 161<446.876 836.55> 1241 164<370.352 717.936>
VStem: 12 186<370.036 1023.86> 837 185<290.749 633.6>
LayerCount: 2
Fore
SplineSet
866 791 m 0
 914 791 958 795 1002 799 c 1
 1002 652 l 2
 1002 183 870 46 710 3 c 1
 663 -8 596 -9 552 -9 c 0
 174 -9 27 325 27 678 c 0
 27 933 81 1143 218 1280 c 1
 322 1375 425 1405 545 1405 c 2
 566 1405 l 1
 789 1400 917 1279 995 1103 c 1
 846 1029 l 1
 792 1152 715 1241 554 1241 c 0
 467 1241 418 1236 338 1162 c 0
 230 1062 214 832 214 666 c 0
 214 437 261 158 562 158 c 0
 592 158 622 160 649 168 c 1
 760 194 817 286 817 634 c 1
 797 632 776 632 755 632 c 0
 724 632 692 633 661 633 c 0
 587 633 536 627 443 591 c 1
 401 747 l 1
 501 786 589 794 694 794 c 0
 752 794 810 791 866 791 c 0
EndSplineSet
Validated: 1
EndChar

StartChar: H
Encoding: 72 72 33
Width: 1060
VWidth: 0
Flags: HW
HStem: 674 164<245.338 753.39> 1379 15G<53.46 240.537 752.4 939.51>
VStem: 53 186<0 652.435 807.84 1395.9> 753 186<0 674.19 838.53 1393.92>
LayerCount: 2
Fore
SplineSet
241 1399 m 1
 239 808 l 1
 335 831 413 838 538 838 c 2
 753 838 l 5
 753 1134 752 1219 752 1394 c 5
 939 1394 l 1
 939 0 l 1
 753 0 l 5
 753 674 l 5
 708 674 687 674 642 674 c 4
 491 674 362 671 239 644 c 1
 239 274 242 195 242 0 c 1
 53 0 l 1
 53 1396 l 1
 241 1399 l 1
EndSplineSet
Validated: 1
EndChar

StartChar: K
Encoding: 75 75 34
Width: 1060
VWidth: 0
Flags: HW
HStem: -14 21G<869.22 926.616> 1397 20G<111.87 300.134 876.15 907.011>
VStem: 112 188<0 550.09 763.29 1416.69>
LayerCount: 2
Fore
SplineSet
518 787 m 5
 643 660 980 214 1033 68 c 5
 893 -14 l 5
 845 104 554 516 418 652 c 5
 418 652 332 546 300 470 c 5
 300 0 l 5
 112 0 l 5
 112 1417 l 5
 300 1417 l 5
 300 763 l 5
 383 883 457 969 560 1080 c 5
 759 1291 865 1396 887 1419 c 5
 1003 1304 l 5
 831 1147 580 866 518 787 c 5
EndSplineSet
Validated: 1
EndChar

StartChar: L
Encoding: 76 76 35
Width: 1060
VWidth: 0
Flags: HW
HStem: -3 166<324.225 970.065> 1381 20G<137.61 324.225>
VStem: 138 187<163.35 1400.85>
LayerCount: 2
Fore
SplineSet
138 -3 m 1
 138 1401 l 1
 325 1401 l 5
 325 163 l 5
 846 163 l 1
 907 166 926 171 972 187 c 1
 1015 29 l 1
 966 12 926 -3 848 -3 c 2
 138 -3 l 1
EndSplineSet
Validated: 1
EndChar

StartChar: M
Encoding: 77 77 36
Width: 1060
VWidth: 31
Flags: HW
HStem: 1402 20G<63.5253 203.115 761.97 923.863>
VStem: 66 183<0 901.29> 741 185<0 887.921>
LayerCount: 2
Fore
SplineSet
64 1412 m 1
 168 1422 l 1
 237 1317 316 1149 387 1017 c 0
 438 920 465 865 485 824 c 1
 571 991 720 1281 804 1422 c 1
 924 1422 l 1
 926 0 l 1
 741 0 l 1
 739 668 l 1
 738 693 738 718 738 741 c 0
 738 836 745 913 759 998 c 1
 682 846 562 626 550 587 c 1
 423 590 l 1
 415 607 355 726 264 908 c 1
 242 956 247 945 231 976 c 1
 240 876 249 776 249 671 c 1
 249 0 l 1
 66 0 l 1
 64 1412 l 1
EndSplineSet
Validated: 1
EndChar

StartChar: N
Encoding: 78 78 37
Width: 1060
VWidth: 0
Flags: HW
HStem: 1384 19G<69.3 241.56 757.845 943.47>
VStem: 69 185<0 1040.49> 749 185<0 88.3338 388.08 1402.83>
LayerCount: 2
Fore
SplineSet
749 0 m 1
 580 385 477 652 254 1033 c 1
 254 863 l 2
 254 547 255 164 255 0 c 1
 69 0 l 1
 69 1404 l 1
 242 1399 l 1
 373 1200 645 652 758 370 c 1
 756 511 749 675 749 820 c 0
 749 1021 753 1219 762 1403 c 1
 943 1403 l 1
 937 1281 934 1119 934 943 c 0
 934 699 940 426 940 178 c 0
 940 117 939 57 939 0 c 1
 749 0 l 1
EndSplineSet
Validated: 1
EndChar

StartChar: O
Encoding: 79 79 38
Width: 1060
VWidth: 0
Flags: HW
HStem: -17 165<375.985 664.696> 1262 165<412.205 659.756>
VStem: 34 187<336.753 994.536> 816 186<364.935 1019.71>
LayerCount: 2
Fore
SplineSet
298 272 m 1
 348 202 409 148 521 148 c 0
 757 148 816 433 816 673 c 2
 816 694 l 2
 816 818 812 983 757 1094 c 0
 697 1217 611 1262 539 1262 c 0
 465 1262 397 1225 337 1143 c 0
 266 1047 221 902 221 619 c 0
 221 507 240 351 298 272 c 1
534 1427 m 1
 663 1427 997 1348 1002 682 c 1
 1002 670 l 2
 1002 493 956 328 906 228 c 0
 828 73 692 -17 521 -17 c 0
 394 -17 261 29 177 137 c 0
 84 256 34 420 34 614 c 0
 34 986 113 1146 186 1249 c 0
 254 1346 372 1424 534 1427 c 1
EndSplineSet
Validated: 1
EndChar

StartChar: P
Encoding: 80 80 39
Width: 1060
VWidth: 0
Flags: HW
HStem: 507 164<284.625 645.075> 1253 163<285.615 667.07>
VStem: 99 187<0.99 510.84 672.21 1247.4> 777 182<790.057 1153.26>
LayerCount: 2
Fore
SplineSet
284 0 m 1
 99 1 l 1
 99 1407 l 1
 222 1407 272 1416 398 1416 c 0
 611 1416 780 1401 889 1253 c 0
 940 1183 959 1086 959 989 c 0
 959 891 952 783 895 689 c 0
 802 538 646 507 420 507 c 0
 375 507 341 509 285 511 c 1
 285 227 284 168 284 0 c 1
777 982 m 0
 777 1207 651 1246 419 1253 c 1
 361 1253 333 1248 286 1247 c 1
 286 1112 l 2
 286 915 285 672 285 672 c 1
 323 671 340 671 372 671 c 0
 642 671 777 727 777 982 c 0
EndSplineSet
Validated: 1
EndChar

StartChar: Q
Encoding: 81 81 40
Width: 1060
VWidth: 0
Flags: HW
HStem: -142 163<787.014 1002.87> -3 158<390.313 609.844> 303 160<408.636 586.661> 1243 165<381.231 639.188>
VStem: 44 186<337.904 1030.91> 783 187<380.258 1054.61>
LayerCount: 2
Fore
SplineSet
611 179 m 1x7c
 598 268 574 303 498 303 c 0
 438 303 388 257 388 197 c 0
 388 196 388 195 388 194 c 0
 415 165 461 155 501 155 c 0
 534 155 573 163 611 179 c 1x7c
490 463 m 0
 614 463 699 410 734 309 c 1
 772 399 783 540 783 717 c 0
 783 727 783 735 783 745 c 0
 783 963 744 1243 497 1243 c 0
 351 1243 230 1060 230 745 c 0
 230 635 235 440 273 311 c 1
 308 433 440 463 490 463 c 0
915 -142 m 0xbc
 795 -142 666 -121 639 16 c 1
 596 4 554 -3 512 -3 c 0x7c
 391 -3 279 44 197 131 c 0
 93 243 44 440 44 679 c 0
 44 903 73 1109 172 1241 c 0
 269 1371 371 1408 499 1408 c 0
 672 1408 794 1338 876 1186 c 0
 965 1021 970 853 970 733 c 0
 970 570 948 381 873 249 c 0
 831 178 810 145 775 105 c 1
 787 26 821 22 904 21 c 1
 915 21 l 2
 954 21 978 26 1003 33 c 1
 1003 -132 l 1
 980 -137 962 -142 915 -142 c 0xbc
EndSplineSet
Validated: 1
EndChar

StartChar: R
Encoding: 82 82 41
Width: 1060
VWidth: 0
Flags: HW
HStem: 612 164<270.27 479.156> 1241 165<268.913 637.933>
VStem: 85 185<0 611.82 767.596 1239.48> 787 188<813.992 1118.72>
LayerCount: 2
Fore
SplineSet
787 966 m 0
 787 1164 643 1241 333 1241 c 0
 306 1241 297 1240 267 1239 c 1
 270 776 l 1
 373 756 433 732 518 732 c 0
 535 732 552 733 569 735 c 0
 715 755 787 810 787 966 c 0
669 583 m 1
 750 451 867 257 925 187 c 1
 944 170 975 133 1019 121 c 1
 958 -24 l 1
 898 -14 842 26 806 72 c 1
 705 188 541 475 483 576 c 1
 398 585 349 598 270 612 c 1
 270 0 l 1
 85 0 l 1
 85 1201 l 2
 85 1273 83 1325 79 1390 c 1
 123 1394 243 1406 306 1406 c 0
 566 1406 761 1392 888 1230 c 0
 938 1167 975 1072 975 981 c 0
 975 743 852 615 669 583 c 1
EndSplineSet
Validated: 1
EndChar

StartChar: S
Encoding: 83 83 42
Width: 1060
VWidth: 0
Flags: HW
HStem: -10 163<332.395 687.053> 1238 166<321.936 669.752>
VStem: 36 186<264.327 445.5> 66 185<958.57 1170.44> 791 186<250.477 555.699>
LayerCount: 2
Fore
SplineSet
248 765 m 1xe8
 153 812 66 910 66 1067 c 0
 66 1300 259 1404 479 1404 c 0
 482 1404 486 1404 489 1404 c 0
 721 1401 898 1320 938 1096 c 1
 761 1064 l 1
 721 1201 631 1238 485 1238 c 0
 403 1238 335 1216 287 1167 c 1
 262 1140 251 1109 251 1072 c 0xd8
 251 984 300 942 358 914 c 1
 480 854 621 854 759 790 c 1
 871 734 977 607 977 419 c 0
 977 129 782 -10 533 -10 c 2
 513 -10 l 1
 146 0 36 205 36 446 c 1
 222 446 l 1
 222 275 304 153 519 153 c 0
 712 153 791 256 791 410 c 0
 791 526 730 599 648 636 c 0
 527 689 387 701 248 765 c 1xe8
EndSplineSet
Validated: 1
EndChar

StartChar: T
Encoding: 84 84 43
Width: 1060
VWidth: 0
Flags: HW
HStem: 1235 167<31.68 396.495 581.625 936.493>
VStem: 396 185<0 1234.53>
LayerCount: 2
Fore
SplineSet
396 0 m 5
 396 1235 l 1
 190 1235 111 1234 32 1234 c 1
 32 1401 l 1
 159 1401 631 1402 826 1402 c 0
 902 1402 952 1389 971 1386 c 1
 937 1222 l 1
 937 1222 872 1235 821 1235 c 2
 581 1235 l 1
 581 0 l 5
 396 0 l 5
EndSplineSet
Validated: 1
EndChar

StartChar: U
Encoding: 85 85 44
Width: 1060
VWidth: 0
Flags: HW
HStem: -11 163<346.589 655.401> 1396 9G<60.39 248.985 775.666 962.28>
VStem: 54 187<295.974 1404.81> 767 186<268.698 1403.16>
LayerCount: 2
Fore
SplineSet
781 1416 m 1
 962 1403 l 1
 953 1339 953 1292 953 1234 c 0
 953 1078 954 940 954 820 c 2
 954 757 l 2
 954 507 952 269 835 129 c 0
 750 26 637 -6 503 -11 c 1
 183 -11 80 168 61 482 c 0
 56 563 54 695 54 841 c 0
 54 1026 57 1235 63 1405 c 1
 249 1405 l 1
 245 1227 241 986 241 786 c 0
 241 653 243 538 248 474 c 0
 267 247 331 152 489 152 c 1
 599 157 654 183 710 243 c 1
 767 310 772 473 772 649 c 0
 772 685 772 721 772 757 c 0
 772 890 767 1048 767 1231 c 0
 767 1307 771 1349 781 1416 c 1
EndSplineSet
Validated: 1
EndChar

StartChar: V
Encoding: 86 86 45
Width: 1060
VWidth: 0
Flags: HW
VStem: 415 182<0 185.072>
LayerCount: 2
Fore
SplineSet
415 0 m 1
 390 207 98 1138 0 1379 c 1
 161 1445 l 1
 266 1173 403 747 505 350 c 1
 582 689 756 1163 861 1430 c 1
 1022 1369 l 1
 920 1120 616 216 597 0 c 1
 415 0 l 1
EndSplineSet
Validated: 1
EndChar

StartChar: W
Encoding: 87 87 46
Width: 1060
VWidth: 0
Flags: HW
HStem: 1403 20G<79.8205 203.445 805.86 944.584>
VStem: 209 150<0 172.855> 427 173<801.203 1032.57> 654 153<0 192.368> 838 171<1156.93 1389.62>
LayerCount: 2
Fore
SplineSet
359 0 m 1
 209 0 l 1
 164 183 52 1117 4 1388 c 1
 178 1423 l 1
 229 1140 259 675 307 330 c 1
 355 567 421 957 427 1033 c 1
 433 1033 440 1033 448 1033 c 0
 497 1033 569 1034 600 1045 c 1
 638 839 683 557 723 356 c 1
 759 665 775 1168 838 1419 c 1
 1009 1387 l 1
 955 1116 842 192 807 0 c 1
 654 0 l 1
 654 0 550 462 516 661 c 1
 467 418 364 13 359 0 c 1
EndSplineSet
Validated: 1
EndChar

StartChar: X
Encoding: 88 88 47
Width: 1060
VWidth: 0
Flags: HW
LayerCount: 2
Fore
SplineSet
817 1446 m 1
 955 1354 l 1
 581 709 l 1
 759 421 860 231 1008 83 c 1
 900 -39 l 1
 742 119 646 287 488 548 c 1
 157 -34 l 1
 20 58 l 1
 386 706 l 1
 261 926 161 1168 15 1336 c 1
 145 1436 l 1
 280 1279 378 1047 485 862 c 1
 817 1446 l 1
EndSplineSet
Validated: 1
EndChar

StartChar: Y
Encoding: 89 89 48
Width: 1060
VWidth: 0
Flags: HW
VStem: 396 188<0 697.632>
LayerCount: 2
Fore
SplineSet
396 0 m 1
 396 152 l 2
 396 249 403 526 403 655 c 1
 321 775 79 1241 26 1356 c 1
 171 1434 l 1
 213 1351 413 967 503 819 c 1
 605 969 811 1353 851 1447 c 1
 996 1362 l 1
 947 1261 871 1107 762 926 c 1
 672 784 611 672 591 644 c 1
 591 594 589 541 589 483 c 1
 586 340 584 188 584 142 c 2
 584 0 l 1
 396 0 l 1
EndSplineSet
Validated: 1
EndChar

StartChar: Z
Encoding: 90 90 49
Width: 1060
VWidth: 0
Flags: HW
HStem: -3 165<264.33 951.233> 1241 164<83.16 776.16>
LayerCount: 2
Fore
SplineSet
119 -5 m 1
 20 89 l 1
 757 1241 l 1
 534 1241 202 1236 83 1236 c 1
 82 1401 l 1
 207 1401 647 1405 842 1405 c 0
 920 1405 967 1391 987 1388 c 1
 984 1352 972 1264 968 1239 c 1
 276 163 l 5
 770 162 l 2
 858 162 887 166 954 189 c 1
 996 29 l 1
 949 12 910 -3 832 -3 c 2
 579 -3 l 2
 358 -3 177 -5 127 -5 c 2
 119 -5 l 1
EndSplineSet
Validated: 1
EndChar

StartChar: I
Encoding: 73 73 50
Width: 1060
VWidth: 0
Flags: HW
HStem: 5 159<130.68 411.345 597.465 873.18> 1235 166<134.64 411.345 597.465 878.13>
VStem: 411 186<164.34 1242.45>
LayerCount: 2
Fore
SplineSet
129 1401 m 1
 291 1405 395 1405 495 1405 c 0
 604 1405 709 1404 878 1402 c 1
 878 1238 l 1
 750 1238 697 1243 597 1243 c 5
 597 164 l 5
 645 164 671 164 724 164 c 0
 771 164 819 163 873 160 c 1
 873 -1 l 1
 785 4 720 5 655 5 c 0
 606 5 555 4 494 4 c 0
 417 4 292 -3 131 -3 c 1
 131 157 l 1
 219 161 274 163 333 163 c 2
 411 163 l 1
 411 1242 l 1
 343 1241 245 1242 135 1235 c 1
 129 1401 l 1
EndSplineSet
Validated: 1
EndChar

StartChar: J
Encoding: 74 74 51
Width: 1060
VWidth: 0
Flags: HW
HStem: -9 161<300.204 538.591> 1237 164<301.259 606.979 796.455 983.07>
VStem: 33 186<247.662 458.37> 634 187<273.589 1222.48>
LayerCount: 2
Fore
SplineSet
422 -9 m 0
 136 -9 35 226 33 459 c 1
 219 458 l 1
 225 296 261 152 420 152 c 0
 613 152 634 353 634 711 c 0
 634 814 617 1087 604 1235 c 1
 554 1235 487 1237 448 1237 c 1
 340 1234 328 1225 300 1218 c 1
 260 1377 l 1
 292 1385 323 1398 446 1401 c 1
 596 1401 823 1400 985 1400 c 1
 983 1235 l 1
 933 1235 847 1236 796 1236 c 1
 813 1044 821 826 821 693 c 0
 821 311 765 -9 422 -9 c 0
EndSplineSet
Validated: 1
EndChar

StartChar: zero
Encoding: 48 48 52
Width: 1060
VWidth: 0
Flags: HW
HStem: -17 164<400.648 590.792> 1236 164<412.813 582.953>
VStem: 91 166<491.698 988.017> 732 166<367.137 871.293>
LayerCount: 2
Fore
SplineSet
191 1164 m 1
 253 1300 357 1400 494 1400 c 0
 625 1400 729 1312 794 1186 c 1
 860 1064 898 898 898 706 c 0
 898 514 862 341 799 210 c 1
 734 81 635 -17 498 -17 c 0
 372 -17 261 60 195 181 c 0
 129 302 91 466 91 659 c 0
 91 855 126 1030 191 1164 c 1
725 875 m 1
 306 339 l 1
 334 237 420 147 498 147 c 0
 561 147 621 204 662 296 c 0
 704 391 732 557 732 727 c 0
 732 779 729 831 725 875 c 1
270 487 m 1
 686 1020 l 1
 653 1127 573 1236 495 1236 c 0
 440 1236 373 1166 332 1076 c 0
 291 988 257 797 257 640 c 0
 257 586 266 513 270 487 c 1
EndSplineSet
Validated: 1
EndChar

StartChar: period
Encoding: 46 46 53
Width: 1060
VWidth: 26
Flags: HW
HStem: 0 269<407 658>
VStem: 407 251<0 269>
LayerCount: 2
Fore
SplineSet
407 269 m 1
 658 269 l 1
 658 0 l 1
 407 0 l 1
 407 269 l 1
EndSplineSet
Validated: 1
EndChar

StartChar: comma
Encoding: 44 44 54
Width: 1060
VWidth: 26
Flags: HW
HStem: -393 667
VStem: 411 258<5 274> 499 170<-164.236 5>
LayerCount: 2
Fore
SplineSet
411 274 m 1xc0
 662 274 l 1
 669 11 l 1
 669 8 l 2xc0
 669 -189 585 -317 418 -393 c 1
 357 -254 l 1
 449 -203 499 -133 499 5 c 1xa0
 411 5 l 1
 411 274 l 1xc0
EndSplineSet
Validated: 1
EndChar

StartChar: ae
Encoding: 230 230 65
Width: 1060
VWidth: 6
Flags: HW
HStem: 4 158<216.037 391.669 618.828 836.862> 465 150<604 835> 508 153<229.84 449.103> 869 154<196.656 401.379 638.541 797.909>
VStem: 33 154<188.584 466.602> 451 153<226.97 465 629 818.014> 835 151<623 834.062>
LayerCount: 2
Fore
SplineSet
515 97 m 1xde
 485 63 425 4 322 4 c 0
 259 4 194 19 140 57 c 0
 59 114 33 211 33 309 c 0
 33 476 97 661 301 661 c 0xbe
 378 661 413 645 451 629 c 1
 451 726 429 870 310 870 c 2
 301 870 l 2
 249 870 219 867 153 767 c 1
 143 753 l 1
 26 827 l 1
 37 845 l 1
 122 979 187 1023 310 1023 c 0
 366 1023 412 1015 473 968 c 1
 492 952 511 928 523 909 c 1
 564 970 612 1023 734 1023 c 0
 978 1023 986 674 986 475 c 1
 604 465 l 1
 604 220 l 1
 629 191 680 161 743 161 c 0
 802 161 853 217 891 270 c 1
 998 170 l 1
 905 44 801 5 724 5 c 0
 643 5 571 38 515 97 c 1xde
604 615 m 1xde
 693 621 751 623 835 623 c 1
 835 729 813 869 743 869 c 0
 615 869 604 777 604 615 c 1xde
187 324 m 0
 187 216 228 162 311 162 c 0
 401 162 440 299 451 327 c 1
 451 474 l 1
 408 499 366 508 312 508 c 0xbe
 234 508 187 425 187 324 c 0
EndSplineSet
Validated: 1
EndChar

StartChar: exclam
Encoding: 33 33 68
Width: 1060
VWidth: 0
Flags: HW
HStem: 0 270<398 648> 1356 20G<425 623>
VStem: 398 250<0 270> 425 198<557.952 1376> 441 166<463 1280.84>
LayerCount: 2
Fore
SplineSet
398 270 m 1xe0
 648 270 l 1
 648 0 l 1
 398 0 l 1
 398 270 l 1xe0
623 1376 m 1xd0
 607 463 l 1
 441 461 l 1xc8
 425 1376 l 1
 623 1376 l 1xd0
EndSplineSet
Validated: 1
EndChar

StartChar: quotesingle
Encoding: 39 39 70
Width: 1060
VWidth: -25
Flags: HW
HStem: 816 651
VStem: 562 253<1278.81 1435.87>
LayerCount: 2
Fore
SplineSet
562 1467 m 1
 815 1434 l 1
 779 1135 597 925 468 816 c 1
 332 956 l 1
 399 1013 538 1239 562 1467 c 1
EndSplineSet
Validated: 1
EndChar

StartChar: Aring
Encoding: 197 197 76
Width: 1060
VWidth: -8
Flags: HW
HStem: 355 178<354.946 702> 1571 124<455.557 616.087>
VStem: 321 129<1439.93 1560.63> 622 132<1439.93 1561.04>
LayerCount: 2
Fore
SplineSet
702 534 m 1
 534 1070 l 1
 352 512 l 1
 415 526 468 529 555 533 c 1
 702 534 l 1
450 1502 m 0
 450 1467 486 1430 537 1430 c 0
 588 1430 622 1467 622 1502 c 0
 622 1537 589 1571 537 1571 c 0
 485 1571 450 1537 450 1502 c 0
321 1500 m 0
 321 1611 423 1695 538 1695 c 0
 653 1695 754 1611 754 1500 c 0
 754 1417 699 1350 623 1321 c 1
 1038 12 l 1
 866 -21 l 1
 762 355 l 1
 614 352 409 353 292 324 c 1
 185 -26 l 1
 15 0 l 1
 446 1324 l 1
 374 1355 321 1421 321 1500 c 0
EndSplineSet
Validated: 1
EndChar

StartChar: ccedilla
Encoding: 231 231 81
Width: 1060
VWidth: 12
Flags: HW
HStem: -358 125<445.445 650.66> -119 269<493.228 631.168> 865 153<363.88 709.499>
VStem: 81 159<292.678 736.59> 654 136<-226.217 -127.936>
LayerCount: 2
Fore
SplineSet
240 527 m 0
 240 157 447 150 557 150 c 2
 570 150 l 2
 726 150 801 215 853 302 c 1
 979 211 l 1
 949 172 867 19 635 -4 c 1
 635 -19 l 1
 732 -24 790 -86 790 -190 c 0
 790 -291 690 -358 606 -358 c 0
 540 -358 468 -333 412 -297 c 1
 450 -191 l 1
 483 -209 523 -233 574 -233 c 0
 610 -233 651 -213 654 -175 c 1
 654 -173 l 2
 654 -144 616 -119 568 -119 c 0
 520 -119 518 -126 490 -136 c 1
 490 -4 l 1
 408 2 322 20 251 73 c 1
 121 174 81 328 81 527 c 0
 81 894 259 1018 574 1018 c 0
 669 1018 743 994 803 948 c 0
 864 901 895 841 917 789 c 1
 763 729 l 1
 752 770 723 865 563 865 c 0
 342 865 240 766 240 527 c 0
EndSplineSet
Validated: 1
EndChar

StartChar: AE
Encoding: 198 198 82
Width: 1060
VWidth: 0
Flags: HW
HStem: -5 169<641.238 979> 29 135<645.453 979> 535 153<337.568 441> 742 166<594 895> 1273 169<552 998>
LayerCount: 2
Fore
SplineSet
441 688 m 1x38
 441 703 l 1
 429 831 428 1014 420 1134 c 1
 348 683 l 1
 382 686 368 686 424 688 c 1
 441 688 l 1x38
1019 29 m 1x78
 972 12 932 -5 853 -5 c 2
 494 -5 l 1
 494 131 l 1
 484 263 465 397 453 532 c 1
 430 534 410 535 391 535 c 0
 363 535 351 534 318 526 c 1
 180 -16 l 1
 14 39 l 1
 149 503 242 971 342 1439 c 1
 429 1439 l 1
 504 1442 612 1442 725 1442 c 2
 998 1442 l 1
 998 1275 l 1
 980 1275 l 2
 893 1275 873 1273 744 1273 c 2
 568 1273 l 1
 568 1224 l 2
 568 1201 586 989 594 903 c 1
 648 904 695 908 784 908 c 2
 895 908 l 1
 895 742 l 1
 784 742 l 2
 698 742 657 738 610 737 c 1
 612 727 612 716 612 706 c 1
 639 468 655 249 660 164 c 1
 979 164 l 1xb8
 1019 29 l 1x78
EndSplineSet
Validated: 1
EndChar

StartChar: Ccedilla
Encoding: 199 199 83
Width: 1060
VWidth: 6
Flags: HW
HStem: -403 125<475.445 680.66> 0 164<394.286 520 666 731.221> 1256 168<430.84 713.776>
VStem: 50 167<385.758 982.633> 520 145<-70.4613 5.70376> 684 136<-271.217 -172.936>
LayerCount: 2
Fore
SplineSet
588 1256 m 0
 467 1256 374 1185 324 1112 c 1
 277 1041 217 914 217 681 c 0
 217 502 249 343 352 244 c 0
 417 181 468 164 554 164 c 2
 568 164 l 1
 722 169 813 251 867 373 c 1
 1013 290 l 1
 945 142 828 28 666 2 c 1
 665 -18 665 -62 665 -64 c 1
 762 -69 820 -131 820 -235 c 0
 820 -336 720 -403 636 -403 c 0
 570 -403 498 -378 442 -342 c 1
 480 -236 l 1
 513 -254 553 -278 604 -278 c 0
 640 -278 681 -258 684 -220 c 1
 684 -218 l 2
 684 -189 646 -164 598 -164 c 0
 550 -164 548 -171 520 -181 c 1
 520 0 l 1
 421 10 317 44 238 124 c 1
 112 257 50 436 50 679 c 0
 50 956 134 1126 189 1209 c 0
 265 1325 408 1424 592 1424 c 0
 739 1424 873 1332 965 1159 c 1
 823 1070 l 1
 759 1201 678 1256 588 1256 c 0
EndSplineSet
Validated: 1
EndChar

StartChar: quotedbl
Encoding: 34 34 92
Width: 1060
VWidth: -25
Flags: HW
HStem: 800 662
VStem: 266 211<969.534 1452.38> 700 211<967.534 1450.38>
LayerCount: 2
Fore
SplineSet
700 1350 m 0
 700 1385 696 1417 692 1450 c 1
 901 1462 l 1
 907 1421 911 1386 911 1343 c 0
 911 1075 874 932 787 800 c 1
 634 888 l 1
 674 951 700 1139 700 1350 c 0
266 1352 m 0
 266 1387 262 1419 258 1452 c 1
 467 1464 l 1
 473 1423 477 1388 477 1345 c 0
 477 1077 440 934 353 802 c 1
 200 890 l 1
 240 953 266 1141 266 1352 c 0
EndSplineSet
Validated: 1
EndChar

StartChar: numbersign
Encoding: 35 35 93
Width: 1060
VWidth: 6
Flags: HW
HStem: 356 147<89.1238 215.523> 385 158<401 565 732 911> 790 159<102.652 265 445 609 780 915> 1312 20G<404 432.5 665.5 838>
VStem: 300 163<957.794 1331> 519 164<-21 367.841>
LayerCount: 2
Fore
SplineSet
351 -19 m 1x7c
 182 -18 l 1
 189 95 199 208 218 375 c 1
 165 374 122 365 94 356 c 1
 44 503 l 1xbc
 100 523 163 529 229 534 c 1
 244 614 256 711 265 790 c 1
 251 790 l 1
 186 786 136 781 101 768 c 1
 48 915 l 1
 113 940 196 944 280 949 c 1
 289 1025 300 1145 300 1146 c 0
 308 1217 308 1278 311 1331 c 1
 340 1331 385 1332 423 1332 c 0
 442 1332 459 1332 473 1331 c 1
 470 1279 471 1212 463 1133 c 1
 462 1113 451 1014 445 955 c 1
 627 955 l 1
 646 1118 656 1207 675 1326 c 1
 838 1324 l 1
 813 1203 799 1114 780 956 c 1
 915 956 l 1
 915 795 l 1
 887 796 854 799 762 799 c 1
 754 720 742 629 732 544 c 1
 911 544 l 1
 911 383 l 1
 884 384 828 386 714 386 c 1
 692 189 692 99 683 -22 c 1
 519 -21 l 1
 530 91 545 209 565 385 c 1
 536 385 l 2
 482 385 432 383 382 380 c 1
 367 230 351 -19 351 -19 c 1x7c
427 795 m 1
 421 715 410 623 401 541 c 1
 442 543 473 543 507 543 c 2
 581 543 l 1x7c
 592 627 600 720 609 798 c 1
 538 798 495 796 427 795 c 1
EndSplineSet
Validated: 1
EndChar

StartChar: dollar
Encoding: 36 36 94
Width: 1060
VWidth: 0
Flags: HW
HStem: 57 160<324.154 390 540 683.625> 671 147<333.434 440> 1114 159<628 712.6> 1130 156<316.953 476> 1391 20G<496.4 638>
VStem: 85 172<289.279 439> 112 158<875.871 1082.68> 760 144<1013.81 1068.36> 766 164<289.909 523.603>
LayerCount: 2
Fore
SplineSet
450 818 m 1xda
 476 1130 l 1
 372 1123 270 1098 270 990 c 0
 270 879 330 864 382 839 c 0
 400 831 432 825 450 818 c 1xda
576 628 m 1
 540 207 l 1
 662 220 766 290 766 403 c 0xc880
 766 505 682 582 608 615 c 0
 598 619 586 624 576 628 c 1
498 1411 m 1
 638 1400 l 1
 628 1273 l 1
 762 1242 878 1162 904 1017 c 1
 760 985 l 1xeb
 753 1069 660 1110 616 1114 c 1
 590 790 l 1
 632 780 692 762 734 743 c 1
 835 693 930 581 930 415 c 0
 930 166 746 49 530 43 c 1
 526 -13 520 -69 516 -125 c 1
 376 -114 l 1
 390 57 l 1
 176 109 85 261 85 439 c 1
 257 439 l 1xec80
 257 327 304 246 402 217 c 1
 440 671 l 1
 394 685 323 698 275 720 c 1
 190 761 112 848 112 987 c 0
 112 1186 298 1281 488 1286 c 1xda
 498 1411 l 1
EndSplineSet
Validated: 1
EndChar

StartChar: oe
Encoding: 339 339 95
Width: 1060
VWidth: 6
Flags: HW
HStem: 0 154<246.141 411.389 614.569 805.768> 486 156<598 825> 863 154<265.121 424.291 615.104 771.757>
VStem: 34 152<230.029 754.4> 445 153<186.445 474 631 843.974>
LayerCount: 2
Fore
SplineSet
340 154 m 0
 392 154 443 227 443 286 c 2
 445 754 l 2
 445 776 431 863 338 863 c 0
 244 863 189 687 186 474 c 0
 186 468 186 462 186 456 c 0
 186 385 199 269 251 191 c 0
 269 164 307 154 340 154 c 0
598 652 m 2
 598 631 l 1
 686 636 749 635 825 642 c 1
 819 746 779 862 701 862 c 0
 661 862 622 851 609 805 c 1
 598 770 598 709 598 652 c 2
980 187 m 1
 980 187 921 0 718 0 c 0
 626 0 550 40 497 95 c 1
 473 63 420 0 346 0 c 0
 290 0 221 5 141 91 c 0
 38 202 34 380 34 459 c 0
 34 505 35 585 45 635 c 1
 66 758 128 1017 337 1017 c 0
 416 1017 455 990 496 954 c 0
 507 945 514 937 519 931 c 1
 542 968 586 1018 701 1018 c 0
 902 1018 977 796 985 570 c 1
 985 486 l 1
 917 486 l 1
 817 483 680 478 598 474 c 1
 596 215 l 1
 635 176 683 154 722 154 c 0
 797 154 825 221 841 256 c 1
 980 187 l 1
EndSplineSet
Validated: 1
EndChar

StartChar: bracketleft
Encoding: 91 91 96
Width: 1060
VWidth: 66
Flags: HW
HStem: -259 162<509 858> 1316 154<509 814.303>
VStem: 322 187<-101 1316>
LayerCount: 2
Fore
SplineSet
814 1483 m 1
 846 1329 l 1
 745 1320 676 1320 509 1316 c 1
 509 -101 l 1
 605 -98 683 -97 702 -97 c 2
 715 -97 l 2
 778 -97 844 -103 858 -106 c 1
 858 -268 l 1
 833 -265 793 -259 722 -259 c 0
 663 -259 417 -264 324 -264 c 1
 324 -86 326 -3 326 177 c 0
 326 267 325 388 324 567 c 0
 324 742 322 918 322 1049 c 2
 322 1470 l 1
 415 1470 659 1477 710 1477 c 1
 782 1480 791 1481 814 1483 c 1
EndSplineSet
Validated: 1
EndChar

StartChar: bracketright
Encoding: 93 93 97
Width: 1060
VWidth: 66
Flags: HW
HStem: -259 162<125 474> 1329 154<166.021 474>
VStem: 474 187<-101 1316>
LayerCount: 2
Fore
SplineSet
169 1483 m 1
 192 1481 201 1480 273 1477 c 1
 324 1477 568 1470 661 1470 c 1
 661 1049 l 2
 661 918 659 742 659 567 c 0
 658 388 657 267 657 177 c 0
 657 -3 659 -86 659 -264 c 1
 566 -264 320 -259 261 -259 c 0
 190 -259 150 -265 125 -268 c 1
 125 -106 l 1
 139 -103 205 -97 268 -97 c 2
 281 -97 l 2
 300 -97 378 -98 474 -101 c 5
 474 1316 l 5
 307 1320 238 1320 137 1329 c 1
 169 1483 l 1
EndSplineSet
Validated: 1
EndChar

StartChar: parenleft
Encoding: 40 40 98
Width: 1060
VWidth: 66
Flags: HW
HStem: -262 166<724.166 902> 1326 158<699.982 903>
VStem: 258 160<306.626 948.43>
LayerCount: 2
Fore
SplineSet
903 1326 m 1
 900 1326 897 1326 894 1326 c 0
 555 1326 418 992 418 612 c 0
 418 232 606 -95 902 -96 c 1
 902 -262 l 1
 542 -259 258 55 258 612 c 0
 258 1144 472 1471 903 1484 c 1
 903 1326 l 1
EndSplineSet
Validated: 1
EndChar

StartChar: parenright
Encoding: 41 41 99
Width: 1060
VWidth: 66
Flags: HW
HStem: -262 166<157 334.834> 1326 158<156 359.018>
VStem: 641 160<306.626 948.43>
LayerCount: 2
Fore
SplineSet
156 1326 m 1
 156 1484 l 1
 587 1471 801 1144 801 612 c 0
 801 55 517 -259 157 -262 c 1
 157 -96 l 1
 453 -95 641 232 641 612 c 0
 641 992 504 1326 165 1326 c 0
 162 1326 159 1326 156 1326 c 1
EndSplineSet
Validated: 1
EndChar

StartChar: hyphen
Encoding: 45 45 100
Width: 1060
VWidth: 6
Flags: HW
HStem: 448 152<118 949>
LayerCount: 2
Fore
SplineSet
112 591 m 1
 248 598 404 600 506 600 c 0
 547 600 586 600 625 600 c 0
 707 600 824 599 931 598 c 1
 949 598 l 1
 949 445 l 1
 931 445 l 1
 796 448 629 448 504 448 c 0
 437 448 270 446 118 438 c 1
 118 522 l 1
 112 591 l 1
EndSplineSet
Validated: 1
EndChar

StartChar: plus
Encoding: 43 43 101
Width: 1060
VWidth: 6
Flags: HW
HStem: 443 155<71 446 606 980>
VStem: 449 154<2 445 601 984>
LayerCount: 2
Fore
SplineSet
71 589 m 1
 128 600 196 601 289 601 c 0
 335 601 388 601 449 601 c 1
 449 985 l 1
 603 984 l 1
 603 593 l 1
 606 600 l 1
 733 598 836 598 899 598 c 0
 926 598 953 598 980 598 c 1
 980 443 l 1
 965 443 l 2
 959 443 816 443 606 446 c 1
 607 0 l 1
 446 2 l 1
 446 445 l 1
 247 445 139 444 71 434 c 1
 71 589 l 1
EndSplineSet
Validated: 1
EndChar

StartChar: less
Encoding: 60 60 102
Width: 1060
VWidth: 4
Flags: HW
LayerCount: 2
Fore
SplineSet
884 75 m 1
 759 -30 l 1
 735 6 691 42 643 80 c 1
 548 159 167 435 141 453 c 1
 141 573 l 1
 298 702 615 957 748 1035 c 0
 778 1052 799 1066 834 1077 c 1
 881 920 l 1
 720 835 485 640 326 517 c 1
 469 416 792 207 884 75 c 1
EndSplineSet
Validated: 1
EndChar

StartChar: greater
Encoding: 62 62 103
Width: 1060
VWidth: 6
Flags: HW
LayerCount: 2
Fore
SplineSet
794 577 m 1
 794 460 l 1
 698 391 278 21 100 -44 c 1
 32 95 l 1
 207 189 468 399 609 512 c 1
 483 602 239 780 125 886 c 0
 98 911 76 930 57 960 c 1
 175 1062 l 1
 281 936 707 644 794 577 c 1
EndSplineSet
Validated: 1
EndChar

StartChar: slash
Encoding: 47 47 104
Width: 1060
VWidth: 60
Flags: HW
HStem: 1418 20G<695 800.034>
LayerCount: 2
Fore
SplineSet
110 -80 m 1
 116 -67 144 -10 162 32 c 0
 258 257 641 1152 749 1438 c 1
 897 1380 l 1
 759 1028 378 141 258 -141 c 1
 110 -80 l 1
EndSplineSet
Validated: 1
EndChar

StartChar: one
Encoding: 49 49 105
Width: 1060
VWidth: 0
Flags: HW
HStem: -10 21G<536.965 712> -10 21G<536.965 712> 1395 20G<527.5 605.469>
VStem: 537 175<-10 1129>
LayerCount: 2
Fore
SplineSet
532 1415 m 1xb0
 712 1366 l 1
 712 -10 l 1
 537 -10 l 1
 535 1129 l 1
 462 1038 313 928 174 850 c 1
 86 997 l 1
 414 1162 523 1399 532 1415 c 1xb0
EndSplineSet
Validated: 1
EndChar

StartChar: two
Encoding: 50 50 106
Width: 1060
VWidth: 0
Flags: HW
HStem: 2 164<285 912> 1230 167<356.036 640.631>
VStem: 109 169<166 266.007 917.578 1147.71> 721 170<857.047 1146.17>
LayerCount: 2
Fore
SplineSet
292 917 m 1
 132 878 l 1
 122 909 112 959 110 998 c 0
 110 1008 109 1016 109 1025 c 0
 109 1263 286 1397 498 1397 c 0
 754 1397 891 1271 891 993 c 0
 891 857 807 736 721 645 c 1
 630 554 503 462 394 355 c 0
 318 280 287 205 285 166 c 1
 912 168 l 1
 912 2 l 1
 99 2 l 1
 99 34 97 69 97 104 c 0
 97 132 99 160 104 190 c 0
 123 294 172 385 288 493 c 0
 401 598 509 669 592 750 c 1
 674 828 721 926 721 991 c 0
 721 1115 661 1230 506 1230 c 0
 367 1230 278 1155 278 984 c 0
 278 962 288 929 292 917 c 1
EndSplineSet
Validated: 1
EndChar

StartChar: three
Encoding: 51 51 107
Width: 1060
VWidth: 0
Flags: HW
HStem: -24 166<313.658 633.427> 713 169<334 560.808> 1244 168<338.055 598.344>
VStem: 53 169<232.762 358> 658 169<967.038 1187.72> 740 171<245.911 574.817>
LayerCount: 2
Fore
SplineSet
53 358 m 1xf4
 222 360 l 1
 223 236 312 142 469 142 c 0
 638 142 740 242 740 400 c 0xf4
 740 518 705 600 601 658 c 0
 504 713 420 713 334 713 c 1
 334 882 l 1
 351 882 l 2
 392 882 445 884 522 910 c 1
 612 942 658 992 658 1100 c 0
 658 1183 567 1244 459 1244 c 0
 323 1244 261 1120 242 1081 c 1
 90 1165 l 1
 95 1181 188 1412 448 1412 c 2
 460 1412 l 2
 652 1412 827 1309 827 1105 c 0xf8
 827 968 772 854 675 810 c 1
 847 727 911 584 911 402 c 0
 911 311 881 193 809 108 c 0
 738 26 639 -24 469 -24 c 0
 211 -24 53 140 53 358 c 1xf4
EndSplineSet
Validated: 1
EndChar

StartChar: four
Encoding: 52 52 108
Width: 1060
VWidth: 0
Flags: HW
HStem: -2 21G<617 784> 442 168<277 617 784 921> 1377 20G<598 784>
VStem: 617 167<-2 442 610 1059 1301.41 1397>
LayerCount: 2
Fore
SplineSet
53 581 m 1
 89 630 586 1223 610 1397 c 1
 784 1397 l 1
 784 610 l 1
 921 610 l 1
 921 445 l 1
 784 445 l 1
 784 -2 l 1
 617 -2 l 1
 617 442 l 1
 118 442 l 1
 53 581 l 1
617 610 m 1
 617 1059 l 1
 539 921 375 714 277 610 c 1
 617 610 l 1
EndSplineSet
Validated: 1
EndChar

StartChar: five
Encoding: 53 53 109
Width: 1060
VWidth: 0
Flags: HW
HStem: -2 167<343.719 632.996> 782 169<332.107 645.551> 1211 167<309 799>
VStem: 755 169<289.547 671.877>
LayerCount: 2
Fore
SplineSet
489 782 m 0
 349 782 262 685 244 667 c 1
 109 724 l 1
 158 1378 l 1
 799 1376 l 1
 799 1211 l 1
 309 1211 l 1
 285 893 l 1
 335 923 403 951 486 951 c 0
 547 951 619 940 692 905 c 1
 811 842 924 697 924 482 c 0
 924 161 732 0 475 -2 c 1
 473 -2 l 2
 286 -2 158 122 83 247 c 1
 226 341 l 1
 282 249 356 165 476 165 c 0
 655 165 755 277 755 479 c 0
 755 637 700 715 617 754 c 0
 572 775 528 782 489 782 c 0
EndSplineSet
Validated: 1
EndChar

StartChar: six
Encoding: 54 54 110
Width: 1060
VWidth: 0
Flags: HW
HStem: -3 164<350.147 657.847> 632 166<369.347 667.784> 1257 157<599.25 694.835>
VStem: 760 170<256.424 542.563>
LayerCount: 2
Fore
SplineSet
245 431 m 1
 264 254 350 161 491 161 c 0
 645 161 760 248 760 394 c 0
 760 540 669 632 520 632 c 0
 378 632 262 522 245 431 c 1
733 1257 m 1
 509 1216 380 1065 309 897 c 1
 282 831 271 764 261 700 c 1
 319 749 370 798 530 798 c 0
 768 798 930 641 930 394 c 0
 930 123 744 -3 491 -3 c 0
 212 -3 71 222 71 515 c 0
 71 642 91 805 153 963 c 0
 234 1168 382 1353 691 1414 c 1
 733 1257 l 1
EndSplineSet
Validated: 1
EndChar

StartChar: seven
Encoding: 55 55 111
Width: 1060
VWidth: 0
Flags: HW
HStem: 1216 160<214.967 777>
VStem: 305 177<0 356.731>
LayerCount: 2
Fore
SplineSet
132 1382 m 1
 222 1382 337 1376 419 1376 c 0
 581 1376 758 1384 911 1384 c 2
 954 1384 l 1
 1004 1296 l 1
 685 795 482 486 482 0 c 1
 305 0 l 1
 305 435 468 793 777 1220 c 1
 684 1217 562 1216 465 1216 c 0
 398 1216 302 1216 235 1219 c 1
 215 1179 204 1141 190 1095 c 1
 46 1160 l 1
 66 1223 104 1302 132 1382 c 1
EndSplineSet
Validated: 1
EndChar

StartChar: eight
Encoding: 56 56 112
Width: 1060
VWidth: 0
Flags: HW
HStem: -10 167<340.756 664.496> 1216 168<348.416 657.164>
VStem: 58 170<268.327 546.06> 123 168<976.419 1161.86> 703 169<974.041 1169.56> 761 169<251.567 550.261>
LayerCount: 2
Fore
SplineSet
306 791 m 1xe4
 212 833 123 944 123 1054 c 0
 123 1255 303 1384 504 1384 c 0
 728 1384 872 1228 872 1061 c 0xd8
 872 929 777 836 689 789 c 1
 833 710 930 599 930 399 c 0
 930 163 774 -10 520 -10 c 0
 243 -10 58 150 58 404 c 0
 58 599 183 724 306 791 c 1xe4
291 1058 m 0
 291 987 394 922 504 878 c 1
 605 918 703 982 703 1064 c 0
 703 1134 666 1216 503 1216 c 0
 375 1216 291 1160 291 1058 c 0
228 417 m 0xe4
 228 247 355 157 502 157 c 0
 668 157 761 245 761 415 c 0
 761 546 672 626 499 703 c 1
 358 639 228 557 228 417 c 0xe4
EndSplineSet
Validated: 1
EndChar

StartChar: nine
Encoding: 57 57 113
Width: 1060
VWidth: 0
Flags: HW
HStem: -2 167<300.868 632.573> 652 166<334.437 647.375> 1233 160<335.341 635.5>
VStem: 40 164<277.983 340.196> 73 170<898.32 1145.29> 772 167<331.88 760>
LayerCount: 2
Fore
SplineSet
73 1022 m 0xec
 73 1277 245 1393 483 1393 c 0
 639 1393 736 1343 791 1286 c 0
 920 1151 939 961 939 689 c 0
 939 342 862 -2 491 -2 c 0
 229 -2 110 121 40 336 c 1
 204 384 l 1xf4
 252 229 295 165 491 165 c 0
 727 165 772 401 772 645 c 0
 772 684 770 723 769 760 c 1
 702 692 625 652 487 652 c 0
 258 652 73 781 73 1022 c 0xec
509 1233 m 0
 370 1233 243 1171 243 1019 c 0xec
 243 880 374 818 502 818 c 0
 639 818 729 919 750 993 c 1
 736 1111 634 1233 509 1233 c 0
EndSplineSet
Validated: 1
EndChar

StartChar: equal
Encoding: 61 61 114
Width: 1060
VWidth: 6
Flags: HW
HStem: 189 160<60 905> 652 162<61.7699 896.013> 667 158<58 399.491 413.172 905>
LayerCount: 2
Fore
SplineSet
58 825 m 1xa0
 201 816 312 814 406 814 c 0
 598 814 707 823 905 823 c 1
 905 664 l 1
 712 664 601 652 404 652 c 0xc0
 308 652 200 658 55 667 c 1
 55 720 55 774 58 825 c 1xa0
60 349 m 1
 200 357 312 357 426 357 c 0
 605 357 739 349 907 349 c 1
 905 188 l 1
 731 188 587 193 404 193 c 0
 354 193 304 194 252 194 c 0
 192 194 129 193 60 189 c 1
 60 349 l 1
EndSplineSet
Validated: 1
EndChar

StartChar: backslash
Encoding: 92 92 115
Width: 1060
VWidth: 60
Flags: HW
HStem: 1418 20G<186.966 292>
LayerCount: 2
Fore
SplineSet
876 -80 m 1
 728 -141 l 1
 608 141 228 1028 90 1380 c 1
 238 1438 l 1
 346 1152 728 257 826 32 c 1
 842 -10 870 -67 876 -80 c 1
EndSplineSet
Validated: 1
EndChar

StartChar: asciicircum
Encoding: 94 94 116
Width: 1060
VWidth: -10
Flags: HW
HStem: 467 634
LayerCount: 2
Fore
SplineSet
513 1101 m 1
 971 590 l 1
 851 467 l 1
 515 829 l 1
 160 467 l 1
 45 576 l 1
 513 1101 l 1
EndSplineSet
Validated: 1
EndChar

StartChar: underscore
Encoding: 95 95 117
Width: 1060
VWidth: 41
Flags: HW
HStem: -236 152<56 1002>
LayerCount: 2
Fore
SplineSet
56 -84 m 1
 1002 -84 l 1
 1002 -236 l 1
 52 -236 l 1
 56 -84 l 1
EndSplineSet
Validated: 1
EndChar

StartChar: grave
Encoding: 96 96 118
Width: 1060
VWidth: -25
Flags: HW
HStem: 784 666
VStem: 269 203<1286.83 1403.53>
LayerCount: 2
Fore
SplineSet
494 1352 m 0
 556 1150 682 966 740 918 c 1
 604 784 l 1
 482 885 373 1027 294 1283 c 0
 282 1324 275 1359 269 1400 c 1
 472 1450 l 1
 478 1417 484 1386 494 1352 c 0
EndSplineSet
Validated: 1
EndChar

StartChar: question
Encoding: 63 63 119
Width: 1060
VWidth: 0
Flags: HW
HStem: 0 270<343 593> 1182 155<355.349 640.299>
VStem: 125 157<878.836 1109.3> 343 250<0 270> 377 175<431 598.664> 698 160<876.981 1122.17>
LayerCount: 2
Fore
SplineSet
343 270 m 1xf4
 593 270 l 1
 593 0 l 1
 343 0 l 1
 343 270 l 1xf4
515 1337 m 0
 746 1337 858 1205 858 993 c 0
 858 834 739 736 661 670 c 0
 609 626 552 559 552 477 c 2
 552 431 l 1
 377 431 l 1
 377 475 l 2xec
 377 595 429 673 513 747 c 0
 613 836 698 883 698 989 c 0
 698 1101 639 1182 507 1182 c 0
 383 1182 284 1121 282 989 c 0
 282 942 311 896 337 864 c 1
 203 774 l 1
 162 834 125 899 125 984 c 0
 125 1227 308 1337 515 1337 c 0
EndSplineSet
Validated: 1
EndChar

StartChar: asciitilde
Encoding: 126 126 120
Width: 1060
VWidth: -12
Flags: HW
HStem: 422 153<618.995 800.693> 596 154<245.74 443.755>
VStem: 859 143<637.125 693.115>
LayerCount: 2
Fore
SplineSet
345 750 m 0
 501 750 628 575 718 575 c 0
 805 575 845 683 859 748 c 1
 1002 687 l 1
 979 599 917 422 714 422 c 0
 548 422 447 596 335 596 c 0
 279 596 218 538 170 451 c 1
 41 542 l 1
 111 677 189 750 345 750 c 0
EndSplineSet
Validated: 1
EndChar

StartChar: Oslash
Encoding: 216 216 127
Width: 1060
VWidth: 0
Flags: HW
HStem: -9 170<388.951 670.754> 1277 170<403.756 650.828>
VStem: 34 167<364.523 964.234> 846 166<400.464 1051.64>
LayerCount: 2
Fore
SplineSet
185 138 m 1
 183 140 181 144 179 146 c 0
 85 268 34 432 34 633 c 0
 34 975 126 1158 200 1264 c 0
 269 1364 387 1444 551 1447 c 0
 592 1447 651 1442 714 1414 c 1
 727 1446 738 1474 747 1500 c 1
 902 1437 l 1
 887 1398 871 1354 852 1307 c 1
 939 1201 1010 1018 1012 703 c 1
 1012 691 l 2
 1012 509 965 343 915 239 c 1
 836 79 698 -9 525 -9 c 0
 456 -9 385 5 321 34 c 1
 309 8 300 -17 291 -39 c 1
 136 27 l 1
 142 40 167 93 185 138 c 1
262 322 m 1
 368 574 535 967 652 1256 c 1
 623 1271 591 1277 556 1277 c 0
 456 1277 397 1247 336 1162 c 0
 264 1063 201 882 201 638 c 0
 201 542 221 410 262 322 c 1
775 1118 m 1
 653 818 498 455 387 190 c 1
 425 171 469 161 525 161 c 0
 647 161 724 231 771 324 c 1
 813 395 846 575 846 694 c 1
 846 694 842 983 783 1104 c 0
 781 1108 777 1114 775 1118 c 1
EndSplineSet
Validated: 1
EndChar

StartChar: multiply
Encoding: 215 215 128
Width: 1060
VWidth: 6
Flags: HW
LayerCount: 2
Fore
SplineSet
391 522 m 1
 271 642 181 748 73 848 c 1
 172 971 l 1
 281 870 393 753 506 636 c 1
 684 806 825 945 842 963 c 1
 946 840 l 1
 927 821 790 682 619 515 c 1
 798 324 846 261 946 161 c 1
 826 63 l 1
 746 167 668 239 504 407 c 1
 352 258 242 132 196 82 c 1
 79 180 l 1
 139 252 248 380 391 522 c 1
EndSplineSet
Validated: 1
EndChar

StartChar: oslash
Encoding: 248 248 140
Width: 1060
VWidth: 6
Flags: HW
HStem: -9 21G<109.654 149.2> -9 21G<109.654 149.2> 1 155<347.508 640.662> 878 154<362.497 648.732>
VStem: 82 158<358.327 736.885> 753 159<279.587 664.228>
LayerCount: 2
Fore
SplineSet
664 215 m 1x3c
 729 276 753 382 753 530 c 0
 753 536 753 542 753 548 c 0
 753 590 750 630 742 667 c 1
 330 212 l 1
 371 176 426 156 494 156 c 0
 570 157 614 173 664 215 c 1x3c
865 804 m 1
 898 727 912 629 912 543 c 0
 912 258 816 1 494 1 c 2
 492 1 l 1x3c
 378 2 288 33 222 91 c 1
 131 -9 l 1x9c
 20 95 l 1
 129 218 l 1
 98 287 82 370 82 464 c 0
 82 756 184 1032 476 1032 c 0
 608 1032 702 1001 770 940 c 1
 883 1067 l 1
 1003 956 l 1
 865 804 l 1
251 356 m 1
 665 821 l 1
 628 857 577 878 510 878 c 0
 302 878 240 713 240 469 c 0
 240 428 243 390 251 356 c 1
EndSplineSet
Validated: 1
EndChar

StartChar: plusminus
Encoding: 177 177 145
Width: 1060
VWidth: -6
Flags: HW
HStem: 186 150<99 434 594 955> 669 150<92 436 596 955>
VStem: 436 160<344 658 811 1171>
LayerCount: 2
Fore
SplineSet
92 822 m 1
 265 812 335 811 436 811 c 1
 438 1172 l 1
 598 1171 l 1
 596 810 l 1
 751 813 749 819 938 819 c 2
 955 819 l 1
 955 669 l 1
 938 669 l 2
 752 669 754 663 596 658 c 1
 596 647 l 2
 596 541 594 433 594 343 c 1
 758 340 772 338 938 335 c 1
 955 334 l 1
 955 184 l 1
 938 185 l 1
 729 188 657 192 436 192 c 0
 304 192 277 191 117 186 c 1
 99 186 l 1
 99 336 l 1
 116 336 l 1
 277 340 313 344 434 344 c 1
 434 437 436 543 436 649 c 2
 436 659 l 1
 329 659 270 662 92 672 c 1
 92 822 l 1
EndSplineSet
Validated: 1
EndChar

StartChar: divide
Encoding: 247 247 146
Width: 1060
VWidth: 6
Flags: HW
HStem: -12 270<365 615> 437 157<111 897> 757 269<363 614>
VStem: 365 250<-12 258 757 1026>
LayerCount: 2
Fore
SplineSet
363 1026 m 1
 614 1026 l 1
 614 757 l 1
 363 757 l 1
 363 1026 l 1
365 258 m 1
 615 258 l 1
 615 -12 l 1
 365 -12 l 1
 365 258 l 1
111 437 m 1
 106 594 l 1
 265 599 390 600 468 600 c 0
 606 600 671 597 881 594 c 1
 898 594 l 1
 897 437 l 1
 879 437 l 1
 666 440 602 444 465 444 c 0
 389 444 263 441 111 437 c 1
EndSplineSet
Validated: 1
EndChar

StartChar: OE
Encoding: 338 338 149
Width: 1060
VWidth: 0
Flags: HW
HStem: -9 166<277.906 476.342 638 978.81> 743 167<642 931> 1275 170<322.92 478 642 1001>
VStem: 3 161<286.516 1068.22> 478 164<167 743 910 1275>
LayerCount: 2
Fore
SplineSet
843 167 m 1
 905 169 934 178 981 195 c 1
 1021 36 l 1
 910 4 808 -1 691 -1 c 0
 642 -1 590 0 532 0 c 1
 514 -8 414 -9 398 -9 c 0
 77 4 3 317 3 651 c 0
 3 1126 105 1450 457 1450 c 0
 484 1450 514 1447 541 1442 c 1
 603 1445 669 1445 735 1445 c 0
 824 1445 915 1444 1001 1444 c 1
 1001 1275 l 1
 904 1275 844 1276 769 1276 c 0
 732 1276 691 1276 642 1275 c 1
 642 910 l 1
 931 910 l 1
 931 743 l 1
 642 743 l 1
 642 523 638 253 638 167 c 1
 843 167 l 1
477 159 m 1
 478 1275 l 1
 204 1275 164 1037 164 630 c 0
 164 384 168 162 430 157 c 0
 447 157 463 158 477 159 c 1
EndSplineSet
Validated: 1
EndChar

StartChar: yen
Encoding: 165 165 150
Width: 1060
VWidth: 0
Flags: HW
HStem: -7 21G<410 578> 374 163<87 413 584 932> 694 163<89.6965 297 723 933>
VStem: 410 168<-7 372 537 693.298>
LayerCount: 2
Fore
SplineSet
410 -7 m 1
 410 147 l 2
 410 193 411 280 413 373 c 1
 369 373 325 374 279 374 c 0
 219 374 156 373 87 369 c 1
 87 529 l 1
 212 536 314 537 416 537 c 1
 417 582 417 623 417 655 c 1
 410 665 401 679 392 694 c 1
 306 695 208 701 83 709 c 1
 83 762 83 816 86 867 c 1
 165 862 235 859 297 857 c 1
 192 1045 62 1291 26 1370 c 1
 173 1448 l 1
 213 1369 393 1021 490 856 c 1
 502 856 515 856 527 856 c 1
 635 1023 822 1373 860 1462 c 1
 1006 1376 l 1
 957 1274 880 1118 770 935 c 0
 754 910 738 885 723 861 c 1
 786 863 852 865 933 865 c 1
 933 706 l 1
 810 706 720 701 620 697 c 1
 604 671 591 652 585 643 c 1
 585 608 585 573 584 536 c 1
 704 534 809 529 934 529 c 1
 932 368 l 1
 808 368 699 371 581 372 c 1
 579 266 578 170 578 136 c 2
 578 -7 l 1
 410 -7 l 1
EndSplineSet
Validated: 1
EndChar

StartChar: Eth
Encoding: 208 208 152
Width: 1060
VWidth: 0
Flags: HW
HStem: -11 165<232 673.178> 773 148<10 70 237 610> 1256 166<239.885 547.506>
VStem: 71 166<157 773 921 1252.71> 842 167<342.739 893.533>
LayerCount: 2
Fore
SplineSet
70 773 m 1
 10 773 l 1
 10 921 l 1
 71 921 l 1
 71 935 71 948 71 962 c 2
 71 1043 l 2
 71 1180 66 1313 57 1407 c 1
 142 1416 189 1422 293 1422 c 0
 578 1422 742 1334 871 1139 c 1
 959 1004 1009 812 1009 619 c 0
 1009 545 1000 472 986 401 c 0
 936 144 767 16 578 -3 c 0
 520 -8 467 -11 409 -11 c 0
 321 -11 181 -3 61 -3 c 1
 61 33 61 31 64 136 c 1
 64 184 68 479 70 773 c 1
315 1256 m 2
 284 1256 l 2
 277 1256 271 1256 265 1256 c 0
 256 1256 248 1256 237 1254 c 1
 238 1227 238 1193 238 1160 c 0
 238 1092 237 1018 237 944 c 0
 237 936 237 929 237 921 c 1
 610 921 l 1
 611 773 l 1
 236 773 l 1
 235 501 233 244 232 157 c 1
 324 154 372 154 435 154 c 0
 612 154 745 182 813 377 c 0
 830 426 842 522 842 581 c 0
 842 754 803 936 735 1040 c 0
 642 1180 547 1256 315 1256 c 2
EndSplineSet
Validated: 1
EndChar

StartChar: currency
Encoding: 164 164 153
Width: 1060
VWidth: 6
Flags: HW
HStem: 98 157<430.92 636.633>
VStem: 225 165<301.574 671.832> 697 163<322.138 685.398>
LayerCount: 2
Fore
SplineSet
225 461 m 2
 225 468 l 2
 225 556 245 636 270 697 c 1
 129 849 l 1
 248 955 l 1
 365 828 l 1
 413 878 466 898 536 901 c 1
 553 901 l 2
 636 901 688 880 739 833 c 1
 851 946 l 1
 964 847 l 1
 828 697 l 1
 851 640 860 582 860 520 c 1
 858 417 844 352 809 284 c 1
 954 129 l 1
 836 23 l 1
 711 159 l 1
 661 120 600 98 534 98 c 0
 450 99 397 127 349 167 c 1
 224 43 l 1
 117 142 l 1
 250 299 l 1
 229 354 225 403 225 461 c 2
697 522 m 0
 697 650 642 735 557 743 c 1
 542 741 l 1
 437 730 390 626 390 462 c 0
 390 325 431 255 539 255 c 0
 647 255 697 368 697 522 c 0
EndSplineSet
Validated: 1
EndChar

StartChar: sterling
Encoding: 163 163 154
Width: 1060
VWidth: 0
Flags: HW
HStem: -13 152<222.292 315.715 592.024 847.099> 687 152<182 311 500 871> 1198 153<475.389 675.633>
VStem: 70 151<141.174 267.198> 287 158<841.301 1170.57> 379 157<335.307 679.073> 708 147<1113.81 1164.47> 849 156<142.143 229>
LayerCount: 2
Fore
SplineSet
871 691 m 1xfa
 797 682 714 682 616 682 c 2
 500 682 l 1
 518 589 535 495 536 385 c 0
 536 333 529 278 517 230 c 1
 611 169 664 137 753 137 c 0
 846 137 849 154 849 214 c 0
 849 219 849 224 849 229 c 1
 1005 231 l 1
 1005 190 l 1
 1001 54 920 -15 779 -16 c 0
 661 -16 561 25 452 95 c 1
 404 29 319 -13 232 -13 c 0
 132 -13 70 80 70 192 c 0
 70 293 101 370 173 412 c 0
 190 421 209 424 224 424 c 0
 227 424 230 424 233 424 c 0
 292 424 344 369 377 334 c 1
 379 354 379 375 379 397 c 0xf5
 378 503 360 589 341 685 c 1
 289 687 244 687 199 687 c 2
 182 687 l 1
 182 839 l 1
 311 839 l 1
 298 910 287 977 287 1043 c 0
 287 1248 399 1351 588 1351 c 0
 735 1351 824 1245 855 1118 c 1
 708 1075 l 1
 692 1137 669 1196 588 1198 c 0
 586 1198 584 1198 582 1198 c 0
 465 1198 445 1116 445 1051 c 0
 445 997 460 900 471 834 c 1
 618 837 l 2
 637 837 657 837 675 837 c 0
 749 837 815 838 871 844 c 1
 871 691 l 1xfa
318 186 m 1
 285 216 267 254 244 269 c 1
 234 262 221 231 221 201 c 0
 221 199 221 197 221 195 c 0
 223 153 236 139 252 139 c 0
 274 139 302 166 318 186 c 1
EndSplineSet
Validated: 1
EndChar

StartChar: cent
Encoding: 162 162 155
Width: 1060
VWidth: 6
Flags: HW
HStem: -9 293<435.51 590.879> 720 313<433 592.347>
VStem: 152 162<353.688 651.195> 432 162<-9 142.125 858.461 1033>
LayerCount: 2
Fore
SplineSet
516 284 m 0
 517 284 517 284 518 284 c 0
 610 284 685 318 711 354 c 1
 722 370 l 1
 859 287 l 1
 847 271 l 1
 795 194 700 147 592 135 c 1
 592 -9 l 1
 432 -9 l 1
 432 139 l 1
 386 148 336 164 291 194 c 0
 187 264 152 356 152 490 c 2
 152 501 l 2
 152 624 190 705 231 753 c 0
 287 817 359 851 432 865 c 1
 432 1033 l 1
 594 1033 l 1
 594 867 l 1
 711 850 778 786 811 695 c 1
 653 638 l 1
 649 661 l 1
 638 714 602 720 523 720 c 0
 462 720 398 702 361 657 c 0
 342 635 314 596 314 514 c 0
 314 384 374 283 499 283 c 0
 505 283 510 284 516 284 c 0
EndSplineSet
Validated: 1
EndChar

StartChar: percent
Encoding: 37 37 156
Width: 1060
VWidth: 0
Flags: HW
HStem: -3 135<684.373 837.008> 358 153<720.087 856.782> 730 155<214.471 360.848> 1094 153<234.101 392.437> 1354 20G<692.5 804.97>
VStem: 65 135<899.761 1058.49> 399 147<922.223 1082.51> 527 150<139.341 319.221> 875 136<169.63 343.02>
LayerCount: 2
Fore
SplineSet
178 24 m 1xfc80
 306 301 626 1022 759 1374 c 1
 913 1307 l 1
 775 955 451 234 331 -48 c 1
 178 24 l 1xfc80
294 730 m 0
 166 730 65 844 65 980 c 0
 65 1121 179 1244 312 1247 c 0
 314 1247 316 1247 318 1247 c 0
 448 1247 546 1148 546 1019 c 0
 546 1017 546 1015 546 1013 c 0xfe80
 543 873 440 730 294 730 c 0
294 885 m 0
 337 885 399 958 399 1008 c 0
 399 1068 372 1091 311 1094 c 0
 310 1094 309 1094 308 1094 c 0
 265 1094 200 1025 200 981 c 0
 200 928 240 885 294 885 c 0
527 226 m 2xfd80
 527 241 l 1
 536 370 636 505 777 511 c 1
 785 511 l 1
 908 506 1011 399 1011 266 c 2
 1011 254 l 2
 1011 136 905 -3 760 -3 c 0
 629 -3 527 93 527 226 c 2xfd80
677 225 m 2
 677 215 l 1
 681 156 700 135 757 132 c 1
 761 132 l 2
 811 132 875 199 875 247 c 2
 875 254 l 2
 875 310 837 356 786 358 c 1
 784 358 l 2
 738 358 677 277 677 225 c 2
EndSplineSet
Validated: 1
EndChar

StartChar: guillemotleft
Encoding: 171 171 157
Width: 1060
VWidth: 6
Flags: HW
VStem: 397 152<103.907 161.156> 411 156<871.117 942.4>
LayerCount: 2
Fore
SplineSet
81 574 m 1x80
 225 704 388 836 411 976 c 1
 567 939 l 1x40
 527 750 391 627 266 518 c 1
 394 400 504 281 549 109 c 1
 397 55 l 1
 359 204 239 318 81 459 c 1
 81 574 l 1x80
431 576 m 1
 576 676 697 845 737 978 c 1
 890 921 l 1
 843 779 752 633 622 516 c 1
 744 410 823 287 868 134 c 1
 874 116 l 1
 719 63 l 1
 671 226 587 343 431 450 c 1
 431 576 l 1
EndSplineSet
Validated: 1
EndChar

StartChar: section
Encoding: 167 167 159
Width: 1060
VWidth: 4
Flags: HW
HStem: -322 155<408.184 652.221> 1213 155<385.43 624.296>
VStem: 130 158<567.294 710.649> 173 156<923.488 1159.18> 208 155<-129.895 -31> 666 151<1081 1178.04> 705 161<-114.133 113.863> 745 163<327.508 479.299>
LayerCount: 2
Fore
SplineSet
173 1040 m 0xd0
 173 1258 351 1368 504 1368 c 0
 676 1368 813 1271 817 1081 c 1
 666 1080 l 1xd4
 663 1142 650 1155 618 1183 c 1
 592 1203 556 1213 504 1213 c 1
 415 1211 329 1152 329 1055 c 0
 329 933 375 915 502 827 c 0
 594 763 716 698 816 594 c 1
 867 544 908 477 908 405 c 0xd1
 908 300 873 246 809 198 c 1
 844 148 864 83 866 6 c 0
 866 3 866 0 866 -3 c 0
 866 -223 681 -322 526 -322 c 0
 351 -322 213 -225 208 -31 c 1
 363 -30 l 1xca
 372 -90 380 -111 412 -135 c 0
 437 -154 475 -167 525 -167 c 1
 617 -164 705 -112 705 -9 c 0
 705 9 703 30 697 55 c 0
 685 101 624 159 530 220 c 1
 434 281 314 348 213 450 c 1
 164 503 130 568 130 641 c 0xe2
 130 745 173 794 236 841 c 1
 200 893 173 971 173 1040 c 0xd0
689 319 m 1
 737 339 745 358 745 392 c 2
 745 409 l 1
 742 430 733 452 708 475 c 0
 607 567 470 640 354 722 c 1
 293 697 288 679 288 637 c 0xe1
 288 617 304 591 329 569 c 0
 430 476 573 399 689 319 c 1
EndSplineSet
Validated: 1
EndChar

StartChar: braceleft
Encoding: 123 123 160
Width: 1060
VWidth: 66
Flags: HW
HStem: -262 166<709.669 899> 1326 158<708.838 899>
VStem: 469 190<-46.6578 197.183 1024.96 1281.02> 540 186<146.154 428.327 783.92 1076.27>
LayerCount: 2
Fore
SplineSet
899 1484 m 1xe0
 904 1326 l 1
 777 1320 728 1313 682 1259 c 4
 663 1237 656 1220 656 1198 c 4
 656 1189 657 1180 659 1170 c 4xe0
 671 1088 728 994 728 892 c 4
 728 877 726 863 724 848 c 4
 702 718 612 631 518 609 c 1
 615 580 710 478 724 358 c 4
 725 346 726 334 726 323 c 4xd0
 726 221 675 145 662 61 c 4
 660 51 659 42 659 33 c 4
 659 11 667 -6 686 -28 c 4
 732 -82 778 -90 905 -96 c 1
 899 -262 l 1
 766 -256 617 -244 524 -136 c 0
 483 -88 469 -39 469 11 c 0xe0
 469 82 498 153 521 219 c 0
 534 256 540 288 540 316 c 0xd0
 540 455 397 496 294 528 c 1
 294 690 l 1
 415 724 543 765 543 899 c 0
 543 929 536 963 522 1003 c 0
 498 1068 469 1140 469 1211 c 0
 469 1261 484 1311 524 1358 c 0
 617 1466 766 1478 899 1484 c 1xe0
EndSplineSet
Validated: 1
EndChar

StartChar: bar
Encoding: 124 124 161
Width: 1060
VWidth: 66
Flags: HW
VStem: 401 190<-194.108 1492>
LayerCount: 2
Fore
SplineSet
400 152 m 0
 400 517 391 1111 391 1399 c 2
 391 1492 l 1
 579 1492 l 5
 579 1347 l 6
 579 1070 591 558 591 224 c 6
 591 74 l 6
 591 -41 590 -97 585 -198 c 5
 396 -197 l 1
 400 -135 401 -92 401 -37 c 0
 401 10 400 66 400 152 c 0
EndSplineSet
Validated: 1
EndChar

StartChar: braceright
Encoding: 125 125 162
Width: 1060
VWidth: 66
Flags: HW
HStem: -262 166<160 350.162> 1326 158<159 355.345>
VStem: 334 184<148.269 428.633 784.259 1074.51> 400 190<-47.3217 195.685 1027 1282.2>
LayerCount: 2
Fore
SplineSet
159 1484 m 1xe0
 292 1478 441 1466 534 1358 c 0
 575 1310 589 1260 589 1210 c 0
 589 1139 560 1068 537 1003 c 0
 522 963 516 928 516 898 c 0
 516 765 644 724 765 690 c 1
 765 528 l 1
 662 496 518 455 518 315 c 0xe0
 518 288 524 256 537 219 c 0
 561 153 590 82 590 11 c 0
 590 -39 575 -89 535 -136 c 0
 442 -244 293 -256 160 -262 c 1
 154 -96 l 1
 280 -90 329 -81 375 -27 c 4
 394 -5 400 13 400 35 c 4xd0
 400 43 399 52 398 62 c 4
 385 146 334 222 334 324 c 4
 334 335 335 347 336 359 c 4
 350 479 444 580 541 609 c 1
 447 631 359 719 337 849 c 4
 335 864 333 878 333 893 c 4
 333 995 389 1089 401 1171 c 4
 402 1181 403 1190 403 1198 c 4
 403 1220 397 1238 378 1260 c 4
 332 1314 281 1320 155 1326 c 1
 159 1484 l 1xe0
EndSplineSet
Validated: 1
EndChar

StartChar: at
Encoding: 64 64 163
Width: 1060
VWidth: 6
Flags: HW
HStem: -362 150<405.063 682.196> 6 158<435.926 568.401 760.694 859.48> 510 153<449.285 585.385> 872 153<432.707 569.523> 1238 148<394.064 646.41>
VStem: 27 160<129.741 915.742> 260 154<182.576 481.286> 586 144<188.091 508.365 651 863.384> 825 147<173.32 987.456>
LayerCount: 2
Fore
SplineSet
414 324 m 0
 414 216 448 164 510 164 c 0
 580 164 575 248 586 276 c 1
 586 489 l 1
 567 508 539 510 510 510 c 0
 454 510 414 425 414 324 c 0
658 105 m 1
 641 69 609 6 520 6 c 0
 458 6 421 19 367 57 c 0
 286 114 260 211 260 309 c 0
 260 476 313 663 500 663 c 0
 540 663 571 662 595 651 c 1
 595 748 593 872 508 872 c 2
 500 872 l 2
 454 872 430 844 394 750 c 1
 264 816 l 1
 313 957 381 1025 508 1025 c 0
 716 1025 730 790 730 621 c 2
 730 267 l 1
 758 206 782 171 799 171 c 0
 815 171 825 206 825 288 c 2
 825 288 825 582 825 705 c 0
 825 936 749 1238 509 1238 c 0
 361 1238 187 1027 187 550 c 0
 187 97 298 -212 553 -212 c 0
 596 -212 631 -199 663 -178 c 1
 735 -313 l 1
 689 -342 630 -362 553 -362 c 0
 166 -362 27 0 27 550 c 0
 27 1095 251 1386 510 1386 c 0
 897 1386 972 943 972 721 c 0
 972 564 972 427 972 270 c 0
 972 76 899 3 819 3 c 0
 801 3 783 7 765 14 c 0
 718 32 668 84 658 105 c 1
EndSplineSet
Validated: 1
EndChar

StartChar: brokenbar
Encoding: 166 166 164
Width: 1060
VWidth: 66
Flags: HW
VStem: 404 163<-194 -80.127 371.516 528 775 1492>
LayerCount: 2
Fore
SplineSet
398 775 m 1
 394 1042 391 1239 391 1399 c 2
 391 1492 l 1
 551 1492 l 1
 551 1366 l 2
 551 1217 556 1025 560 775 c 1
 398 775 l 1
563 528 m 1
 565 417 567 243 567 155 c 0
 567 -46 567 -65 560 -195 c 1
 399 -194 l 1
 403 -120 404 -90 404 -29 c 2
 404 118 l 2
 404 216 402 404 400 528 c 1
 563 528 l 1
EndSplineSet
Validated: 1
EndChar

StartChar: copyright
Encoding: 169 169 165
Width: 1060
VWidth: 6
Flags: HW
HStem: -336 155<397.115 620.91> -17 152<457.62 583.105> 859 174<460.844 570.197> 1202 153<401.498 600.866>
VStem: 44 136<166.256 850.907> 247 148<215.464 776.084> 615 127<164.445 238.402> 833 143<163.794 831.031>
LayerCount: 2
Fore
SplineSet
506 1355 m 0
 810 1355 976 962 976 506 c 0
 976 51 796 -336 506 -336 c 0
 207 -336 44 58 44 513 c 0
 44 969 218 1355 506 1355 c 0
506 1202 m 0
 340 1202 180 905 180 512 c 0
 180 120 326 -181 506 -181 c 0
 691 -181 833 118 833 510 c 2
 833 527 l 2
 833 912 643 1202 506 1202 c 0
491 1033 m 0
 492 1033 493 1033 494 1033 c 0
 501 1033 507 1035 519 1035 c 0
 595 1032 684 962 734 810 c 1
 593 753 l 1
 575 810 567 859 521 859 c 0
 445 859 395 689 395 510 c 0
 395 387 427 135 510 135 c 0
 572 135 595 182 615 273 c 1
 742 234 l 1
 702 93 643 -17 519 -17 c 0
 285 -17 247 328 247 487 c 0
 247 688 290 812 319 874 c 0
 355 952 418 1019 491 1033 c 0
EndSplineSet
Validated: 1
EndChar

StartChar: registered
Encoding: 174 174 166
Width: 1060
VWidth: 6
Flags: HW
HStem: -336 155<397.115 620.91> 891 153<466 559.506> 1202 153<401.498 600.866>
VStem: 44 136<166.256 850.907> 317 149<12 381 528.507 891> 593 135<536.373 855.717> 833 143<163.794 831.031>
LayerCount: 2
Fore
SplineSet
506 1355 m 0
 810 1355 976 962 976 506 c 0
 976 51 796 -336 506 -336 c 0
 207 -336 44 58 44 513 c 0
 44 969 218 1355 506 1355 c 0
506 1202 m 0
 340 1202 180 905 180 512 c 0
 180 120 326 -181 506 -181 c 0
 691 -181 833 118 833 510 c 2
 833 527 l 2
 833 912 643 1202 506 1202 c 0
628 0 m 1
 586 82 524 316 498 378 c 1
 478 381 481 377 466 381 c 1
 466 254 467 203 467 148 c 0
 467 111 467 73 465 10 c 1
 317 12 l 1
 317 321 315 1007 315 1007 c 1
 357 1042 411 1039 463 1043 c 0
 471 1044 479 1044 487 1044 c 0
 658 1044 722 866 728 684 c 1
 728 570 708 433 642 392 c 1
 683 298 740 112 768 92 c 1
 628 0 l 1
591 722 m 0
 584 851 538 891 475 891 c 0
 472 891 469 891 466 891 c 1
 466 538 l 1
 488 531 507 528 522 528 c 0
 580 528 593 576 593 657 c 0
 593 677 592 698 591 722 c 0
EndSplineSet
Validated: 1
EndChar

StartChar: germandbls
Encoding: 223 223 167
Width: 1060
VWidth: 0
Flags: HW
HStem: -2 167<492.941 761.441> 729 167<299 553.658> 1282 166<298.995 559.842>
VStem: 75 161<98.5092 1212.43> 296 164<203.594 350> 622 161<955.99 1218.43> 820 162<225.884 603.25>
LayerCount: 2
Fore
SplineSet
75 1093 m 0
 75 1263 191 1448 400 1448 c 0
 613 1448 783 1344 783 1102 c 0
 783 991 753 907 694 849 c 1
 880 796 982 652 982 415 c 0
 982 186 877 -2 646 -2 c 0
 450 -2 296 103 296 324 c 0
 296 333 297 341 297 350 c 1
 460 350 l 1
 462 209 490 165 646 165 c 0
 788 165 820 285 820 431 c 0
 820 715 601 729 299 729 c 1
 299 896 l 1
 472 896 622 896 622 1095 c 0
 622 1218 544 1282 400 1282 c 1
 299 1281 236 1180 236 1082 c 0
 236 912 241 694 241 490 c 0
 241 355 237 227 229 121 c 0
 222 33 169 -9 110 -40 c 1
 29 98 l 1
 50 109 68 111 71 140 c 0
 81 249 84 367 84 488 c 0
 84 692 75 903 75 1093 c 0
EndSplineSet
Validated: 1
EndChar

StartChar: ampersand
Encoding: 38 38 168
Width: 1060
VWidth: 0
Flags: HW
HStem: -22 155<307.294 584.075> 1194 153<346.737 537.919>
VStem: 57 159<228.763 529.103> 142 158<921.771 1150.11> 563 157<972.767 1168.98> 770 149<401.282 647>
LayerCount: 2
Fore
SplineSet
995 64 m 1xdc
 873 -32 l 1
 858 -12 812 47 760 116 c 1
 669 18 559 -22 429 -22 c 0
 221 -22 57 129 57 367 c 0xec
 57 546 149 681 263 771 c 1
 215 829 142 921 142 1037 c 0
 142 1206 275 1347 436 1347 c 0
 581 1347 720 1257 720 1085 c 0
 720 923 601 827 484 741 c 1
 571 628 657 517 745 398 c 1
 767 468 770 539 770 648 c 1
 919 647 l 1
 919 480 898 336 847 255 c 1
 887 204 972 95 995 64 c 1xdc
563 1069 m 0
 563 1157 510 1194 435 1194 c 0
 367 1194 300 1121 300 1044 c 0xdc
 300 972 348 912 393 859 c 1
 467 911 503 950 526 981 c 0
 552 1016 563 1041 563 1069 c 0
665 245 m 1
 558 387 461 521 361 648 c 1
 283 579 216 491 216 376 c 0xec
 216 227 319 133 434 133 c 0
 534 133 613 185 665 245 c 1
EndSplineSet
Validated: 1
EndChar

StartChar: uni00B5
Encoding: 181 181 169
Width: 1060
VWidth: 6
Flags: HW
HStem: -10 21G<887.5 930.017> -10 21G<887.5 930.017> 2 154<330.683 595.04> 1001 20G<142.481 272>
VStem: 119 157<-400 22 181.338 701.424> 749 158<276.783 1001>
LayerCount: 2
Fore
SplineSet
916 -10 m 1x9c
 859 31 805 72 783 158 c 1
 699 72 602 5 452 2 c 1
 443 2 l 2
 395 2 333 2 279 22 c 1
 276 -400 l 1
 119 -400 l 1
 124 214 l 1
 121 482 128 911 101 994 c 1
 261 1021 l 1
 283 929 278 616 280 250 c 1
 286 216 308 190 330 174 c 0
 344 164 395 156 436 156 c 1x3c
 503 159 544 167 595 198 c 0
 642 226 711 256 749 344 c 1
 750 1020 l 5
 908 1020 l 5
 907 239 l 1
 909 187 958 139 998 107 c 1
 916 -10 l 1x9c
EndSplineSet
Validated: 1
EndChar

StartChar: paragraph
Encoding: 182 182 170
Width: 1060
VWidth: 0
Flags: HW
HStem: -10 21G<767 919> -10 21G<767 919> 1169 159<631 765>
VStem: 46 585<679.203 1130.78> 479 155<22.0462 476.365> 765 154<-9 1169>
LayerCount: 2
Fore
SplineSet
765 1041 m 2xb4
 765 1169 l 1
 724 1170 684 1173 631 1174 c 1xb4
 632 844 631 512 634 184 c 1
 634 45 592 -30 592 -30 c 1
 438 22 l 1
 438 22 479 85 479 229 c 1xac
 477 473 l 1
 309 485 192 526 113 641 c 0
 53 730 46 831 46 924 c 0
 46 1016 65 1108 119 1174 c 0
 234 1315 405 1328 630 1328 c 0
 763 1328 801 1320 919 1320 c 1
 919 -9 l 1
 767 -10 l 1
 767 325 765 597 765 1041 c 2xb4
EndSplineSet
Validated: 1
EndChar

StartChar: dieresis
Encoding: 168 168 173
Width: 1060
VWidth: -28
Flags: HW
HStem: 1087 225<149 384 555 790>
VStem: 149 235<1090 1312> 555 235<1087 1309>
LayerCount: 2
Fore
SplineSet
555 1312 m 1
 790 1309 l 1
 790 1084 l 1
 555 1087 l 1
 555 1312 l 1
149 1315 m 1
 384 1312 l 1
 384 1087 l 1
 149 1090 l 1
 149 1315 l 1
EndSplineSet
Validated: 1
EndChar

StartChar: acute
Encoding: 180 180 174
Width: 1060
VWidth: -43
Flags: HW
HStem: 1201 416
VStem: 231 543
LayerCount: 2
Fore
SplineSet
231 1349 m 1
 374 1397 549 1509 664 1617 c 1
 774 1470 l 1
 663 1358 441 1248 298 1201 c 1
 231 1349 l 1
EndSplineSet
Validated: 1
EndChar

StartChar: degree
Encoding: 176 176 175
Width: 1060
VWidth: -26
Flags: HW
HStem: 922 125<386.828 543.277> 1188 124<383.557 544.087>
VStem: 249 129<1057.22 1177.63> 550 132<1056.77 1178.04>
LayerCount: 2
Fore
SplineSet
249 1117 m 0
 249 1228 351 1312 466 1312 c 0
 581 1312 682 1228 682 1117 c 0
 682 1006 581 922 466 922 c 0
 351 922 249 1006 249 1117 c 0
378 1119 m 0
 378 1084 414 1047 465 1047 c 0
 516 1047 550 1084 550 1119 c 0
 550 1154 517 1188 465 1188 c 0
 413 1188 378 1154 378 1119 c 0
EndSplineSet
Validated: 1
EndChar

StartChar: macron
Encoding: 175 175 176
Width: 1060
VWidth: -34
Flags: HW
HStem: 1182 154<238 692>
VStem: 238 454<1185 1335>
LayerCount: 2
Fore
SplineSet
238 1340 m 1
 274 1336 317 1335 363 1335 c 0
 409 1335 460 1336 511 1336 c 0
 571 1336 632 1336 692 1336 c 1
 692 1184 l 1
 675 1184 l 1
 617 1182 547 1182 473 1182 c 0
 446 1182 419 1182 392 1182 c 0
 339 1182 287 1182 238 1185 c 1
 238 1340 l 1
EndSplineSet
Validated: 1
EndChar

StartChar: dotlessi
Encoding: 305 305 177
Width: 1060
VWidth: 0
Flags: HW
HStem: -18 142<557.434 920.467> 857 156<134.467 388>
VStem: 388 160<133.613 857>
LayerCount: 2
Fore
SplineSet
427 1013 m 2
 547 1013 l 1
 547 740 548 210 548 210 c 1
 553 128 593 124 685 124 c 0
 778 124 902 145 971 197 c 1
 1039 83 l 1
 953 12 810 -18 686 -18 c 0
 601 -18 525 -4 481 20 c 0
 396 67 388 147 388 206 c 2
 388 857 l 1
 339 857 225 851 130 829 c 1
 101 971 l 1
 213 997 323 1013 427 1013 c 2
EndSplineSet
Validated: 1
EndChar

StartChar: asterisk
Encoding: 42 42 191
Width: 1060
VWidth: 0
Flags: HW
VStem: 444 163<774 1199>
LayerCount: 2
Fore
SplineSet
444 774 m 1
 440 1199 l 1
 609 1200 l 1
 607 773 l 1
 933 919 l 1
 1007 781 l 1
 644 628 l 1
 916 307 l 1
 790 196 l 1
 532 563 l 1
 287 197 l 1
 155 302 l 1
 411 628 l 1
 58 770 l 1
 124 914 l 1
 444 774 l 1
EndSplineSet
Validated: 1
EndChar

StartChar: ordfeminine
Encoding: 170 170 192
Width: 1060
VWidth: 6
Flags: HW
HStem: 467 116<225 678> 668 96<298.323 489.323> 931 95<317.318 538.633> 1022 21G<243.5 296.5> 1125 95<315.799 521.895>
VStem: 202 90<771.273 902.562> 542 91<814.732 921.265>
LayerCount: 2
Fore
SplineSet
678 583 m 1xce
 679 469 l 1
 662 469 l 1
 604 467 534 467 460 467 c 0
 433 467 406 467 379 467 c 0
 326 467 274 467 225 470 c 1
 224 585 l 1
 243 585 l 1
 308 583 405 583 497 583 c 0
 557 583 618 583 678 583 c 1xce
631 658 m 1
 604 680 570 698 554 739 c 1
 513 703 454 668 378 668 c 0
 284 668 202 744 202 839 c 0
 202 882 218 925 253 959 c 0
 309 1012 368 1026 431 1026 c 0xee
 471 1026 511 1019 540 1010 c 1
 531 1099 500 1125 424 1125 c 0
 353 1125 317 1098 276 1022 c 1xde
 198 1070 l 1
 208 1088 l 1
 262 1179 333 1218 422 1220 c 1
 542 1220 622 1143 630 1018 c 0
 633 986 634 938 634 918 c 0
 634 877 633 863 633 841 c 0
 633 821 635 780 641 770 c 0
 643 768 677 743 690 735 c 1
 631 658 l 1
374 764 m 0
 445 764 523 830 542 853 c 1
 542 905 l 1
 515 920 476 928 430 931 c 0
 428 931 426 931 424 931 c 0
 362 931 292 887 292 837 c 0
 292 796 321 764 374 764 c 0
EndSplineSet
Validated: 1
EndChar

StartChar: logicalnot
Encoding: 172 172 193
Width: 1060
VWidth: 6
Flags: HW
HStem: 448 152<163 764>
VStem: 764 154<174 444>
LayerCount: 2
Fore
SplineSet
157 592 m 1
 293 599 404 600 506 600 c 0
 547 600 586 600 625 600 c 0
 707 600 792 599 899 598 c 1
 918 598 l 1
 918 457 918 315 918 174 c 1
 764 174 l 1
 764 444 l 1
 629 447 629 448 504 448 c 0
 437 448 315 447 163 439 c 1
 163 523 l 1
 157 592 l 1
EndSplineSet
Validated: 1
EndChar

StartChar: uni00AD
Encoding: 173 173 194
Width: 1060
VWidth: 6
Flags: HW
HStem: 448 152<163 917>
LayerCount: 2
Fore
SplineSet
157 592 m 1
 293 599 404 600 506 600 c 0
 547 600 586 600 625 600 c 0
 707 600 792 599 899 598 c 1
 917 598 l 1
 917 445 l 1
 899 445 l 1
 764 448 629 448 504 448 c 0
 437 448 315 447 163 439 c 1
 163 523 l 1
 157 592 l 1
EndSplineSet
Validated: 1
EndChar

StartChar: cedilla
Encoding: 184 184 197
Width: 1060
VWidth: 12
Flags: HW
HStem: -358 125<445.445 650.66> -136 188<490 565.783> -119 175<491.294 634.524>
VStem: 490 145<-25.4613 52> 654 136<-226.217 -127.936>
LayerCount: 2
Fore
SplineSet
636 56 m 1xb8
 635 48 635 -16 635 -19 c 1
 732 -24 790 -86 790 -190 c 0
 790 -291 690 -358 606 -358 c 0
 540 -358 468 -333 412 -297 c 1
 450 -191 l 1
 483 -209 523 -233 574 -233 c 0
 610 -233 651 -213 654 -175 c 1
 654 -173 l 2
 654 -144 616 -119 568 -119 c 0xb8
 520 -119 518 -126 490 -136 c 1
 490 52 l 1xd8
 636 56 l 1xb8
EndSplineSet
Validated: 1
EndChar

StartChar: ordmasculine
Encoding: 186 186 199
Width: 1060
VWidth: 6
Flags: HW
HStem: 467 116<225 678> 671 117<333.203 561.109> 1101 117<345.708 566.964>
VStem: 175 126<815.284 1055.19> 605 125<831.251 1063.17>
LayerCount: 2
Fore
SplineSet
678 583 m 1
 679 469 l 1
 662 469 l 1
 604 467 534 467 460 467 c 0
 433 467 406 467 379 467 c 0
 326 467 274 467 225 470 c 1
 224 585 l 1
 243 585 l 1
 308 583 405 583 497 583 c 0
 557 583 618 583 678 583 c 1
175 918 m 0
 175 1082 275 1218 449 1218 c 0
 572 1218 635 1173 684 1103 c 0
 713 1061 730 1011 730 958 c 0
 730 937 726 909 721 889 c 0
 694 772 621 672 451 671 c 1
 448 671 l 2
 277 671 175 766 175 918 c 0
452 788 m 0
 548 788 605 857 605 954 c 0
 605 1028 558 1101 460 1101 c 2
 458 1101 l 2
 352 1101 301 1027 301 921 c 0
 301 838 346 788 449 788 c 0
 450 788 451 788 452 788 c 0
EndSplineSet
Validated: 1
EndChar

StartChar: onequarter
Encoding: 188 188 200
Width: 1060
VWidth: 0
Flags: HW
HStem: -3 18G<236.851 336 773 857> 221 85<601 773 857 926> 1372 2G<315 394.391 712 807.818>
VStem: 320 86<672 1234> 773 84<-3 221 306 533 620.037 703>
LayerCount: 2
Fore
SplineSet
184 41 m 1
 190 54 217 111 234 153 c 1
 331 378 658 1106 766 1392 c 1
 858 1348 l 1
 720 996 396 276 276 -6 c 1
 184 41 l 1
488 291 m 1
 506 316 757 615 769 703 c 1
 857 703 l 1
 857 306 l 1
 926 306 l 1
 926 223 l 1
 857 223 l 1
 857 -3 l 1
 773 -3 l 1
 773 221 l 1
 521 221 l 1
 488 291 l 1
773 306 m 1
 773 533 l 1
 734 463 651 358 601 306 c 1
 773 306 l 1
317 1374 m 1
 406 1351 l 1
 406 672 l 1
 320 672 l 1
 319 1234 l 1
 283 1189 210 1135 141 1096 c 1
 97 1169 l 1
 259 1250 313 1366 317 1374 c 1
EndSplineSet
Validated: 1
EndChar

StartChar: onehalf
Encoding: 189 189 201
Width: 1060
VWidth: 0
Flags: HW
HStem: -2 21G<201.851 301> 5 84<628 948> 633 85<646.72 828.149> 1376 7G<276 355.391 677 772.818>
VStem: 281 86<681 1243> 532 96<89 173.018> 538 86<470.373 608.734> 851 87<413.131 612.603>
LayerCount: 2
Fore
SplineSet
149 45 m 1xb9
 155 58 183 115 200 157 c 1
 297 382 623 1110 731 1396 c 1
 823 1352 l 1
 685 1000 361 280 241 -2 c 1
 149 45 l 1xb9
632 472 m 1
 550 453 l 1
 545 469 540 494 539 514 c 0
 539 519 538 524 538 528 c 0x7b
 538 649 628 718 736 718 c 0
 867 718 938 653 938 511 c 0
 938 442 895 380 851 334 c 1
 805 288 739 240 683 185 c 0
 644 147 629 109 628 89 c 1
 948 90 l 1
 948 5 l 1
 533 5 l 1
 533 21 532 39 532 57 c 0x7d
 532 71 532 86 535 101 c 0
 545 154 570 201 629 256 c 0
 687 310 742 345 785 387 c 0
 827 427 851 477 851 510 c 0
 851 573 820 633 741 633 c 0
 670 633 624 594 624 507 c 0x7b
 624 496 630 478 632 472 c 1
278 1383 m 1
 367 1360 l 1
 367 681 l 1
 281 681 l 1
 280 1243 l 1
 244 1198 171 1144 102 1105 c 1
 58 1178 l 1
 220 1259 274 1375 278 1383 c 1
EndSplineSet
Validated: 1
EndChar

StartChar: threequarters
Encoding: 190 190 202
Width: 1060
VWidth: 0
Flags: HW
HStem: 227 85<613 785 869 938> 655 84<168.08 373.455> 1028 86<199 340.753> 1298 85<178.607 352.786> 1384 20G<756 851.818>
VStem: 57 86<763.212 849> 363 85<1141.44 1283.78> 405 86<770.732 979.301> 785 84<3 227 312 539 626.037 709>
LayerCount: 2
Fore
SplineSet
228 53 m 1xfc80
 234 66 262 123 279 165 c 1
 376 390 702 1118 810 1404 c 1
 902 1360 l 1
 764 1008 440 288 320 6 c 1
 228 53 l 1xfc80
500 297 m 1
 518 322 769 621 781 709 c 1
 869 709 l 1
 869 312 l 1
 938 312 l 1
 938 229 l 1
 869 229 l 1
 869 3 l 1
 785 3 l 1
 785 227 l 1
 533 227 l 1
 500 297 l 1
785 312 m 1
 785 539 l 1
 746 469 663 364 613 312 c 1
 785 312 l 1
57 849 m 1
 143 849 l 1
 144 786 187 739 267 739 c 0
 353 739 405 790 405 870 c 0xfd80
 405 930 386 971 334 1000 c 0
 285 1028 242 1028 199 1028 c 1
 199 1114 l 1
 202 1114 205 1114 208 1114 c 0
 229 1114 255 1115 294 1128 c 0
 339 1144 363 1169 363 1224 c 0
 363 1266 317 1298 262 1298 c 0
 193 1298 162 1235 152 1215 c 1
 76 1257 l 1
 79 1265 126 1383 257 1383 c 0
 259 1383 261 1383 263 1383 c 0
 360 1383 448 1331 448 1227 c 0xfe80
 448 1158 421 1099 372 1077 c 1
 459 1035 491 963 491 871 c 0xfd80
 491 825 475 765 439 722 c 0
 403 680 353 655 267 655 c 0
 137 655 57 738 57 849 c 1
EndSplineSet
Validated: 1
EndChar

StartChar: Aogonek
Encoding: 260 260 206
Width: 1060
VWidth: 32
Flags: HW
HStem: -388 111<831.429 1034.17> 355 178<354.946 702> 1395 20G<468.498 599.344>
VStem: 688 136<-264.728 -110.394>
LayerCount: 2
Fore
SplineSet
475 1415 m 1
 593 1415 l 1
 1038 12 l 1
 937 -48 824 -119 824 -203 c 2
 824 -205 l 2
 824 -248 870 -277 914 -277 c 0
 972 -277 1020 -263 1053 -245 c 1
 1087 -312 l 1
 1031 -348 963 -388 872 -388 c 0
 788 -388 688 -321 688 -220 c 0
 688 -92 777 -1 841 68 c 1
 762 355 l 1
 614 352 409 353 292 324 c 1
 185 -26 l 1
 15 0 l 1
 475 1415 l 1
702 534 m 1
 534 1070 l 1
 352 512 l 1
 415 526 468 529 555 533 c 1
 702 534 l 1
EndSplineSet
Validated: 1
EndChar

StartChar: aogonek
Encoding: 261 261 207
Width: 1060
VWidth: 32
Flags: HW
HStem: -335 111<789.429 992.17> -6 152<285.367 551.736> 504 153<334.522 669.622> 877 151<326.149 629.625>
VStem: 88 156<186.95 423.616> 646 136<-211.728 -61.5471> 706 157<285.558 463.324 597 791.012>
LayerCount: 2
Fore
SplineSet
863 318 m 2xfa
 863 283 863 190 876 173 c 0
 889 155 926 132 955 109 c 1
 872 -10 l 1
 850 -27 782 -102 782 -150 c 2
 782 -152 l 2
 782 -195 828 -224 872 -224 c 0
 930 -224 978 -210 1011 -192 c 1
 1045 -259 l 1
 989 -295 921 -335 830 -335 c 0
 746 -335 646 -268 646 -167 c 0xfc
 646 -48 744 49 744 135 c 0
 744 141 744 146 743 152 c 0
 743 153 742 155 742 156 c 1
 664 81 575 -6 393 -6 c 0
 222 -6 88 135 88 301 c 0
 88 377 118 466 177 527 c 0
 272 624 382 657 500 657 c 0
 585 657 651 630 705 597 c 1
 705 792 638 877 486 877 c 0
 348 877 293 828 213 685 c 1
 83 767 l 1
 179 949 306 1025 484 1028 c 1
 709 1028 859 878 859 657 c 1
 863 318 l 2xfa
244 311 m 0
 244 206 300 146 393 146 c 0
 573 146 680 304 706 345 c 1
 706 440 l 1xfa
 649 475 569 504 499 504 c 0
 363 504 244 429 244 311 c 0
EndSplineSet
Validated: 1
EndChar

StartChar: dcaron
Encoding: 271 271 208
Width: 1060
VWidth: 32
Flags: HW
HStem: -7 154<260.142 559.56> 858 155<301.251 575.98> 1391 20<637 801.5> 1395 20G<886.5 977.833>
VStem: 16 158<241.806 717.436> 653 157<241.719 785.775 949 1399.8> 830 152<1025.79 1147.75>
LayerCount: 2
Fore
SplineSet
1091 1367 m 1xde
 1053 1255 1027 1146 982 995 c 1
 830 1029 l 1
 848 1171 876 1312 897 1415 c 1
 1091 1367 l 1xde
EndSplineSet
Refer: 3 100 N 1 0 0 1 -78 0 2
Validated: 1
EndChar

StartChar: Dcroat
Encoding: 272 272 209
Width: 1060
VWidth: 0
Flags: HW
HStem: -10 154<240 667.626> 773 148<14 86 244 610> 1176 155<244 549.421>
VStem: 86 158<147 773 921 1173.17> 820 159<312.146 850.696>
LayerCount: 2
Fore
SplineSet
319 1176 m 2
 289 1176 l 2
 273 1176 261 1176 244 1173 c 1
 245 1147 245 1117 245 1086 c 0
 245 1034 244 978 244 921 c 1
 366 921 488 921 610 921 c 1
 611 773 l 1
 244 773 l 1
 243 501 241 233 240 147 c 1
 328 144 373 144 433 144 c 0
 602 144 728 170 793 353 c 0
 809 399 820 489 820 544 c 0
 820 706 784 876 719 973 c 0
 630 1104 540 1176 319 1176 c 2
86 921 m 1
 86 977 l 2
 86 1106 82 1229 73 1317 c 1
 154 1325 199 1331 298 1331 c 0
 569 1331 725 1249 848 1066 c 1
 932 939 979 761 979 580 c 0
 979 511 971 442 958 376 c 0
 910 135 749 14 569 -3 c 0
 514 -8 463 -10 408 -10 c 0
 324 -10 191 -3 77 -3 c 1
 77 31 77 30 80 128 c 1
 80 176 85 483 86 773 c 1
 14 773 l 1
 14 921 l 1
 86 921 l 1
EndSplineSet
Validated: 1
EndChar

StartChar: dcroat
Encoding: 273 273 210
Width: 1060
VWidth: -2
Flags: HW
HStem: -7 154<337.869 637.56> 858 155<373.119 653.98> 1118 152<410 726 888 980> 1391 20G<715 876.5>
VStem: 94 156<249.683 713.724> 731 156<241.719 785.775 949 1118 1270 1401.17>
LayerCount: 2
Fore
SplineSet
250 478 m 0
 250 274 305 147 475 147 c 0
 612 147 660 193 731 307 c 1
 731 744 l 1
 679 795 621 858 530 858 c 0
 367 858 250 761 250 478 c 0
887 267 m 1
 887 241 l 2
 887 158 895 72 905 7 c 1
 742 -12 l 1
 737 20 732 42 731 84 c 1
 668 28 587 -7 475 -7 c 0
 200 -7 94 191 94 459 c 0
 94 795 221 1013 544 1013 c 0
 644 1013 682 980 730 949 c 1
 730 1118 l 1
 410 1118 l 1
 410 1270 l 1
 726 1270 l 1
 723 1319 719 1364 715 1403 c 1
 874 1411 l 1
 879 1369 883 1321 885 1270 c 1
 980 1270 l 1
 980 1118 l 1
 888 1118 l 1
 887 267 l 1
EndSplineSet
Validated: 1
EndChar

StartChar: Eogonek
Encoding: 280 280 215
Width: 1060
VWidth: 32
Flags: HW
HStem: -397 111<760.429 963.172> -3 163<261 722> 726 164<264 724> 1247 167<264 924>
VStem: 98 166<160 726 890 1247> 617 136<-273.728 -115.159>
LayerCount: 2
Fore
SplineSet
98 1409 m 1
 157 1413 230 1414 312 1414 c 0
 345 1414 379 1414 415 1414 c 2
 531 1414 l 2
 687 1414 830 1410 908 1410 c 2
 924 1410 l 1
 924 1247 l 1
 264 1247 l 1
 264 890 l 1
 724 890 l 1
 724 726 l 1
 264 726 l 1
 264 693 l 2
 264 472 261 244 261 160 c 1
 812 162 l 2
 871 162 935 191 935 191 c 1
 981 29 l 1
 952 21 928 12 898 5 c 1
 840 -81 753 -132 753 -212 c 2
 753 -214 l 2
 753 -257 799 -286 843 -286 c 0
 901 -286 949 -272 982 -254 c 1
 1016 -321 l 1
 960 -357 892 -397 801 -397 c 0
 717 -397 617 -330 617 -229 c 0
 617 -113 666 -62 722 -3 c 1
 98 -3 l 1
 98 1409 l 1
EndSplineSet
Validated: 1
EndChar

StartChar: eogonek
Encoding: 281 281 216
Width: 1060
VWidth: 32
Flags: HW
HStem: -413 111<447.429 650.172> 460 150<450.379 774> 869 152<371.998 661.11>
VStem: 88 158<258.9 429.895 580 738.031> 304 136<-289.728 -130.285> 774 159<611 749.303>
LayerCount: 2
Fore
SplineSet
519 1021 m 0
 896 1021 933 641 933 503 c 0
 933 483 933 468 932 460 c 1
 647 456 411 439 246 427 c 1
 246 274 329 143 515 143 c 0
 672 143 760 230 795 286 c 1
 916 183 l 1
 904 163 812 22 588 -5 c 1
 530 -94 440 -147 440 -228 c 2
 440 -230 l 2
 440 -273 486 -302 530 -302 c 0
 588 -302 636 -288 669 -270 c 1
 703 -337 l 1
 647 -373 579 -413 488 -413 c 0
 404 -413 304 -346 304 -245 c 0
 304 -118 361 -70 424 -3 c 1
 197 36 88 236 88 516 c 0
 88 802 236 1021 519 1021 c 0
246 580 m 1
 354 591 596 606 739 610 c 2
 774 611 l 1
 768 767 656 869 520 869 c 0
 350 869 247 734 246 580 c 1
EndSplineSet
Validated: 1
EndChar

StartChar: Iogonek
Encoding: 302 302 235
Width: 1060
VWidth: 32
Flags: HW
HStem: -400 111<734.429 937.172> 5 160<132 434 602 707 841.262 882> 1247 168<136 434 602 887>
VStem: 434 168<165 1255> 591 136<-276.728 -115.977>
LayerCount: 2
Fore
SplineSet
130 1415 m 1xf0
 294 1419 399 1419 500 1419 c 0
 610 1419 716 1418 887 1416 c 1
 887 1250 l 1
 758 1250 703 1256 602 1256 c 1
 602 165 l 1xf0
 650 165 677 167 731 167 c 0
 778 167 827 165 882 162 c 1
 882 -1 l 1
 878 -1 874 0 870 0 c 1
 812 -85 727 -136 727 -215 c 2
 727 -217 l 2
 727 -260 773 -289 817 -289 c 0
 875 -289 923 -275 956 -257 c 1
 990 -324 l 1
 934 -360 866 -400 775 -400 c 0
 691 -400 591 -333 591 -232 c 0xe8
 591 -108 646 -60 707 5 c 1
 692 5 677 5 662 5 c 0
 613 5 561 4 499 4 c 0
 421 4 295 -3 132 -3 c 1
 132 159 l 1
 221 163 295 165 355 165 c 2
 434 165 l 1
 434 1255 l 1
 365 1254 247 1254 136 1247 c 1
 130 1415 l 1xf0
EndSplineSet
Validated: 1
EndChar

StartChar: iogonek
Encoding: 303 303 236
Width: 1060
VWidth: 32
Flags: HW
HStem: -388 111<821.429 1024.17> -18 142<597.434 758.477> 857 156<174.467 428> 1178 225<364 599>
VStem: 364 235<1178 1400> 428 160<133.613 857> 678 136<-264.728 -105.778>
LayerCount: 2
Fore
SplineSet
364 1403 m 1xfa
 599 1400 l 1
 599 1175 l 1
 364 1178 l 1
 364 1403 l 1xfa
467 1013 m 2
 587 1013 l 1
 587 740 588 210 588 210 c 1
 593 128 633 124 725 124 c 0
 818 124 942 145 1011 197 c 1
 1079 83 l 1
 1047 56 1006 36 962 20 c 1
 904 -69 814 -122 814 -203 c 2
 814 -205 l 2
 814 -248 860 -277 904 -277 c 0
 962 -277 1010 -263 1043 -245 c 1
 1077 -312 l 1
 1021 -348 953 -388 862 -388 c 0
 778 -388 678 -321 678 -220 c 0
 678 -119 714 -68 761 -17 c 1
 749 -18 738 -18 726 -18 c 0
 641 -18 565 -4 521 20 c 0
 436 67 428 147 428 206 c 2
 428 857 l 1xf6
 379 857 265 851 170 829 c 1
 141 971 l 1
 253 997 363 1013 467 1013 c 2
EndSplineSet
Validated: 1
EndChar

StartChar: Lcaron
Encoding: 317 317 247
Width: 1060
VWidth: 32
Flags: HW
HStem: -3 168<308 979.863> 1389 20G<798.5 889.833> 1395 20<139 308>
VStem: 139 169<165 1415> 742 152<1019.79 1141.75>
LayerCount: 2
Fore
SplineSet
1003 1361 m 1xd8
 965 1249 939 1140 894 989 c 1
 742 1023 l 1
 760 1165 788 1306 809 1409 c 1
 1003 1361 l 1xd8
EndSplineSet
Refer: 35 76 N 1 0 0 1 0 0 2
Validated: 1
EndChar

StartChar: lcaron
Encoding: 318 318 248
Width: 1060
VWidth: 32
Flags: HW
HStem: -16 142<538.434 901.467> 1020 21G<796.588 908.5> 1273 155<113.466 366> 1420 20G<791.5 882.833>
VStem: 369 160<135.613 1273> 734 152<1050.79 1172.75>
LayerCount: 2
Fore
SplineSet
996 1392 m 1xdc
 958 1280 931 1171 886 1020 c 1
 734 1054 l 1
 752 1196 781 1337 802 1440 c 1
 996 1392 l 1xdc
EndSplineSet
Refer: 12 108 N 1 0 0 1 0 0 2
Validated: 1
EndChar

StartChar: Eng
Encoding: 330 330 257
Width: 1060
VWidth: 0
Flags: HW
HStem: -391 169<403 640.051> -3 21G<70 237> 1246 167<400.406 677.534> 1414 20G<139.419 202>
VStem: 70 167<-3 1078.07> 785 164<-93.0946 1122.33>
LayerCount: 2
Fore
SplineSet
558 1413 m 0
 862 1413 944 1200 944 937 c 0
 944 685 949 436 949 180 c 2
 949 143 l 2
 949 -136 896 -391 438 -391 c 2
 403 -391 l 1
 403 -222 l 1
 766 -215 785 -63 785 116 c 2
 785 929 l 2
 785 1130 685 1246 560 1246 c 0
 356 1246 275 1072 237 998 c 1
 237 -3 l 1
 70 -3 l 1
 70 1154 l 2
 70 1279 29 1372 29 1372 c 1
 192 1434 l 1
 212 1391 228 1357 235 1273 c 1
 298 1384 415 1413 558 1413 c 0
EndSplineSet
Validated: 1
EndChar

StartChar: eng
Encoding: 331 331 258
Width: 1060
VWidth: 6
Flags: HW
HStem: -368 156<442 626.766> 872 150<419.07 680.196>
VStem: 123 158<0 778.144> 707 159<-124.65 841.083>
LayerCount: 2
Fore
SplineSet
281 927 m 1
 407 993 467 1022 577 1022 c 0
 698 1022 866 945 866 796 c 2
 866 211 l 2
 866 -88 864 -368 446 -368 c 2
 442 -368 l 1
 439 -212 l 2
 440 -212 441 -212 442 -212 c 0
 673 -212 707 -114 707 149 c 0
 707 354 707 560 707 765 c 0
 707 839 622 872 555 872 c 0
 492 872 427 830 282 760 c 1
 281 0 l 1
 123 -1 l 1
 123 705 l 2
 123 883 115 909 91 1003 c 1
 251 1040 l 1
 261 1016 274 976 281 927 c 1
EndSplineSet
Validated: 1
EndChar

StartChar: Scedilla
Encoding: 350 350 275
Width: 1060
VWidth: 32
Flags: HW
HStem: -410 125<410.445 615.66> -6 161<332.772 455 601 717.433> 1251 168<306.832 693.64>
VStem: 36 166<276.975 450> 67 167<968.253 1182.26> 455 145<-77.4613 -2.61438> 619 136<-278.217 -179.936> 780 167<1104.34 1165.79> 819 168<254.498 561.312>
LayerCount: 2
Fore
SplineSet
250 773 m 1xf680
 154 820 67 919 67 1078 c 0
 67 1313 262 1419 484 1419 c 0
 487 1419 491 1419 494 1419 c 0
 728 1416 907 1333 947 1107 c 1
 780 1076 l 1
 740 1214 652 1251 490 1251 c 0
 383 1251 318 1228 270 1179 c 1
 245 1152 234 1120 234 1083 c 0xef
 234 994 282 951 341 923 c 1
 464 862 628 863 767 798 c 1
 880 741 987 613 987 423 c 0
 987 155 822 15 601 -7 c 1
 600 -28 600 -69 600 -71 c 1
 697 -76 755 -138 755 -242 c 0
 755 -343 655 -410 571 -410 c 0
 505 -410 433 -385 377 -349 c 1
 415 -243 l 1
 448 -261 488 -285 539 -285 c 0
 575 -285 616 -265 619 -227 c 1
 619 -225 l 2
 619 -196 581 -171 533 -171 c 0
 485 -171 483 -178 455 -188 c 1
 455 -6 l 1
 135 25 36 221 36 450 c 1
 202 450 l 1
 202 277 289 155 524 155 c 0
 739 155 819 258 819 414 c 0
 819 531 758 605 675 642 c 0
 553 696 390 708 250 773 c 1xf680
EndSplineSet
Validated: 1
EndChar

StartChar: scedilla
Encoding: 351 351 276
Width: 1060
VWidth: 32
Flags: HW
HStem: -420 125<368.445 573.66> -16 139<323.688 413 559 654.31> 881 148<323.448 659.835>
VStem: 102 157<190.518 329> 136 160<706.04 850.139> 413 145<-87.4613 -11.9371> 577 136<-288.217 -189.936> 725 155<188.544 389.011>
LayerCount: 2
Fore
SplineSet
253 571 m 0xf7
 188 606 136 672 136 783 c 0
 137 956 299 1029 474 1029 c 0
 596 1029 772 989 854 888 c 1
 741 777 l 1
 688 839 574 881 488 881 c 0
 382 881 296 847 296 787 c 0xef
 296 739 313 716 353 698 c 1
 618 586 880 565 880 281 c 0
 880 119 766 28 659 0 c 0
 626 -8 593 -13 559 -16 c 1
 558 -36 558 -79 558 -81 c 1
 655 -86 713 -148 713 -252 c 0
 713 -353 613 -420 529 -420 c 0
 463 -420 391 -395 335 -359 c 1
 373 -253 l 1
 406 -271 446 -295 497 -295 c 0
 533 -295 574 -275 577 -237 c 1
 577 -235 l 2
 577 -206 539 -181 491 -181 c 0
 443 -181 441 -188 413 -198 c 1
 413 -16 l 1
 206 8 102 137 102 330 c 1
 259 329 l 1
 259 195 328 123 483 123 c 0
 606 123 725 176 725 286 c 0
 725 359 694 385 639 426 c 1
 562 481 358 516 253 571 c 0xf7
EndSplineSet
Validated: 1
EndChar

StartChar: Tcommaaccent
Encoding: 354 354 279
Width: 1060
VWidth: 32
Flags: HW
HStem: -410 125<380.445 585.66> 1247 169<32 414 582 945.953>
VStem: 414 168<-80.9766 1247> 589 136<-278.217 -179.936>
LayerCount: 2
Fore
SplineSet
414 -10 m 1
 414 1247 l 1
 206 1247 112 1246 32 1246 c 1
 32 1415 l 1
 160 1415 637 1416 834 1416 c 0
 911 1416 962 1403 981 1400 c 1
 946 1234 l 1
 946 1234 881 1247 829 1247 c 2
 582 1247 l 1
 582 -10 l 1
 571 -10 l 1
 571 -31 570 -69 570 -71 c 1
 667 -76 725 -138 725 -242 c 0
 725 -343 625 -410 541 -410 c 0
 475 -410 403 -385 347 -349 c 1
 385 -243 l 1
 418 -261 458 -285 509 -285 c 0
 545 -285 586 -265 589 -227 c 1
 589 -225 l 2
 589 -196 551 -171 503 -171 c 0
 455 -171 453 -178 425 -188 c 1
 425 -10 l 1
 414 -10 l 1
EndSplineSet
Validated: 1
EndChar

StartChar: tcommaaccent
Encoding: 355 355 280
Width: 1060
VWidth: 32
Flags: HW
HStem: -406 125<442.445 647.66> -5 154<632 770.142> 872 145<142 170>
VStem: 172 159<209.621 865 1017 1245> 487 145<-73.4613 -5> 651 136<-274.217 -175.936>
LayerCount: 2
Fore
SplineSet
331 437 m 1
 331 397 l 2
 331 264 367 163 478 152 c 0
 496 150 573 149 586 149 c 0
 651 149 715 159 740 173 c 0
 797 203 815 258 822 277 c 1
 948 221 l 1
 938 193 915 102 803 37 c 0
 755 9 698 -2 632 -5 c 1
 632 -26 632 -65 632 -67 c 1
 729 -72 787 -134 787 -238 c 0
 787 -339 687 -406 603 -406 c 0
 537 -406 465 -381 409 -345 c 1
 447 -239 l 1
 480 -257 520 -281 571 -281 c 0
 607 -281 648 -261 651 -223 c 1
 651 -221 l 2
 651 -192 613 -167 565 -167 c 0
 517 -167 515 -174 487 -184 c 1
 487 -3 l 1
 358 6 268 42 211 161 c 0
 176 233 172 308 172 394 c 2
 172 437 l 1
 176 541 178 672 184 865 c 1
 170 865 l 2
 142 865 114 861 88 854 c 1
 68 1000 l 1
 92 1009 137 1012 170 1012 c 2
 185 1012 l 1
 185 1082 186 1176 186 1246 c 1
 344 1245 l 1
 344 1179 343 1085 342 1017 c 1
 464 1017 l 1
 609 1018 763 1019 763 1019 c 1
 781 1019 l 1
 781 872 l 1
 464 872 l 2
 418 872 391 869 345 869 c 1
 336 665 335 537 331 437 c 1
EndSplineSet
Validated: 1
EndChar

StartChar: tcaron
Encoding: 357 357 282
Width: 1060
VWidth: 32
Flags: HW
HStem: -6 155<393.71 768.905> 872 145<142 170>
VStem: 172 159<209.621 865 1017 1255> 593 152<1106.79 1228.75>
LayerCount: 2
Fore
SplineSet
854 1448 m 1
 816 1336 790 1227 745 1076 c 1
 593 1110 l 1
 611 1252 639 1393 660 1496 c 1
 854 1448 l 1
EndSplineSet
Refer: 19 116 N 1 0 0 1 0 0 2
Validated: 1
EndChar

StartChar: Uogonek
Encoding: 370 370 293
Width: 1060
VWidth: 32
Flags: HW
HStem: -414 111<444.429 647.172> 1411 8G<61 230 802 972>
VStem: 55 167<304.484 1419> 301 136<-290.728 -132.533> 793 169<307.281 1417.39>
LayerCount: 2
Fore
SplineSet
807 1431 m 1
 972 1417 l 1
 963 1352 962 1305 962 1246 c 0
 962 1088 964 949 964 828 c 2
 964 765 l 2
 964 512 961 271 843 130 c 0
 774 47 687 10 586 -4 c 1
 528 -95 437 -147 437 -229 c 2
 437 -231 l 2
 437 -274 483 -303 527 -303 c 0
 585 -303 633 -289 666 -271 c 1
 700 -338 l 1
 644 -374 576 -414 485 -414 c 0
 401 -414 301 -347 301 -246 c 0
 301 -121 357 -72 419 -6 c 1
 165 25 79 201 62 487 c 0
 57 569 55 702 55 849 c 0
 55 1036 58 1247 64 1419 c 1
 230 1419 l 1
 226 1239 222 996 222 794 c 0
 222 660 224 544 229 479 c 0
 248 250 334 154 494 154 c 1
 605 159 660 184 717 245 c 1
 787 326 798 550 798 765 c 0
 798 899 793 1059 793 1244 c 0
 793 1321 797 1363 807 1431 c 1
EndSplineSet
Validated: 1
EndChar

StartChar: uogonek
Encoding: 371 371 294
Width: 1060
VWidth: 32
Flags: HW
HStem: -405 111<815.429 1018.17> 2 154<330.683 595.04> 1001 20G<142.481 272>
VStem: 124 156<180.892 701.424> 672 136<-281.728 -101.938> 749 158<276.783 1001>
LayerCount: 2
Fore
SplineSet
783 158 m 1xf8
 699 72 602 5 452 2 c 1
 443 2 l 2
 381 2 296 3 236 44 c 0
 191 75 124 132 124 214 c 0
 121 482 128 911 101 994 c 1
 261 1021 l 1
 283 929 278 616 280 250 c 1
 286 216 308 190 330 174 c 0
 344 164 395 156 436 156 c 1
 503 159 544 167 595 198 c 0
 642 226 711 256 749 344 c 1
 750 1001 l 1
 908 1001 l 1
 907 239 l 1xf4
 909 187 958 139 998 107 c 1
 916 -10 l 1
 858 -105 808 -136 808 -220 c 2
 808 -222 l 2
 808 -265 854 -294 898 -294 c 0
 956 -294 1004 -280 1037 -262 c 1
 1071 -329 l 1
 1015 -365 947 -405 856 -405 c 0
 772 -405 672 -338 672 -237 c 0
 672 -110 783 9 783 152 c 0
 783 154 783 156 783 158 c 1xf8
EndSplineSet
Validated: 1
EndChar

StartChar: longs
Encoding: 383 383 306
Width: 1060
VWidth: -2
Flags: HW
HStem: 859 153<122 265> 1266 152<458.036 834.583>
VStem: 122 300<859 1012> 265 157<0 859 1012 1231.57>
LayerCount: 2
Fore
SplineSet
422 1013 m 1xd0
 423 859 425 4 425 0 c 1
 268 0 l 1
 268 25 267 712 265 859 c 1xd0
 122 859 l 1
 122 1012 l 1xe0
 266 1012 l 1
 266 1028 265 1045 265 1064 c 0
 265 1207 293 1418 570 1418 c 0
 789 1418 937 1392 1021 1225 c 1
 895 1148 l 1
 845 1246 783 1266 578 1266 c 0
 431 1266 422 1168 422 1060 c 2
 422 1013 l 1xd0
EndSplineSet
Validated: 1
EndChar

StartChar: Euro
Encoding: 8364 8364 307
Width: 1060
VWidth: 0
Flags: HW
HStem: -31 155<465.909 728.308> 431 152<74 170 336 657> 676 151<71 171 341 742> 1180 163<491.603 732.464>
VStem: 170 152<315.292 431 584 676> 187 154<829 979.375>
LayerCount: 2
Fore
SplineSet
793 833 m 1xf4
 742 682 l 1
 730 682 l 1
 673 680 642 676 566 676 c 0
 509 676 424 676 324 676 c 1
 323 653 322 631 322 609 c 0
 322 601 322 593 322 584 c 1
 352 583 370 583 408 583 c 0
 494 583 594 584 683 585 c 1
 709 585 l 1
 657 435 l 1
 336 431 l 1
 363 253 461 124 577 124 c 2
 596 124 l 2
 695 124 775 181 823 287 c 1
 954 200 l 1
 880 26 730 -31 591 -31 c 0
 512 -31 392 3 308 113 c 0
 242 198 198 309 179 432 c 1
 150 433 126 433 101 433 c 0
 82 433 63 433 38 432 c 2
 14 431 l 1
 20 456 l 2
 28 493 51 525 70 572 c 1
 74 583 l 1
 85 583 l 1
 127 584 151 584 170 584 c 1
 170 601 170 617 170 632 c 0xf8
 170 647 170 662 171 676 c 1
 108 677 65 677 36 679 c 2
 11 681 l 1
 21 707 l 2
 38 753 58 790 71 821 c 2
 76 833 l 1
 88 832 l 2
 105 831 141 830 187 829 c 1
 206 942 235 1026 269 1102 c 0
 351 1281 509 1343 608 1343 c 0
 716 1343 821 1287 913 1184 c 1
 848 999 l 1
 794 1102 706 1180 605 1180 c 0
 473 1180 378 1023 341 827 c 1
 384 827 409 827 450 827 c 0
 532 827 604 827 638 827 c 1
 690 829 725 831 767 832 c 2
 793 833 l 1xf4
EndSplineSet
Validated: 1
EndChar

StartChar: uniE000
Encoding: 57344 57344 308
Width: 1060
VWidth: 6
Flags: HW
HStem: 390 154<428.981 583.371> 486 158<218.671 379.117>
VStem: 77 635
LayerCount: 2
Fore
SplineSet
86 491 m 1x60
 145 603 208 644 272 644 c 0x60
 376 644 471 544 529 544 c 0
 552 544 576 560 599 624 c 2
 608 650 l 1
 712 546 l 1
 705 532 l 1
 650 430 590 390 529 390 c 0xa0
 425 390 337 486 279 486 c 0
 252 486 229 475 204 409 c 2
 196 387 l 1
 77 475 l 1
 86 491 l 1x60
EndSplineSet
Validated: 1
EndChar

StartChar: uniE001
Encoding: 57345 57345 309
Width: 1060
VWidth: 6
Flags: HW
HStem: -312 150<357.529 585.23> -11 152<380.059 500.911> 513 151<413.205 560.976> 894 150<405.333 542.135> 1191 152<355.927 576.731>
VStem: 33 123<166.673 870.319> 229 129<151.289 456.948> 575 117<224.252 496.71> 784 114<148.623 863.075>
LayerCount: 2
Fore
SplineSet
415 141 m 0
 441 141 469 155 486 170 c 0
 551 229 564 299 575 334 c 1
 575 367 574 433 574 452 c 1
 543 495 513 513 482 513 c 0
 481 513 480 513 479 513 c 0
 424 511 358 415 358 310 c 0
 358 308 358 307 358 305 c 0
 361 201 392 141 415 141 c 0
416 -11 m 1
 285 -5 229 154 229 299 c 0
 229 300 229 302 229 303 c 0
 229 380 246 461 281 524 c 0
 339 628 413 661 482 664 c 0
 485 664 487 664 490 664 c 0
 526 664 555 652 574 641 c 1
 565 806 556 894 472 894 c 0
 413 894 406 860 350 727 c 1
 342 709 l 1
 238 770 l 1
 244 787 l 1
 299 963 374 1041 472 1044 c 1
 513 1044 571 1025 612 967 c 0
 654 907 692 805 692 663 c 2
 692 229 l 1
 695 155 700 157 719 133 c 0
 720 131 724 128 727 126 c 1
 737 132 743 149 749 169 c 0
 781 267 784 386 784 515 c 0
 784 900 645 1191 466 1191 c 0
 288 1191 156 901 156 515 c 0
 156 129 296 -162 466 -162 c 0
 526 -162 584 -129 634 -72 c 1
 646 -57 l 1
 723 -153 l 1
 712 -166 l 2
 649 -239 552 -312 466 -312 c 0
 219 -312 33 68 33 515 c 0
 33 962 219 1343 466 1343 c 0
 713 1343 898 962 898 515 c 0
 898 364 876 222 840 98 c 1
 831 71 799 -26 732 -26 c 0
 731 -26 730 -26 729 -26 c 2
 727 -26 l 1
 726 -25 l 1
 707 -20 678 -9 658 16 c 1
 657 16 l 1
 645 34 619 59 606 110 c 1
 583 80 563 65 534 38 c 1
 502 11 461 -11 416 -11 c 1
EndSplineSet
Validated: 1
EndChar

StartChar: uniE002
Encoding: 57346 57346 310
Width: 1060
VWidth: 6
Flags: HW
HStem: -310 150<424.529 652.23> -9 153<501.048 619.012> 702 152<510.409 659.08> 1198 153<419.668 618.797>
VStem: 100 123<169.451 874.351> 325 129<193.676 639.402> 693 117<227.653 665.965>
LayerCount: 2
Fore
SplineSet
534 144 m 0
 560 144 587 158 604 173 c 0
 669 232 682 301 693 336 c 1
 693 621 l 1
 661 665 606 702 577 702 c 0
 477 702 454 498 454 375 c 0
 454 370 454 365 454 360 c 0
 457 256 513 144 534 144 c 0
810 703 m 2
 810 703 810 678 810 666 c 2
 810 231 l 1
 813 159 832 126 864 98 c 2
 881 83 l 1
 786 4 l 1
 775 20 l 2
 762 39 737 63 724 113 c 1
 701 83 681 68 652 41 c 1
 620 14 580 -9 534 -9 c 1
 399 -2 325 233 325 378 c 0
 325 379 325 380 325 381 c 0
 325 393 325 407 325 422 c 0
 325 496 329 600 378 711 c 0
 428 823 513 851 581 854 c 0
 583 854 585 854 587 854 c 0
 630 854 668 835 690 821 c 1
 688 854 687 882 685 903 c 0
 676 1031 665 1198 519 1198 c 0
 362 1198 223 905 223 518 c 0
 223 132 363 -160 533 -160 c 0
 593 -160 651 -126 701 -69 c 1
 713 -54 l 1
 789 -150 l 1
 779 -163 l 1
 716 -236 619 -310 533 -310 c 0
 286 -310 100 71 100 518 c 0
 100 964 272 1351 519 1351 c 0
 784 1351 810 996 810 703 c 2
EndSplineSet
Validated: 1
EndChar

StartChar: gravecomb
Encoding: 768 768 311
Width: 1060
VWidth: -43
Flags: HW
HStem: 1280 416
VStem: 228 544
LayerCount: 2
Fore
SplineSet
772 1428 m 1
 704 1280 l 1
 561 1327 339 1438 228 1550 c 1
 340 1696 l 1
 455 1588 629 1476 772 1428 c 1
EndSplineSet
Validated: 1
EndChar

StartChar: acutecomb
Encoding: 769 769 312
Width: 1060
VWidth: -43
Flags: HW
HStem: 1280 416
VStem: 244 544
LayerCount: 2
Fore
SplineSet
244 1428 m 1
 387 1476 563 1588 678 1696 c 1
 788 1550 l 1
 677 1438 455 1327 312 1280 c 1
 244 1428 l 1
EndSplineSet
Validated: 1
EndChar

StartChar: uni0302
Encoding: 770 770 313
Width: 1060
VWidth: -10
Flags: HW
HStem: 1265 405
LayerCount: 2
Fore
SplineSet
541 1670 m 1
 895 1388 l 1
 807 1265 l 1
 541 1468 l 1
 275 1265 l 1
 189 1388 l 1
 541 1670 l 1
EndSplineSet
Validated: 1
EndChar

StartChar: tildecomb
Encoding: 771 771 314
Width: 1060
VWidth: -12
Flags: HW
HStem: 1401 153<555.243 737.863> 1431 21G<224.628 263.5> 1522 153<281.244 482.376>
LayerCount: 2
Fore
SplineSet
361 1675 m 0x60
 509 1675 567 1554 657 1554 c 0
 721 1554 744 1598 769 1661 c 1
 905 1585 l 1
 859 1497 803 1401 671 1401 c 0x80
 531 1401 474 1522 373 1522 c 0
 314 1522 274 1485 253 1431 c 1
 131 1517 l 1
 189 1620 251 1675 361 1675 c 0x60
EndSplineSet
Validated: 1
EndChar

StartChar: uni0304
Encoding: 772 772 315
Width: 1060
VWidth: -34
Flags: HW
HStem: 1473 152<276 730>
VStem: 276 454<1474 1625>
LayerCount: 2
Fore
SplineSet
730 1625 m 1
 730 1473 l 1
 713 1473 l 1
 655 1471 585 1471 511 1471 c 0
 437 1471 362 1471 294 1473 c 1
 276 1474 l 1
 276 1629 l 1
 295 1627 l 1
 360 1625 457 1625 549 1625 c 0
 610 1625 668 1625 713 1625 c 2
 730 1625 l 1
EndSplineSet
Validated: 1
EndChar

StartChar: uni0305
Encoding: 773 773 316
Width: 1060
VWidth: -34
Flags: HW
HStem: 1473 155<107 881>
LayerCount: 2
Fore
SplineSet
881 1625 m 1
 881 1473 l 1
 107 1473 l 1
 107 1628 l 1
 881 1625 l 1
EndSplineSet
Validated: 1
EndChar

StartChar: uni0306
Encoding: 774 774 317
Width: 1060
VWidth: -12
Flags: HW
HStem: 1357 153<388.698 668.547>
VStem: 174 156<1571.28 1632.76> 726 166<1566.15 1623.59>
LayerCount: 2
Fore
SplineSet
530 1510 m 0
 638 1510 720 1573 726 1651 c 1
 892 1621 l 1
 868 1444 695 1357 530 1357 c 0
 404 1357 222 1405 174 1630 c 1
 330 1660 l 1
 357 1543 437 1510 530 1510 c 0
EndSplineSet
Validated: 1
EndChar

StartChar: uni0308
Encoding: 776 776 318
Width: 1060
VWidth: -28
Flags: HW
HStem: 1416 225<197 432 603 838>
VStem: 197 235<1416 1638> 603 235<1413 1635>
LayerCount: 2
Fore
SplineSet
197 1641 m 1
 432 1638 l 1
 432 1413 l 1
 197 1416 l 1
 197 1641 l 1
603 1638 m 1
 838 1635 l 1
 838 1410 l 1
 603 1413 l 1
 603 1638 l 1
EndSplineSet
Validated: 1
EndChar

StartChar: uni0307
Encoding: 775 775 319
Width: 1060
VWidth: -28
Flags: HW
HStem: 1426 225<354 590>
VStem: 354 236<1426 1648>
LayerCount: 2
Fore
SplineSet
354 1651 m 1
 590 1648 l 1
 590 1423 l 1
 354 1426 l 1
 354 1651 l 1
EndSplineSet
Validated: 1
EndChar

StartChar: uni030A
Encoding: 778 778 320
Width: 1060
VWidth: -8
Flags: HW
HStem: 1286 116<457.049 622.948> 1543 125<457.396 624.026>
VStem: 312 138<1413.79 1533.01> 631 139<1413.61 1532.57>
LayerCount: 2
Fore
SplineSet
312 1473 m 0
 312 1584 418 1668 541 1668 c 0
 664 1668 770 1584 770 1473 c 0
 770 1363 674 1286 541 1286 c 0
 414 1286 312 1364 312 1473 c 0
540 1543 m 0
 485 1543 450 1508 450 1473 c 0
 450 1438 486 1402 540 1402 c 0
 594 1402 631 1438 631 1473 c 0
 631 1508 595 1543 540 1543 c 0
EndSplineSet
Validated: 1
EndChar

StartChar: uni0237
Encoding: 567 567 321
Width: 1060
VWidth: 0
Flags: HW
HStem: -387 156<336.311 601.621> 864 155<384.191 636>
VStem: 637 156<-196.669 864>
LayerCount: 2
Fore
SplineSet
637 -114 m 1
 636 864 l 1
 630 864 626 864 620 864 c 0
 522 864 470 856 380 835 c 1
 352 977 l 1
 464 1003 572 1019 676 1019 c 2
 793 1019 l 1
 793 -118 l 2
 793 -263 732 -387 494 -387 c 0
 371 -387 227 -365 101 -160 c 1
 227 -62 l 1
 326 -224 410 -231 473 -231 c 0
 479 -231 485 -231 490 -231 c 0
 602 -231 635 -149 637 -114 c 1
EndSplineSet
Validated: 1
EndChar

StartChar: uni030B
Encoding: 779 779 322
Width: 1060
VWidth: -43
Flags: HW
HStem: 1165 517
LayerCount: 2
Fore
SplineSet
129 1280 m 1
 246 1375 372 1541 442 1682 c 1
 596 1583 l 1
 531 1439 361 1259 243 1165 c 1
 129 1280 l 1
465 1273 m 1
 582 1368 708 1534 778 1675 c 1
 932 1575 l 1
 867 1431 698 1252 580 1158 c 1
 465 1273 l 1
EndSplineSet
Validated: 1
EndChar

StartChar: uni030C
Encoding: 780 780 323
Width: 1060
VWidth: -10
Flags: HW
HStem: 1218 405
LayerCount: 2
Fore
SplineSet
541 1218 m 1
 189 1500 l 1
 275 1623 l 1
 541 1420 l 1
 807 1623 l 1
 895 1500 l 1
 541 1218 l 1
EndSplineSet
Validated: 1
EndChar

StartChar: uni030F
Encoding: 783 783 324
Width: 1060
VWidth: -43
Flags: HW
HStem: 1162 563
LayerCount: 2
Fore
SplineSet
597 1266 m 1
 472 1162 l 1
 364 1267 213 1464 162 1613 c 1
 326 1696 l 1
 382 1549 490 1372 597 1266 c 1
923 1295 m 1
 798 1191 l 1
 690 1296 539 1493 488 1642 c 1
 652 1725 l 1
 708 1578 816 1401 923 1295 c 1
EndSplineSet
Validated: 1
EndChar

StartChar: hookabovecomb
Encoding: 777 777 325
Width: 1060
VWidth: 12
Flags: HW
HStem: 953 175<501.294 644.524> 957 188<500 575.783> 1242 125<455.445 660.66>
VStem: 500 146<957 1034.46> 664 136<1136.94 1235.22>
LayerCount: 2
Fore
SplineSet
646 953 m 1xb8
 500 957 l 1
 500 1145 l 1x78
 528 1135 530 1128 578 1128 c 0
 626 1128 664 1153 664 1182 c 2
 664 1184 l 1
 661 1222 620 1242 584 1242 c 0
 533 1242 493 1218 460 1200 c 1
 422 1306 l 1
 478 1342 550 1367 616 1367 c 0
 700 1367 800 1300 800 1199 c 0
 800 1095 742 1033 645 1028 c 1
 645 1025 645 961 646 953 c 1xb8
EndSplineSet
Validated: 1
EndChar

StartChar: uni030D
Encoding: 781 781 326
Width: 1060
VWidth: -34
Flags: HW
HStem: 1280 348<443 602>
VStem: 443 159<1280 1628>
LayerCount: 2
Fore
SplineSet
443 1628 m 1
 602 1628 l 1
 602 1280 l 1
 443 1280 l 1
 443 1628 l 1
EndSplineSet
Validated: 1
EndChar

StartChar: uni0191
Encoding: 401 401 328
Width: 1060
VWidth: 0
Flags: HW
HStem: -267 180<17 129.74> 728 164<364 736.161> 1248 167<364 938.737>
VStem: 200 164<-11.6147 726 889 1247>
LayerCount: 2
Fore
SplineSet
9 -87 m 1
 113 -87 201 -1 201 107 c 2
 200 1416 l 1
 832 1415 l 1
 913 1412 963 1396 999 1377 c 1
 940 1218 l 1
 913 1233 890 1247 787 1248 c 1
 713 1248 l 2
 604 1248 556 1248 364 1247 c 1
 364 889 l 1
 490 889 473 892 601 892 c 0
 693 892 755 876 756 876 c 2
 775 871 l 1
 738 713 l 1
 699 723 645 728 598 728 c 0
 554 728 525 728 500 728 c 0
 462 728 432 728 364 726 c 1
 364 594 369 200 369 99 c 0
 369 -110 211 -258 17 -267 c 1
 9 -87 l 1
EndSplineSet
Validated: 1
EndChar

StartChar: florin
Encoding: 402 402 329
Width: 1060
VWidth: -2
Flags: HW
HStem: -313 147<109 244.166> 859 153<194 336 493 824.016> 1266 152<529.822 837.743>
VStem: 336 157<-67.5453 859 1013 1224.24>
LayerCount: 2
Fore
SplineSet
340 152 m 0
 340 177 338 712 336 859 c 1
 194 859 l 1
 194 1012 l 1
 338 1012 l 1
 338 1028 336 1045 336 1064 c 0
 336 1207 365 1418 642 1418 c 0
 803 1418 937 1392 1021 1225 c 1
 895 1148 l 1
 845 1246 782 1266 650 1266 c 0
 503 1266 493 1168 493 1060 c 2
 493 1013 l 1
 561 1013 620 1012 693 1012 c 1
 797 1009 824 1001 854 992 c 1
 825 846 l 1
 804 853 783 859 727 859 c 2
 493 859 l 1
 494 705 496 156 496 152 c 0
 496 -105 428 -313 98 -313 c 1
 109 -166 l 1
 282 -166 340 -24 340 152 c 0
EndSplineSet
Validated: 1
EndChar

StartChar: alpha
Encoding: 945 945 330
Width: 1060
VWidth: 4
Flags: HW
HStem: -7 157<306.047 493.007> 865 153<298.334 494.274>
VStem: 41 159<280 745.984>
LayerCount: 2
Fore
SplineSet
793 493 m 1
 817 416 843 329 875 232 c 0
 894 174 918 134 984 108 c 1
 916 -32 l 1
 788 0 744 120 726 180 c 0
 719 203 712 226 705 248 c 1
 640 100 555 -7 424 -7 c 0
 136 -7 41 259 41 527 c 0
 41 894 230 1018 405 1018 c 0
 570 1018 639 940 711 743 c 1
 742 842 774 941 810 1034 c 1
 956 964 l 1
 891 838 845 661 793 493 c 1
200 527 m 0
 200 157 389 150 407 150 c 2
 420 150 l 2
 505 150 569 298 633 494 c 1
 559 745 511 865 394 865 c 0
 316 865 200 766 200 527 c 0
EndSplineSet
Validated: 1
EndChar

StartChar: beta
Encoding: 946 946 331
Width: 1060
VWidth: 0
Flags: HW
HStem: 0 153<355.659 685.182> 669 153<263 516.391> 1176 152<258.318 517.771>
VStem: 50 153<-284.195 112 307.561 1117.88> 571 153<877.064 1123.57> 760 154<232.652 553.369>
LayerCount: 2
Fore
SplineSet
208 112 m 1
 208 83 208 59 208 39 c 0
 208 -85 205 -203 197 -300 c 1
 46 -283 l 1
 56 -183 59 -74 59 37 c 0
 59 224 50 829 50 1003 c 0
 50 1159 161 1328 360 1328 c 0
 563 1328 724 1233 724 1011 c 0
 724 909 696 832 640 779 c 1
 817 730 914 598 914 381 c 0
 914 171 821 2 569 0 c 0
 567 0 564 0 562 0 c 0
 408 0 298 39 208 112 c 1
569 153 m 0
 691 153 760 261 760 395 c 0
 760 656 551 669 263 669 c 1
 263 822 l 1
 428 822 571 822 571 1005 c 0
 571 1118 497 1176 360 1176 c 1
 264 1175 203 1083 203 993 c 0
 203 893 206 609 207 367 c 1
 304 192 400 153 569 153 c 0
EndSplineSet
Validated: 1
EndChar

StartChar: gamma
Encoding: 947 947 332
Width: 1060
VWidth: 14
Flags: HW
HStem: 889 152<-10 65.2925>
VStem: 461 159<-376 115.021>
LayerCount: 2
Fore
SplineSet
461 -376 m 1
 461 -269 458 -10 440 68 c 0
 383 315 244 627 150 784 c 0
 115 843 78 873 66 880 c 0
 51 889 30 889 5 889 c 0
 0 889 -5 888 -10 888 c 1
 -10 1041 l 1
 23 1041 62 1040 90 1036 c 0
 153 1026 203 976 263 883 c 0
 360 731 462 488 532 287 c 1
 606 504 780 1060 780 1060 c 1
 934 1004 l 1
 934 1004 709 388 613 16 c 1
 619 -66 620 -174 620 -290 c 0
 620 -319 620 -349 620 -378 c 1
 461 -376 l 1
EndSplineSet
Validated: 1
EndChar

StartChar: delta
Encoding: 948 948 333
Width: 1060
VWidth: 6
Flags: HW
HStem: 1 155<313.159 600.662> 1227 152<282.954 720.382>
VStem: 42 158<272.944 645.668> 89 159<1053.25 1188.2> 715 157<273.541 630.398>
LayerCount: 2
Fore
SplineSet
476 786 m 1xe8
 311 754 200 664 200 469 c 0
 200 274 287 156 454 156 c 1
 530 157 574 173 624 215 c 1
 693 279 715 365 715 506 c 0
 715 631 602 717 476 786 c 1xe8
872 504 m 0
 872 244 776 1 454 1 c 2
 452 1 l 1
 180 2 42 184 42 464 c 0xe8
 42 655 103 804 287 879 c 1
 242 901 202 921 175 942 c 0
 129 979 89 1034 89 1110 c 0
 89 1129 92 1149 97 1171 c 0
 137 1330 277 1379 442 1379 c 0
 566 1379 705 1351 826 1322 c 1
 788 1164 l 1
 655 1201 532 1227 436 1227 c 0
 347 1227 282 1204 255 1147 c 0
 250 1136 248 1126 248 1117 c 0xd8
 248 1089 269 1069 296 1050 c 1
 538 894 872 838 872 504 c 0
EndSplineSet
Validated: 1
EndChar

StartChar: epsilon
Encoding: 949 949 334
Width: 1060
VWidth: 0
Flags: HW
HStem: -4 154<251.879 709.193> 510 151<299.985 606> 871 153<276.665 737.822>
VStem: 34 157<206.569 417.619> 93 157<710.3 840.612>
LayerCount: 2
Fore
SplineSet
899 131 m 1xf0
 828 78 685 -4 462 -4 c 0
 280 -4 199 31 124 90 c 0
 47 151 34 236 34 301 c 0xf0
 34 431 99 548 251 584 c 1
 141 608 93 691 93 789 c 0
 93 935 266 1024 471 1024 c 2
 484 1024 l 2
 717 1024 789 972 807 960 c 1
 739 830 l 1
 715 845 618 871 473 871 c 0
 358 871 250 846 250 783 c 0xe8
 250 662 472 661 583 661 c 2
 588 661 l 1
 606 661 l 1
 606 509 l 1
 580 509 554 510 528 510 c 0
 465 510 403 506 329 478 c 0
 218 437 191 366 191 299 c 0
 191 206 282 150 463 150 c 0
 631 150 762 206 813 252 c 1
 899 131 l 1xf0
EndSplineSet
Validated: 1
EndChar

StartChar: zeta
Encoding: 950 950 335
Width: 1060
VWidth: 0
Flags: HW
HStem: -306 138<568.507 695.68> 0 150<313.921 716.161> 1191 161<143.899 646.852> 1408 20G<90.906 127 774.5 848.228>
VStem: 52 159<264.24 659.875> 725 156<-130.969 -9.887>
LayerCount: 2
Fore
SplineSet
107 1428 m 1
 147 1386 193 1352 274 1352 c 0
 439 1352 709 1358 840 1376 c 1
 905 1218 l 1
 764 1020 211 871 211 480 c 0
 211 255 301 150 451 150 c 0
 454 150 571 151 574 151 c 0
 749 151 881 91 881 -66 c 0
 881 -274 661 -296 571 -306 c 1
 547 -168 l 1
 631 -155 725 -139 725 -77 c 0
 725 -3 674 0 586 0 c 0
 579 0 573 0 566 0 c 0
 562 0 407 0 403 0 c 0
 202 0 52 177 52 504 c 0
 52 861 411 1027 655 1200 c 1
 525 1193 421 1191 294 1191 c 0
 179 1191 81 1218 4 1300 c 1
 107 1428 l 1
EndSplineSet
Validated: 1
EndChar

StartChar: eta
Encoding: 951 951 336
Width: 1060
VWidth: 6
Flags: HW
HStem: 872 150<407.027 677.196>
VStem: 83 158<0 758.239> 704 159<-327.685 841.083>
LayerCount: 2
Fore
SplineSet
241 900 m 1
 349 979 464 1022 574 1022 c 0
 695 1022 863 945 863 796 c 2
 863 -79 l 2
 863 -145 876 -282 894 -330 c 1
 736 -362 l 1
 718 -283 704 -215 704 -86 c 2
 704 765 l 2
 704 839 619 872 552 872 c 0
 489 872 373 820 242 733 c 1
 241 0 l 1
 83 -1 l 1
 83 705 l 2
 83 883 75 909 51 1003 c 1
 211 1040 l 1
 221 1016 234 949 241 900 c 1
EndSplineSet
Validated: 1
EndChar

StartChar: theta
Encoding: 952 952 337
Width: 1060
VWidth: 0
Flags: HW
HStem: -16 153<325.938 609.042> 595 158<183.538 779.256> 1170 153<361.707 619.237>
VStem: 11 160<336.789 578.122 732 893.719> 782 160<363.79 590.421 745 957.457>
LayerCount: 2
Fore
SplineSet
780 745 m 1
 772 839 751 939 713 1014 c 0
 655 1128 569 1170 497 1170 c 0
 419 1170 358 1138 300 1062 c 0
 246 992 197 879 178 732 c 1
 397 747 541 753 637 753 c 0
 705 753 750 750 780 745 c 1
492 1323 m 0
 602 1323 942 1233 942 632 c 2
 942 621 l 2
 942 457 896 324 848 231 c 0
 773 87 645 -16 480 -16 c 0
 358 -16 233 32 152 132 c 0
 62 242 11 410 11 590 c 0
 11 867 100 1059 170 1154 c 0
 236 1244 350 1323 492 1323 c 0
258 247 m 0
 307 182 372 137 480 137 c 0
 596 137 667 224 712 307 c 1
 747 363 775 484 782 585 c 1
 738 592 682 595 616 595 c 0
 494 595 339 585 171 576 c 1
 176 470 207 314 258 247 c 0
EndSplineSet
Validated: 1
EndChar

StartChar: iota
Encoding: 953 953 338
Width: 1060
VWidth: 0
Flags: HW
HStem: -18 142<525.188 776.718> 857 156<94.467 348>
VStem: 348 160<141.544 857>
LayerCount: 2
Fore
SplineSet
387 1013 m 2
 507 1013 l 1
 507 740 508 259 508 259 c 2
 508 141 553 124 645 124 c 0
 738 124 830 185 880 299 c 1
 994 221 l 1
 924 71 830 -18 646 -18 c 0
 561 -18 485 -4 441 20 c 0
 356 67 348 196 348 255 c 2
 348 857 l 1
 299 857 185 851 90 829 c 1
 61 971 l 1
 173 997 283 1013 387 1013 c 2
EndSplineSet
Validated: 1
EndChar

StartChar: kappa
Encoding: 954 954 339
Width: 1060
VWidth: 0
Flags: HW
HStem: 1000 20G<86 242>
VStem: 86 156<0 375.744 550 1020>
LayerCount: 2
Fore
SplineSet
528 605 m 1
 638 478 903 185 954 50 c 1
 820 -26 l 1
 774 83 535 364 416 501 c 1
 416 501 297 399 242 324 c 1
 242 0 l 1
 86 0 l 1
 86 1020 l 1
 242 1020 l 1
 242 550 l 1
 335 642 440 725 547 819 c 1
 754 997 832 1030 855 1049 c 1
 952 920 l 1
 759 804 594 673 528 605 c 1
EndSplineSet
Validated: 1
EndChar

StartChar: lambda
Encoding: 955 955 340
Width: 1060
VWidth: 14
Flags: HW
HStem: -17 21G<112.667 235> 0 156<830.931 937.39> 1234 155<211.02 342.064>
VStem: 36 156<1122 1219.41>
LayerCount: 2
Fore
SplineSet
146 -17 m 1xb0
 6 67 l 1
 103 171 316 724 435 975 c 1
 397 1081 354 1234 280 1234 c 0
 228 1234 192 1186 192 1122 c 1
 36 1122 l 1
 36 1124 l 2
 36 1252 117 1389 276 1389 c 0
 425 1389 497 1280 538 1184 c 0
 646 931 738 596 778 408 c 0
 792 342 827 156 861 156 c 0
 887 156 907 197 907 197 c 1
 1008 87 l 1
 949 22 932 0 846 0 c 0x70
 680 0 650 268 632 348 c 0
 596 507 571 626 527 756 c 1
 378 480 324 273 146 -17 c 1xb0
EndSplineSet
Validated: 1
EndChar

StartChar: mu
Encoding: 956 956 341
Width: 1060
VWidth: 6
Flags: HW
HStem: -10 21G<847.5 890.017> -10 21G<847.5 890.017> 2 154<290.683 555.04> 1001 20G<102.481 232>
VStem: 79 157<-400 22 181.338 701.424> 709 158<276.783 1001>
LayerCount: 2
Fore
SplineSet
876 -10 m 1x9c
 819 31 765 72 743 158 c 1
 659 72 562 5 412 2 c 1
 403 2 l 2
 355 2 293 2 239 22 c 1
 236 -400 l 1
 79 -400 l 1
 84 214 l 1
 81 482 88 911 61 994 c 1
 221 1021 l 1
 243 929 238 616 240 250 c 1
 246 216 268 190 290 174 c 0
 304 164 355 156 396 156 c 1x3c
 463 159 504 167 555 198 c 0
 602 226 671 256 709 344 c 1
 710 1001 l 1
 868 1001 l 1
 867 239 l 1
 869 187 918 139 958 107 c 1
 876 -10 l 1x9c
EndSplineSet
Validated: 1
EndChar

StartChar: nu
Encoding: 957 957 342
Width: 1060
VWidth: 6
Flags: HW
HStem: -3 21G<337 434>
VStem: 760 156<442.885 950.014>
LayerCount: 2
Fore
SplineSet
123 1048 m 1
 193 973 220 935 246 860 c 0
 291 734 460 256 471 152 c 1
 739 322 760 554 760 733 c 2
 760 738 l 2
 760 830 731 918 699 988 c 1
 841 1044 l 1
 891 928 916 803 916 688 c 0
 916 556 893 394 735 192 c 0
 679 120 531 0 337 -3 c 1
 337 137 136 685 74 839 c 0
 66 860 20 927 -6 952 c 1
 123 1048 l 1
EndSplineSet
Validated: 1
EndChar

StartChar: xi
Encoding: 958 958 343
Width: 1060
VWidth: 0
Flags: HW
HStem: -320 153<565.126 699.334> 0 150<255.13 716.161> 695 154<556.4 712> 1191 161<144.294 499.462> 1408 20G<92.906 129 656.5 730.354>
VStem: 50 159<195.393 456.211> 233 174<894.745 1043.63> 725 156<-131.01 -9.887>
LayerCount: 2
Fore
SplineSet
109 1428 m 1
 149 1386 195 1352 276 1352 c 0
 441 1352 591 1358 722 1376 c 1
 788 1218 l 1
 707 1144 407 1096 407 964 c 0
 407 871 562 849 712 849 c 1
 712 695 l 1
 449 629 209 547 209 301 c 0
 209 181 301 150 451 150 c 0
 454 150 571 151 574 151 c 0
 749 151 881 91 881 -66 c 0
 881 -274 657 -310 567 -320 c 1
 547 -167 l 1
 631 -154 725 -139 725 -77 c 0
 725 -3 674 0 586 0 c 0
 579 0 573 0 566 0 c 0
 562 0 407 0 403 0 c 0
 202 0 50 58 50 325 c 0
 50 577 270 721 386 757 c 1
 344 768 233 793 233 967 c 0
 233 1122 372 1162 504 1212 c 1
 444 1203 392 1191 296 1191 c 0
 181 1191 83 1218 6 1300 c 1
 109 1428 l 1
EndSplineSet
Validated: 1
EndChar

StartChar: omicron
Encoding: 959 959 344
Width: 1060
VWidth: 6
Flags: HW
HStem: 1 155<313.159 600.662> 878 154<322.497 609.881>
VStem: 42 158<272.944 736.885> 713 159<279.587 758.636>
LayerCount: 2
Fore
SplineSet
624 215 m 1
 689 276 713 382 713 530 c 0
 713 536 713 542 713 548 c 0
 711 732 647 878 470 878 c 0
 262 878 200 713 200 469 c 0
 200 274 287 156 454 156 c 1
 530 157 574 173 624 215 c 1
452 1 m 1
 180 2 42 184 42 464 c 0
 42 756 144 1032 436 1032 c 0
 633 1032 743 963 813 831 c 0
 854 752 872 639 872 543 c 0
 872 258 776 1 454 1 c 2
 452 1 l 1
EndSplineSet
Validated: 1
EndChar

StartChar: pi
Encoding: 960 960 345
Width: 1060
VWidth: 6
Flags: HW
HStem: -12 21G<136 305> 0 148<781.767 908.911> 861 159<326 600.819 755 837.216>
VStem: 166 160<11.189 853> 622 158<150.732 858.861>
LayerCount: 2
Fore
SplineSet
774 1020 m 0xb8
 815 1020 830 1038 854 1088 c 1
 1004 1014 l 1
 972 940 918 861 786 861 c 2
 755 861 l 1
 773 816 780 758 780 626 c 2
 780 217 l 2
 780 166 798 148 820 148 c 0
 845 148 874 169 892 188 c 1
 962 70 l 1
 925 42 869 0 812 0 c 0x78
 735 0 622 49 622 204 c 2
 622 622 l 2
 622 794 603 815 580 861 c 1
 495 861 411 860 326 860 c 1
 326 215 l 2
 326 142 312 45 298 -12 c 1
 136 8 l 1
 154 76 166 146 166 219 c 2
 166 853 l 1
 120 844 79 827 46 800 c 1
 -18 956 l 1
 32 988 130 1019 230 1019 c 2
 230 1019 562 1020 774 1020 c 0xb8
EndSplineSet
Validated: 1
EndChar

StartChar: rho
Encoding: 961 961 346
Width: 1060
VWidth: -2
Flags: HW
HStem: 0 156<430.865 677.372> 878 154<385.643 676.881>
VStem: 108 158<-358.499 168 351.625 747.702> 780 159<279.335 758.636>
LayerCount: 2
Fore
SplineSet
780 530 m 0
 780 536 780 542 780 548 c 0
 778 732 714 878 537 878 c 0
 394 878 267 793 267 549 c 0
 267 328 411 156 556 156 c 1
 733 158 780 329 780 530 c 0
109 562 m 2
 109 854 265 1032 503 1032 c 0
 700 1032 810 963 880 831 c 0
 921 752 939 639 939 543 c 0
 939 258 866 0 544 0 c 2
 542 0 l 2
 405 0 315 80 266 168 c 1
 266 -75 l 2
 266 -206 298 -335 323 -396 c 1
 168 -438 l 1
 140 -376 108 -209 108 -70 c 2
 109 562 l 2
EndSplineSet
Validated: 1
EndChar

StartChar: sigma1
Encoding: 962 962 347
Width: 1060
VWidth: 4
Flags: HW
HStem: -351 152<572 699.011> 865 153<323.88 669.499>
VStem: 41 159<291.76 736.59> 730 156<-166.09 -48.8317>
LayerCount: 2
Fore
SplineSet
200 527 m 0
 200 150 412 155 478 150 c 0
 740 129 886 79 886 -95 c 0
 886 -191 836 -343 572 -351 c 1
 550 -199 l 1
 664 -185 730 -168 730 -99 c 0
 730 -33 567 -16 482 -7 c 0
 174 24 41 187 41 527 c 0
 41 894 219 1018 534 1018 c 0
 629 1018 703 994 763 948 c 0
 824 901 855 841 877 789 c 1
 723 729 l 1
 712 770 683 865 523 865 c 0
 302 865 200 766 200 527 c 0
EndSplineSet
Validated: 1
EndChar

StartChar: sigma
Encoding: 963 963 348
Width: 1060
VWidth: 6
Flags: HW
HStem: 1 155<313.159 571.698> 874 149<342.001 628.295 766 973.863>
VStem: 42 158<272.944 715.201> 680 159<291.004 816.704>
LayerCount: 2
Fore
SplineSet
766 872 m 1
 774 864 782 853 789 840 c 0
 830 761 839 639 839 543 c 0
 839 258 731 1 454 1 c 2
 452 1 l 1
 180 2 42 184 42 464 c 0
 42 756 150 1019 503 1022 c 0
 520 1022 579 1023 651 1023 c 0
 778 1023 945 1021 996 1012 c 1
 976 859 l 1
 931 866 848 870 766 872 c 1
595 874 m 1
 587 874 580 874 573 874 c 0
 551 874 536 874 532 874 c 0
 276 874 200 713 200 469 c 0
 200 274 287 156 454 156 c 0
 625 156 680 342 680 530 c 0
 680 536 680 542 680 548 c 0
 678 674 664 807 595 874 c 1
EndSplineSet
Validated: 1
EndChar

StartChar: tau
Encoding: 964 964 349
Width: 1060
VWidth: 0
Flags: HW
HStem: -3 155<548.618 767.23> 875 145<97.204 370 531 956>
VStem: 360 159<185.361 875>
LayerCount: 2
Fore
SplineSet
530 1020 m 1
 652 1020 l 2
 700 1020 749 1020 791 1020 c 2
 938 1020 l 1
 956 1020 l 1
 956 873 l 1
 652 875 l 1
 531 875 l 1
 522 671 523 540 519 440 c 1
 519 400 l 2
 519 204 531 152 675 152 c 0
 745 152 792 210 820 286 c 1
 952 228 l 1
 932 172 874 -3 677 -3 c 0
 414 -3 360 109 360 397 c 2
 360 440 l 1
 364 544 364 683 370 876 c 1
 350 875 236 874 236 874 c 2
 166 873 108 839 58 807 c 1
 -10 933 l 1
 40 977 135 1019 231 1019 c 2
 530 1020 l 1
EndSplineSet
Validated: 1
EndChar

StartChar: upsilon
Encoding: 965 965 350
Width: 1060
VWidth: 6
Flags: HW
HStem: -4 156<304.513 574.023> 1012 20G<102.481 229.5>
VStem: 84 156<217.662 1001.91> 760 156<372.78 977.938>
LayerCount: 2
Fore
SplineSet
84 366 m 0
 84 426 84 489 84 549 c 0
 84 753 82 941 61 1005 c 1
 221 1032 l 1
 238 960 240 778 240 573 c 0
 240 517 240 459 240 402 c 0
 240 223 304 152 437 152 c 0
 495 152 606 193 662 273 c 0
 749 398 760 500 760 738 c 0
 760 830 738 932 706 1002 c 1
 866 1046 l 1
 902 962 916 820 916 754 c 0
 916 750 916 746 916 742 c 0
 916 730 916 717 916 705 c 0
 916 514 911 303 738 123 c 0
 675 57 555 -4 392 -4 c 0
 199 -4 84 167 84 366 c 0
EndSplineSet
Validated: 1
EndChar

StartChar: phi
Encoding: 966 966 351
Width: 1060
VWidth: 0
Flags: HW
HStem: -11 156<549 637.183> 894 146<580.215 743.587>
VStem: 11 157<320.826 846.774> 390 158<-396 -2.52826 148 863.528> 786 156<339.325 855.219>
LayerCount: 2
Fore
SplineSet
549 -11 m 1
 551 -215 553 -377 554 -398 c 1
 392 -396 l 1
 390 -375 390 -211 390 -8 c 1
 298 9 210 52 149 127 c 0
 59 237 11 389 11 569 c 0
 11 797 65 963 158 1044 c 1
 284 954 l 1
 203 870 168 765 168 573 c 0
 168 469 198 315 254 242 c 0
 288 197 331 164 390 148 c 1
 390 640 l 2
 390 955 501 1040 645 1040 c 0
 784 1040 942 1010 942 632 c 2
 942 621 l 2
 942 457 898 304 850 211 c 0
 786 88 681 9 549 -11 c 1
548 145 m 1
 627 165 682 218 718 284 c 1
 758 348 785 517 786 624 c 1
 786 643 l 2
 786 812 758 894 647 894 c 2
 646 894 l 2
 619 894 546 893 546 644 c 0
 546 502 547 318 548 145 c 1
EndSplineSet
Validated: 1
EndChar

StartChar: chi
Encoding: 967 967 352
Width: 1060
VWidth: 14
Flags: HW
HStem: -398 156<828.01 949.917> 888 153<-10 132.48>
LayerCount: 2
Fore
SplineSet
394 289 m 1
 341 465 293 631 181 792 c 0
 123 876 68 888 -10 888 c 1
 -10 1041 l 1
 137 1041 205 1032 301 913 c 0
 405 784 511 466 511 466 c 1
 604 667 780 1060 780 1060 c 1
 934 1004 l 1
 934 1004 766 606 605 273 c 1
 648 100 809 -242 884 -242 c 0
 915 -242 913 -223 921 -211 c 1
 1013 -270 l 1
 1007 -308 983 -398 881 -398 c 0
 663 -398 529 -6 487 114 c 1
 256 -410 l 1
 79 -338 l 1
 394 289 l 1
EndSplineSet
Validated: 1
EndChar

StartChar: psi
Encoding: 968 968 353
Width: 1060
VWidth: 6
Flags: HW
HStem: -4 158<278.006 397> 1012 8G<60.4815 187.5 403 563>
VStem: 42 156<233.567 1001.91> 398 162<-392.108 -4 168 1020> 812 156<372.78 977.938>
LayerCount: 2
Fore
SplineSet
42 366 m 0
 42 426 42 489 42 549 c 0
 42 753 40 941 19 1005 c 1
 179 1032 l 1
 196 960 198 778 198 573 c 0
 198 517 198 459 198 402 c 0
 198 240 274 166 398 154 c 1
 399 438 403 693 403 927 c 2
 403 1020 l 1
 563 1020 l 1
 563 875 l 2
 563 639 561 431 560 168 c 1
 626 187 678 222 714 273 c 0
 801 398 812 500 812 738 c 0
 812 830 790 932 758 1002 c 1
 918 1046 l 1
 954 962 968 820 968 754 c 0
 968 750 968 746 968 742 c 0
 968 730 968 717 968 705 c 0
 968 514 963 303 790 123 c 0
 744 75 685 29 560 8 c 1
 560 -124 l 2
 560 -239 559 -295 554 -396 c 1
 393 -395 l 1
 397 -333 398 -290 398 -235 c 0
 398 -188 397 -132 397 -46 c 0
 397 -32 397 -18 397 -4 c 1
 395 -4 394 -4 392 -4 c 0
 172 -4 42 167 42 366 c 0
EndSplineSet
Validated: 1
EndChar

StartChar: omega
Encoding: 969 969 354
Width: 1060
VWidth: 6
Flags: HW
HStem: -10 155<217.366 366.525 610.099 766.103> 1013 20G<804.939 905>
VStem: 5 162<200.065 835.613> 406 155<195.231 684> 812 157<189.339 805.891>
LayerCount: 2
Fore
SplineSet
404 684 m 1
 563 703 l 1
 561 618 562 524 561 431 c 1
 562 423 562 414 562 405 c 0
 564 224 614 144 695 144 c 0
 784 144 812 270 812 420 c 0
 812 633 784 835 699 967 c 1
 851 1033 l 1
 959 852 969 582 969 441 c 0
 969 218 916 -12 671 -12 c 0
 596 -12 529 33 482 104 c 1
 432 34 363 -10 287 -10 c 0
 61 -10 5 220 5 444 c 0
 5 612 11 858 121 1041 c 1
 273 975 l 1
 192 848 167 675 167 468 c 0
 167 299 200 145 280 145 c 0
 350 145 395 196 408 321 c 1
 407 337 406 352 406 368 c 0
 405 474 406 584 404 684 c 1
EndSplineSet
Validated: 1
EndChar

StartChar: Alpha
Encoding: 913 913 357
Width: 1060
VWidth: 0
Flags: HW
HStem: 326 163<336.805 667>
LayerCount: 2
Fore
SplineSet
667 490 m 1
 507 982 l 1
 334 470 l 1
 394 483 444 485 527 489 c 1
 667 490 l 1
451 1298 m 1
 563 1298 l 1
 987 11 l 1
 823 -19 l 1
 724 326 l 1
 583 323 388 324 277 297 c 1
 175 -24 l 1
 13 0 l 1
 451 1298 l 1
EndSplineSet
Validated: 1
EndChar

StartChar: Beta
Encoding: 914 914 358
Width: 1060
VWidth: 0
Flags: HW
HStem: -5 151<241 662.386> 647 156<247 519.155> 1150 149<245 520.519>
VStem: 87 158<153 647 803 1143.26> 581 157<858.454 1093.57> 773 159<255.577 547.611>
LayerCount: 2
Fore
SplineSet
87 823 m 0
 87 996 84 1158 75 1285 c 1
 156 1291 205 1299 318 1299 c 0
 324 1299 330 1299 336 1299 c 0
 542 1299 738 1218 738 1002 c 0
 738 906 713 823 652 767 c 1
 807 715 932 583 932 393 c 0
 932 168 783 23 616 3 c 0
 577 -2 536 -5 497 -5 c 0
 412 -5 322 3 214 3 c 2
 78 3 l 1
 78 197 87 407 87 823 c 0
581 992 m 2
 581 1105 484 1150 347 1150 c 2
 330 1150 l 2
 291 1150 275 1148 245 1145 c 1
 248 1108 249 1064 249 1017 c 0
 249 950 247 877 247 803 c 1
 393 806 443 799 533 854 c 0
 560 870 581 925 581 984 c 2
 581 992 l 2
698 578 m 0
 625 639 564 649 469 649 c 0
 420 649 362 647 289 647 c 2
 245 647 l 1
 243 410 242 229 241 153 c 1
 349 153 389 146 464 146 c 0
 504 146 539 148 574 153 c 0
 680 166 773 265 773 409 c 0
 773 488 750 535 698 578 c 0
EndSplineSet
Validated: 1
EndChar

StartChar: Gamma
Encoding: 915 915 359
Width: 1060
VWidth: 0
Flags: HW
HStem: 1147 154<262 901.956>
VStem: 101 161<0 1147>
LayerCount: 2
Fore
SplineSet
101 1301 m 1
 785 1301 l 2
 860 1301 898 1287 945 1271 c 1
 904 1125 l 1
 860 1140 842 1144 783 1147 c 1
 262 1147 l 1
 262 0 l 1
 101 0 l 1
 101 1301 l 1
EndSplineSet
Validated: 1
EndChar

StartChar: Epsilon
Encoding: 917 917 360
Width: 1060
VWidth: 0
Flags: HW
HStem: -3 150<247 888.956> 666 150<250 688> 1144 153<250 879>
VStem: 92 158<147 666 816 1144>
LayerCount: 2
Fore
SplineSet
92 1293 m 1
 148 1297 218 1297 296 1297 c 0
 327 1297 360 1297 394 1297 c 2
 504 1297 l 2
 653 1297 789 1294 863 1294 c 2
 879 1294 l 1
 879 1144 l 1
 250 1144 l 1
 250 816 l 1
 688 816 l 1
 688 666 l 1
 250 666 l 1
 250 636 l 2
 250 433 247 224 247 147 c 1
 772 149 l 2
 828 149 889 175 889 175 c 1
 933 27 l 1
 885 14 850 -3 774 -3 c 2
 92 -3 l 1
 92 1293 l 1
EndSplineSet
Validated: 1
EndChar

StartChar: Zeta
Encoding: 918 918 361
Width: 1060
VWidth: 0
Flags: HW
HStem: -3 153<253 913.981> 1150 152<79 745>
LayerCount: 2
Fore
SplineSet
113 -5 m 1
 18 83 l 1
 745 1150 l 1
 531 1150 193 1145 79 1145 c 1
 78 1298 l 1
 198 1298 620 1302 808 1302 c 0
 883 1302 929 1289 948 1286 c 1
 945 1253 934 1172 930 1149 c 1
 253 151 l 1
 740 150 l 2
 825 150 852 154 917 175 c 1
 957 27 l 1
 912 11 874 -3 799 -3 c 2
 556 -3 l 2
 344 -3 168 -5 120 -5 c 2
 113 -5 l 1
EndSplineSet
Validated: 1
EndChar

StartChar: Eta
Encoding: 919 919 362
Width: 1060
VWidth: 0
Flags: HW
HStem: 625 152<214.549 744>
VStem: 50 159<0 604.438 749 1294> 744 158<0 625 777 1291>
LayerCount: 2
Fore
SplineSet
210 1296 m 1
 209 749 l 1
 301 770 396 777 516 777 c 2
 744 777 l 1
 744 1051 743 1129 743 1291 c 1
 902 1291 l 1
 902 0 l 1
 744 0 l 1
 744 625 l 1
 701 625 658 625 615 625 c 0
 469 625 327 622 209 597 c 1
 209 254 211 181 211 0 c 1
 50 0 l 1
 50 1294 l 1
 210 1296 l 1
EndSplineSet
Validated: 1
EndChar

StartChar: Theta
Encoding: 920 920 363
Width: 1060
VWidth: 0
Flags: HW
HStem: -16 153<339.716 643.474> 572 153<286 700> 1170 153<366.35 644.552>
VStem: 31 159<320.826 920.593> 804 158<350.765 944.703>
LayerCount: 2
Fore
SplineSet
286 725 m 1
 700 725 l 1
 700 572 l 1
 286 572 l 1
 286 725 l 1
512 1323 m 1
 636 1323 957 1249 962 632 c 1
 962 621 l 2
 962 457 918 304 870 211 c 0
 795 67 665 -16 500 -16 c 0
 378 -16 250 27 169 127 c 0
 79 237 31 389 31 569 c 0
 31 914 108 1063 178 1158 c 0
 244 1248 356 1320 512 1323 c 1
274 242 m 0
 323 177 392 137 500 137 c 0
 616 137 688 204 733 287 c 1
 773 351 803 517 804 624 c 1
 804 643 l 2
 804 758 786 911 733 1014 c 0
 675 1128 605 1170 517 1170 c 0
 422 1170 366 1142 308 1066 c 0
 239 977 190 835 190 573 c 0
 190 469 218 315 274 242 c 0
EndSplineSet
Validated: 1
EndChar

StartChar: Iota
Encoding: 921 921 364
Width: 1060
VWidth: 0
Flags: HW
HStem: 4 147<124 412 572 839> 1144 154<128 412 572 843>
VStem: 412 160<152 1151>
LayerCount: 2
Fore
SplineSet
122 1298 m 1
 278 1302 379 1302 475 1302 c 0
 580 1302 680 1301 843 1299 c 1
 843 1147 l 1
 720 1147 668 1152 572 1152 c 1
 572 152 l 1
 618 152 644 153 695 153 c 0
 740 153 787 152 839 149 c 1
 839 -1 l 1
 754 4 692 5 629 5 c 0
 582 5 533 4 474 4 c 0
 400 4 279 -3 124 -3 c 1
 124 146 l 1
 209 150 280 151 337 151 c 2
 412 151 l 1
 412 1151 l 1
 346 1150 234 1150 128 1144 c 1
 122 1298 l 1
EndSplineSet
Validated: 1
EndChar

StartChar: Kappa
Encoding: 922 922 365
Width: 1060
VWidth: 0
Flags: HW
HStem: -5 9G<106 264 835 893.263> 1288 20G<106 264 841.5 872.943>
VStem: 106 158<-5 508.713 703 1308>
LayerCount: 2
Fore
SplineSet
474 725 m 1
 594 608 941 194 992 59 c 1
 858 -17 l 1
 812 92 508 474 378 600 c 1
 378 600 294 502 264 431 c 1
 264 -5 l 1
 106 -5 l 1
 106 1308 l 1
 264 1308 l 1
 264 703 l 1
 344 814 415 893 514 996 c 1
 705 1191 831 1289 852 1310 c 1
 963 1204 l 1
 781 1072 534 798 474 725 c 1
EndSplineSet
Validated: 1
EndChar

StartChar: Mu
Encoding: 924 924 366
Width: 1060
VWidth: 31
Flags: HW
HStem: -5 21G<51.9542 210 720.957 878> 1293 20G<49 183.5 720.5 877.015>
VStem: 52 158<-5 900> 721 157<-5 920>
LayerCount: 2
Fore
SplineSet
49 1304 m 1
 150 1313 l 1
 217 1216 291 1060 360 938 c 0
 410 848 436 797 455 759 c 1
 538 914 680 1183 761 1313 c 1
 877 1313 l 1
 878 -5 l 1
 721 -5 l 1
 719 920 l 1
 645 779 528 575 517 539 c 1
 395 542 l 1
 387 558 329 668 241 837 c 1
 220 881 225 872 210 900 c 1
 210 -5 l 1
 52 -5 l 1
 49 1304 l 1
EndSplineSet
Validated: 1
EndChar

StartChar: Nu
Encoding: 925 925 367
Width: 1060
VWidth: 0
Flags: HW
HStem: -3 18G<65 224 660.5 901>
VStem: 65 158<-3 1001> 740 158<-5 92.9198 357 1297>
LayerCount: 2
Fore
SplineSet
742 -6 m 1
 579 351 425 648 223 1001 c 1
 223 797 l 2
 223 504 224 149 224 -3 c 1
 65 -3 l 1
 65 1298 l 1
 224 1294 l 1
 350 1110 626 605 743 357 c 1
 741 487 740 623 740 757 c 0
 740 943 743 1126 752 1297 c 1
 906 1297 l 1
 900 1184 898 1035 898 872 c 0
 898 646 902 392 902 162 c 0
 902 105 901 48 901 -5 c 1
 742 -6 l 1
EndSplineSet
Validated: 1
EndChar

StartChar: Omicron
Encoding: 927 927 368
Width: 1060
VWidth: 0
Flags: HW
HStem: -16 153<339.716 643.474> 1170 153<366.35 644.552>
VStem: 31 159<320.826 920.593> 804 158<350.765 944.703>
LayerCount: 2
Fore
SplineSet
512 1323 m 1
 636 1323 957 1249 962 632 c 1
 962 621 l 2
 962 457 918 304 870 211 c 0
 795 67 665 -16 500 -16 c 0
 378 -16 250 27 169 127 c 0
 79 237 31 389 31 569 c 0
 31 914 108 1063 178 1158 c 0
 244 1248 356 1320 512 1323 c 1
274 242 m 0
 323 177 392 137 500 137 c 0
 616 137 688 204 733 287 c 1
 773 351 803 517 804 624 c 1
 804 643 l 2
 804 758 786 911 733 1014 c 0
 675 1128 605 1170 517 1170 c 0
 422 1170 366 1142 308 1066 c 0
 239 977 190 835 190 573 c 0
 190 469 218 315 274 242 c 0
EndSplineSet
Validated: 1
EndChar

StartChar: Rho
Encoding: 929 929 369
Width: 1060
VWidth: 0
Flags: HW
HStem: -10 21G<94 252> -10 21G<94 252> 460 152<253 657.396> 1151 151<254 683.907>
VStem: 94 160<-9 463 613 1146> 805 162<736.562 1049.37>
LayerCount: 2
Fore
SplineSet
805 900 m 0x3c
 805 1108 651 1145 405 1151 c 1
 344 1151 299 1147 254 1146 c 1
 254 1020 l 2
 254 837 253 613 253 613 c 1
 289 612 323 612 356 612 c 0
 642 612 805 672 805 900 c 0x3c
252 -10 m 1xbc
 94 -9 l 1
 94 1294 l 1
 212 1294 250 1302 383 1302 c 0
 608 1302 779 1289 894 1151 c 0
 948 1086 967 996 967 906 c 0
 967 815 960 715 900 628 c 0
 802 488 645 460 406 460 c 0
 358 460 307 461 253 463 c 1
 253 200 252 146 252 -10 c 1xbc
EndSplineSet
Validated: 1
EndChar

StartChar: Tau
Encoding: 932 932 370
Width: 1060
VWidth: 0
Flags: HW
HStem: -9 21G<393 553> -9 21G<393 553> 1144 155<29 393 553 899.955>
VStem: 393 160<-9 1144>
LayerCount: 2
Fore
SplineSet
393 -9 m 1xb0
 393 1144 l 1
 195 1144 105 1143 29 1143 c 1
 29 1298 l 1
 151 1298 605 1299 793 1299 c 0
 866 1299 915 1287 933 1284 c 1
 900 1132 l 1
 900 1132 838 1144 788 1144 c 2
 553 1144 l 1
 553 -9 l 1
 393 -9 l 1xb0
EndSplineSet
Validated: 1
EndChar

StartChar: Upsilon
Encoding: 933 933 371
Width: 1060
VWidth: 0
Flags: HW
HStem: -6 21G<389 549> 1308 20G<123.563 183 799 853.19>
VStem: 389 160<-6 640.323>
LayerCount: 2
Fore
SplineSet
389 -6 m 1
 389 135 l 2
 389 225 396 482 396 601 c 1
 317 712 74 1151 23 1257 c 1
 163 1328 l 1
 203 1251 395 896 482 759 c 1
 580 898 780 1254 818 1341 c 1
 957 1262 l 1
 910 1168 837 1026 732 858 c 1
 645 727 575 616 556 590 c 1
 556 543 554 495 554 441 c 1
 551 309 549 167 549 125 c 2
 549 -6 l 1
 389 -6 l 1
EndSplineSet
Validated: 1
EndChar

StartChar: Chi
Encoding: 935 935 372
Width: 1060
VWidth: 0
Flags: HW
HStem: 1320 11G<111.118 203 772.207 815.529>
LayerCount: 2
Fore
SplineSet
784 1340 m 1
 918 1255 l 1
 558 657 l 1
 729 390 826 214 968 77 c 1
 864 -36 l 1
 712 111 620 266 468 508 c 1
 150 -31 l 1
 18 54 l 1
 370 654 l 1
 250 858 153 1082 13 1238 c 1
 138 1331 l 1
 268 1185 362 971 465 799 c 1
 784 1340 l 1
EndSplineSet
Validated: 1
EndChar

StartChar: Delta
Encoding: 916 916 373
Width: 1060
VWidth: 0
Flags: HW
HStem: -5 156<226 781>
LayerCount: 2
Fore
SplineSet
507 982 m 1
 413 698 316 438 226 151 c 1
 781 151 l 1
 700 444 598 699 507 982 c 1
824 0 m 1
 176 -5 l 1
 14 19 l 1
 451 1298 l 1
 563 1298 l 1
 988 30 l 1
 824 0 l 1
EndSplineSet
Validated: 1
EndChar

StartChar: Lambda
Encoding: 923 923 374
Width: 1060
VWidth: 0
Flags: HW
LayerCount: 2
Fore
SplineSet
823 -19 m 1
 713 318 615 651 507 982 c 1
 393 650 299 306 175 -24 c 1
 13 0 l 1
 451 1298 l 1
 563 1298 l 1
 987 11 l 1
 823 -19 l 1
EndSplineSet
Validated: 1
EndChar

StartChar: Xi
Encoding: 926 926 375
Width: 1060
VWidth: 0
Flags: HW
HStem: -3 150<92 888.956> 666 150<250 688> 1144 153<94 879>
LayerCount: 2
Fore
SplineSet
90 147 m 1
 772 149 l 2
 828 149 889 175 889 175 c 1
 933 27 l 1
 885 14 850 -3 774 -3 c 2
 92 -3 l 1
 90 147 l 1
92 1293 m 1
 148 1297 218 1297 296 1297 c 0
 327 1297 360 1297 394 1297 c 2
 504 1297 l 2
 653 1297 789 1294 863 1294 c 2
 879 1294 l 1
 879 1144 l 1
 94 1144 l 1
 92 1293 l 1
250 816 m 1
 688 816 l 1
 688 666 l 1
 250 666 l 1
 250 816 l 1
EndSplineSet
Validated: 1
EndChar

StartChar: Pi
Encoding: 928 928 376
Width: 1060
VWidth: 0
Flags: HW
HStem: -4 21G<762.5 926> 1144 152<291.493 743 902 990>
VStem: 129 161<0 1131> 743 159<14.4902 1144>
LayerCount: 2
Fore
SplineSet
290 0 m 1
 129 0 l 1
 129 1131 l 1
 100 1127 72 1122 42 1116 c 1
 23 1268 l 1
 115 1289 210 1296 330 1296 c 2
 990 1296 l 1
 990 1144 l 1
 902 1144 l 1
 902 378 l 2
 902 251 912 126 926 9 c 1
 772 -4 l 1
 753 117 743 255 743 384 c 2
 743 1144 l 1
 411 1144 l 2
 367 1144 327 1144 289 1143 c 1
 290 0 l 1
EndSplineSet
Validated: 1
EndChar

StartChar: Sigma
Encoding: 931 931 377
Width: 1060
VWidth: 0
Flags: HW
HStem: -3 150<255 888.956> 1144 153<311 879>
LayerCount: 2
Fore
SplineSet
311 1144 m 1
 735 752 l 1
 728 620 l 1
 255 147 l 1
 772 149 l 2
 828 149 889 175 889 175 c 1
 933 27 l 1
 885 14 850 -3 774 -3 c 2
 92 -3 l 1
 67 172 l 1
 584 687 l 1
 62 1170 l 1
 92 1293 l 1
 148 1297 218 1297 296 1297 c 0
 327 1297 360 1297 394 1297 c 2
 504 1297 l 2
 653 1297 789 1294 863 1294 c 2
 879 1294 l 1
 879 1144 l 1
 311 1144 l 1
EndSplineSet
Validated: 1
EndChar

StartChar: Phi
Encoding: 934 934 378
Width: 1060
VWidth: 0
Flags: HW
HStem: 170 165<295.498 405> 984 154<566 679.136> 1287 20G<406 566>
VStem: 31 159<442.682 827.234> 406 160<1 173.904 335 975 1131.33 1307> 804 158<464.347 841.499>
LayerCount: 2
Fore
SplineSet
405 335 m 1
 405 585 406 781 406 975 c 1
 370 965 339 947 308 921 c 0
 239 864 190 773 190 605 c 0
 190 538 218 441 274 394 c 0
 307 366 349 345 405 335 c 1
568 332 m 1
 645 345 698 380 733 422 c 1
 773 463 803 570 804 638 c 1
 804 650 l 2
 804 724 786 822 733 888 c 0
 686 947 631 975 566 984 c 1
 567 798 568 639 568 382 c 2
 568 332 l 1
406 170 m 1
 316 182 229 214 169 268 c 0
 79 348 31 460 31 591 c 0
 31 843 108 952 178 1021 c 0
 228 1071 304 1113 406 1131 c 1
 406 1158 406 1186 406 1214 c 2
 406 1307 l 1
 566 1307 l 1
 566 1162 l 1
 566 1138 l 1
 710 1122 958 1031 962 637 c 1
 962 629 l 2
 962 509 918 397 870 329 c 0
 806 239 701 182 568 168 c 1
 568 142 569 122 569 102 c 0
 569 74 568 46 566 0 c 1
 404 1 l 1
 406 32 406 49 406 64 c 0
 406 79 406 93 406 121 c 0
 406 136 406 152 406 170 c 1
EndSplineSet
Validated: 1
EndChar

StartChar: Psi
Encoding: 936 936 379
Width: 1060
VWidth: 6
Flags: HW
HStem: 403 159<338.496 448 613 740.397> 1302 8G<94.481 221.5 455 615 832 993>
VStem: 76 156<661.793 1291.96> 448 163<1 407.126 562 1310> 846 156<677.08 1298.04>
LayerCount: 2
Fore
SplineSet
76 770 m 0
 76 830 76 886 76 937 c 0
 76 1110 74 1231 53 1295 c 1
 213 1322 l 1
 230 1250 232 1138 232 963 c 0
 232 915 232 863 232 806 c 0
 232 656 331 582 450 562 c 1
 452 782 455 1021 455 1217 c 2
 455 1310 l 1
 615 1310 l 1
 615 1165 l 2
 615 984 615 773 613 561 c 1
 815 586 846 708 846 1028 c 1
 845 1120 841 1220 832 1298 c 1
 988 1315 l 1
 998 1233 1002 1132 1002 1066 c 0
 1002 1053 1002 1042 1002 1032 c 0
 1002 681 970 439 611 404 c 1
 609 264 607 127 604 0 c 1
 443 1 l 1
 447 63 448 220 448 275 c 0
 448 316 448 359 448 403 c 1
 193 426 76 586 76 770 c 0
EndSplineSet
Validated: 1
EndChar

StartChar: Omega
Encoding: 937 937 380
Width: 1060
VWidth: 0
Flags: HW
HStem: 1 150<26 191 353.544 384 785 980.956> 1170 153<345.293 686.908>
VStem: 8 159<417.563 946.374> 838 158<446.006 998.677>
LayerCount: 2
Fore
SplineSet
384 1 m 1
 26 1 l 1
 24 151 l 1
 191 151 l 1
 97 268 8 443 8 620 c 0
 8 965 80 1062 150 1157 c 0
 216 1247 340 1323 512 1323 c 0
 748 1323 996 1233 996 683 c 2
 996 672 l 2
 996 423 875 250 785 151 c 1
 864 152 l 2
 920 152 981 178 981 178 c 1
 1025 30 l 1
 978 17 944 0 872 0 c 0
 870 0 868 0 866 0 c 2
 598 0 l 1
 569 148 l 1
 642 209 838 383 838 675 c 2
 838 694 l 2
 838 706 838 717 838 729 c 0
 838 831 836 927 788 1020 c 0
 730 1134 605 1170 517 1170 c 0
 422 1170 338 1141 280 1065 c 0
 211 976 167 886 167 624 c 0
 167 413 330 185 411 152 c 1
 384 1 l 1
EndSplineSet
Validated: 1
EndChar

StartChar: tonos
Encoding: 900 900 381
Width: 1060
VWidth: -43
Flags: HW
HStem: 1222 464
VStem: 509 171<1544.67 1627.37>
LayerCount: 2
Fore
SplineSet
332 1311 m 1
 427 1428 470 1533 509 1686 c 1
 680 1622 l 1
 647 1468 564 1338 469 1222 c 1
 332 1311 l 1
EndSplineSet
Validated: 1
EndChar

StartChar: uni03D0
Encoding: 976 976 402
Width: 1060
VWidth: 0
Flags: HW
HStem: 0 153<372.08 673.535> 1176 152<316.166 536.727>
VStem: 59 158<355.459 652.156 799 1033.21> 591 153<885.75 1123.57> 780 154<256.862 551.414>
LayerCount: 2
Fore
SplineSet
59 736 m 0
 59 1156 218 1328 404 1328 c 0
 587 1328 744 1233 744 1011 c 0
 744 909 716 832 660 779 c 1
 837 730 934 598 934 381 c 0
 934 171 801 0 533 0 c 0
 115 0 59 332 59 736 c 0
218 799 m 1
 399 811 591 822 591 1005 c 0
 591 1118 515 1176 404 1176 c 0
 339 1176 232 1110 218 799 c 1
217 644 m 1
 224 382 272 153 533 153 c 0
 673 153 780 261 780 395 c 0
 780 591 642 668 439 668 c 0
 371 668 297 660 217 644 c 1
EndSplineSet
Validated: 1
EndChar

StartChar: theta1
Encoding: 977 977 403
Width: 1060
VWidth: 0
Flags: HW
HStem: -16 153<345.938 629.042> 591 151<313.054 799.976> 1170 153<366.726 639.237>
VStem: 31 159<335.307 590> 94 158<803.102 1057.71> 802 160<363.616 588.282 742 957.254>
LayerCount: 2
Fore
SplineSet
800 742 m 1xec
 792 837 772 939 733 1014 c 0
 675 1128 589 1170 517 1170 c 0
 439 1170 364 1143 304 1068 c 0
 256 1008 252 957 252 927 c 0
 256 769 366 748 478 748 c 0
 658 748 749 747 800 742 c 1xec
190 603 m 1xf4
 190 499 222 320 278 247 c 0
 327 182 392 137 500 137 c 0
 616 137 687 224 732 307 c 1
 767 363 795 483 802 584 c 1
 759 590 704 591 640 591 c 0
 589 591 532 590 470 590 c 0
 310 590 94 672 94 918 c 0xec
 94 990 107 1069 174 1160 c 0
 240 1250 370 1323 512 1323 c 0
 622 1323 962 1233 962 632 c 2
 962 621 l 2
 962 457 916 324 868 231 c 0
 793 87 665 -16 500 -16 c 0
 378 -16 253 32 172 132 c 0
 82 242 31 410 31 590 c 1
 190 603 l 1xf4
EndSplineSet
Validated: 1
EndChar

StartChar: Upsilon1
Encoding: 978 978 404
Width: 1060
VWidth: 4
Flags: HW
HStem: 1070 298<830 941.443>
VStem: 402 156<1 851.827> 830 157<1070 1211.41>
LayerCount: 2
Fore
SplineSet
472 1020 m 1
 535 1165 680 1368 813 1368 c 0
 980 1368 987 1258 987 1076 c 0
 987 1074 987 1072 987 1070 c 1
 830 1070 l 1
 826 1151 818 1200 811 1212 c 1
 793 1199 558 945 558 684 c 2
 558 0 l 1
 402 1 l 1
 402 683 l 2
 402 864 197 1166 -2 1215 c 1
 60 1376 l 1
 234 1328 418 1162 472 1020 c 1
EndSplineSet
Validated: 1
EndChar

StartChar: phi1
Encoding: 981 981 407
Width: 1060
VWidth: 6
Flags: HW
HStem: 5 159<336.152 425> 865 163<342.978 417 579 662.718> 1330 20G<416 576>
VStem: 82 158<269.449 734.922> 416 160<-336.108 13.8553 170 865 1019.26 1350> 753 159<277.081 760.228>
LayerCount: 2
Fore
SplineSet
588 9 m 1
 588 -68 l 2
 588 -183 587 -239 582 -340 c 1
 421 -339 l 1
 425 -277 426 -234 426 -179 c 0
 426 -133 425 -78 425 5 c 1
 197 34 82 208 82 464 c 0
 82 735 170 993 417 1028 c 1
 416 1115 416 1194 416 1257 c 2
 416 1350 l 1
 576 1350 l 1
 576 1205 l 2
 576 1152 576 1092 577 1025 c 1
 712 1004 796 938 853 831 c 0
 894 752 912 639 912 543 c 0
 912 288 835 55 588 9 c 1
425 164 m 1
 424 380 421 638 419 865 c 1
 284 821 240 673 240 469 c 0
 240 303 303 193 425 164 c 1
664 215 m 1
 729 276 753 382 753 530 c 0
 753 536 753 542 753 548 c 0
 751 706 704 835 579 869 c 1
 582 642 587 382 588 170 c 1
 615 179 639 194 664 215 c 1
EndSplineSet
Validated: 1
EndChar

StartChar: omega1
Encoding: 982 982 408
Width: 1060
VWidth: 6
Flags: HW
HStem: -10 155<217.366 366.525 610.099 766.103> 868 154<10 97 255.238 720.012 879 953>
VStem: 5 162<200.065 730.861> 406 155<195.231 684> 812 157<189.339 716.729>
LayerCount: 2
Fore
SplineSet
8 1018 m 1
 64 1022 134 1022 212 1022 c 0
 243 1022 276 1022 310 1022 c 2
 420 1022 l 2
 569 1022 863 1018 937 1018 c 2
 953 1018 l 1
 953 868 l 1
 879 868 l 1
 944 715 969 554 969 441 c 0
 969 218 916 -12 671 -12 c 0
 596 -12 529 33 482 104 c 1
 432 34 363 -10 287 -10 c 0
 61 -10 5 220 5 444 c 0
 5 577 32 722 97 868 c 1
 10 868 l 1
 8 1018 l 1
404 684 m 1
 563 703 l 1
 561 618 562 524 561 431 c 1
 562 423 562 414 562 405 c 0
 564 224 614 144 695 144 c 0
 784 144 812 270 812 420 c 0
 812 610 768 747 698 868 c 1
 279 868 l 1
 213 759 167 649 167 468 c 0
 167 299 200 145 280 145 c 0
 350 145 395 196 408 321 c 1
 407 337 406 352 406 368 c 0
 405 474 406 584 404 684 c 1
EndSplineSet
Validated: 1
EndChar

StartChar: uni03D7
Encoding: 983 983 409
Width: 1060
VWidth: 0
Flags: HW
HStem: -345 150<603 791.834> 0 156<674.258 827.742> 863 157<159.125 302.035>
VStem: 319 158<572.649 852.815> 501 158<166.255 447.636> 860 130<-121.514 65 183.895 191>
LayerCount: 2
Fore
SplineSet
-12 828 m 1
 -12 828 92 1020 239 1020 c 0
 359 1020 477 920 477 740 c 0
 477 715 462 616 440 570 c 1
 487 604 550 658 613 709 c 1
 630 724 l 1
 692 878 739 1018 886 1018 c 0
 950 1018 974 969 974 902 c 0
 974 792 843 668 741 588 c 1
 712 511 659 377 659 287 c 0
 659 194 691 156 743 156 c 0
 795 156 825 180 849 240 c 1
 990 191 l 1
 990 169 l 2
 990 -122 985 -345 603 -345 c 1
 603 -195 l 1
 806 -195 860 -127 860 55 c 0
 860 58 860 62 860 65 c 1
 812 30 754 0 697 0 c 0
 601 0 501 99 501 279 c 0
 501 304 516 404 538 450 c 1
 491 416 426 360 363 309 c 1
 348 296 l 1
 286 142 239 1 92 1 c 0
 28 1 5 51 5 118 c 0
 5 249 139 354 241 434 c 1
 270 511 319 642 319 732 c 0
 319 825 287 863 235 863 c 0
 183 863 132 789 76 734 c 1
 -12 828 l 1
EndSplineSet
Validated: 1
EndChar

StartChar: uni03CF
Encoding: 975 975 410
Width: 1060
VWidth: 0
Flags: HW
HStem: -345 134<623 777.024> -5 21G<106 264> 1288 20G<106 264 841.5 872.943>
VStem: 106 158<-5 508.713 703 1308>
LayerCount: 2
Fore
SplineSet
858 -17 m 1
 812 92 508 474 378 600 c 1
 378 600 294 502 264 431 c 1
 264 -5 l 1
 106 -5 l 1
 106 1308 l 1
 264 1308 l 1
 264 703 l 1
 344 814 415 893 514 996 c 1
 705 1191 831 1289 852 1310 c 1
 963 1204 l 1
 781 1072 534 798 474 725 c 1
 594 608 941 194 992 59 c 1
 988 -166 947 -345 623 -345 c 1
 623 -211 l 1
 785 -211 845 -133 858 -17 c 1
EndSplineSet
Validated: 1
EndChar

StartChar: uni03D8
Encoding: 984 984 411
Width: 1060
VWidth: 0
Flags: HW
HStem: -315 452<417.707 583.443> 1170 153<366.35 644.552>
VStem: 31 159<320.826 920.593> 416 171<-315 0.137573> 804 158<350.765 944.703>
LayerCount: 2
Fore
SplineSet
512 1323 m 1
 636 1323 957 1249 962 632 c 1
 962 621 l 2
 962 457 918 304 870 211 c 0
 809 93 711 16 587 -8 c 1
 587 -315 l 1
 416 -315 l 1
 416 -9 l 1
 322 7 231 50 169 127 c 0
 79 237 31 389 31 569 c 0
 31 914 108 1063 178 1158 c 0
 244 1248 356 1320 512 1323 c 1
274 242 m 0
 323 177 392 137 500 137 c 0
 616 137 688 204 733 287 c 1
 773 351 803 517 804 624 c 1
 804 643 l 2
 804 758 786 911 733 1014 c 0
 675 1128 605 1170 517 1170 c 0
 422 1170 366 1142 308 1066 c 0
 239 977 190 835 190 573 c 0
 190 469 218 315 274 242 c 0
EndSplineSet
Validated: 1
EndChar

StartChar: uni03D9
Encoding: 985 985 412
Width: 1060
VWidth: 6
Flags: HW
HStem: 8 148<306.609 364 535 602.694> 878 154<322.497 609.881>
VStem: 42 158<273.254 736.885> 364 171<-315 13.8993> 713 159<279.969 758.636>
LayerCount: 2
Fore
SplineSet
364 8 m 1
 150 45 42 216 42 464 c 0
 42 756 144 1032 436 1032 c 0
 633 1032 743 963 813 831 c 0
 854 752 872 639 872 543 c 0
 872 283 792 47 535 7 c 1
 535 -315 l 1
 364 -315 l 1
 364 8 l 1
624 215 m 1
 689 276 713 382 713 530 c 0
 713 536 713 542 713 548 c 0
 711 732 647 878 470 878 c 0
 262 878 200 713 200 469 c 0
 200 274 287 156 454 156 c 1
 530 157 574 173 624 215 c 1
EndSplineSet
Validated: 1
EndChar

StartChar: uni03DB
Encoding: 987 987 413
Width: 1060
VWidth: 4
Flags: HW
HStem: -351 152<508 635.011> 865 153<324.078 964>
VStem: 41 159<258.222 736.59> 666 156<-166.09 -48.8317>
LayerCount: 2
Fore
SplineSet
200 527 m 0
 200 150 348 155 414 150 c 0
 676 129 822 79 822 -95 c 0
 822 -191 772 -343 508 -351 c 1
 486 -199 l 1
 600 -185 666 -168 666 -99 c 0
 666 -33 503 -16 418 -7 c 0
 110 24 41 187 41 527 c 0
 41 894 219 1018 534 1018 c 0
 640 1018 721 1017 797 1017 c 0
 854 1017 907 1017 964 1020 c 1
 967 855 l 1
 925 859 683 865 523 865 c 0
 302 865 200 766 200 527 c 0
EndSplineSet
Validated: 1
EndChar

StartChar: uni03DA
Encoding: 986 986 414
Width: 1060
VWidth: 4
Flags: HW
HStem: -351 152<528 655.011> 1168 153<375.971 975>
VStem: 61 159<313.558 991.449> 686 156<-166.09 -49.6481>
LayerCount: 2
Fore
SplineSet
220 700 m 0
 220 323 284 181 434 150 c 0
 691 97 842 79 842 -95 c 0
 842 -191 792 -343 528 -351 c 1
 506 -199 l 1
 620 -185 686 -168 686 -99 c 0
 686 -33 522 -20 438 -7 c 0
 74 49 61 360 61 700 c 0
 61 1067 176 1321 544 1321 c 0
 650 1321 732 1320 808 1320 c 0
 865 1320 918 1320 975 1323 c 1
 978 1157 l 1
 936 1161 693 1168 533 1168 c 0
 272 1168 220 939 220 700 c 0
EndSplineSet
Validated: 1
EndChar

StartChar: uni03DC
Encoding: 988 988 415
Width: 1060
VWidth: 0
Flags: HW
HStem: 668 150<262 699.255> 1145 153<262 892.784>
VStem: 106 156<3 665 815 1143>
LayerCount: 2
Fore
SplineSet
267 -1 m 1
 106 3 l 1
 106 1298 l 1
 791 1298 l 1
 868 1295 916 1280 950 1263 c 1
 894 1117 l 1
 868 1131 846 1144 748 1145 c 1
 678 1145 l 2
 574 1145 445 1144 262 1143 c 1
 262 815 l 1
 382 815 449 818 571 818 c 0
 659 818 718 804 719 804 c 2
 737 799 l 1
 701 654 l 1
 664 663 613 668 568 668 c 0
 462 668 370 668 262 665 c 1
 262 544 267 92 267 -1 c 1
EndSplineSet
Validated: 1
EndChar

StartChar: uni03DD
Encoding: 989 989 416
Width: 1060
VWidth: -2
Flags: HW
HStem: -308 146<19.4088 250.364> 859 154<508 838.016> 1266 152<544.521 857.522>
VStem: 354 157<-49.4677 859 1013 1231.57>
LayerCount: 2
Fore
SplineSet
354 152 m 0
 354 275 350 857 350 1064 c 0
 350 1207 379 1418 656 1418 c 0
 673 1418 688 1418 702 1418 c 0
 820 1418 837 1413 977 1321 c 1
 906 1191 l 1
 814 1251 796 1266 664 1266 c 0
 517 1266 508 1168 508 1060 c 2
 508 1013 l 1
 576 1013 634 1012 707 1012 c 1
 811 1009 838 1001 868 992 c 1
 839 846 l 1
 818 853 797 859 741 859 c 2
 508 859 l 1
 509 705 511 156 511 152 c 0
 511 -84 445 -308 106 -308 c 0
 76 -308 44 -307 10 -303 c 1
 20 -156 l 1
 48 -160 74 -162 98 -162 c 0
 306 -162 354 -6 354 152 c 0
EndSplineSet
Validated: 1
EndChar

StartChar: uni0190
Encoding: 400 400 417
Width: 1060
VWidth: 0
Flags: HW
HStem: 0 168<350.967 770.391> 715 165<383.202 659> 1247 167<382.406 822.372>
VStem: 58 165<282.484 591.465> 120 165<963.971 1167.87>
LayerCount: 2
Fore
SplineSet
1024 175 m 1xf0
 949 117 817 0 546 0 c 0
 355 0 256 38 171 116 c 0
 74 206 58 315 58 425 c 0xf0
 58 619 126 757 286 796 c 1
 168 835 120 956 120 1074 c 0
 120 1287 279 1414 583 1414 c 2
 596 1414 l 2
 841 1414 936 1347 1014 1302 c 1
 930 1150 l 1
 854 1196 737 1247 585 1247 c 0
 411 1247 285 1180 285 1074 c 0xe8
 285 894 518 880 635 880 c 2
 640 880 l 1
 659 880 l 1
 659 714 l 1
 632 714 604 715 577 715 c 0
 511 715 446 711 368 680 c 0
 251 635 223 496 223 423 c 0
 223 263 357 168 547 168 c 0
 748 168 864 260 918 310 c 1
 1024 175 l 1xf0
EndSplineSet
Validated: 1
EndChar

StartChar: uni0228
Encoding: 552 552 473
Width: 1060
VWidth: 0
Flags: HW
HStem: -403 125<407.445 612.66> -3 164<261 452 598 934.953> 726 164<264 724> 1247 167<264 924>
VStem: 98 166<161 726 890 1247> 452 145<-70.4613 -3> 616 136<-271.217 -172.936>
LayerCount: 2
Fore
SplineSet
98 1409 m 1
 157 1413 230 1414 312 1414 c 0
 345 1414 379 1414 415 1414 c 2
 531 1414 l 2
 687 1414 830 1410 908 1410 c 2
 924 1410 l 1
 924 1247 l 1
 264 1247 l 1
 264 890 l 1
 724 890 l 1
 724 726 l 1
 264 726 l 1
 264 693 l 2
 264 472 261 245 261 161 c 1
 812 162 l 2
 871 162 935 191 935 191 c 1
 981 29 l 1
 931 15 894 -3 814 -3 c 2
 598 -3 l 1
 598 -24 597 -62 597 -64 c 1
 694 -69 752 -131 752 -235 c 0
 752 -336 652 -403 568 -403 c 0
 502 -403 430 -378 374 -342 c 1
 412 -236 l 1
 445 -254 485 -278 536 -278 c 0
 572 -278 613 -258 616 -220 c 1
 616 -218 l 2
 616 -189 578 -164 530 -164 c 0
 482 -164 480 -171 452 -181 c 1
 452 -3 l 1
 98 -3 l 1
 98 1409 l 1
EndSplineSet
Validated: 1
EndChar

StartChar: uni0229
Encoding: 553 553 474
Width: 1060
VWidth: 0
Flags: HW
HStem: -410 125<393.445 598.66> -5 148<358.888 438 584 687.409> 460 150<450.379 774> 869 152<371.998 661.11>
VStem: 88 158<258.732 429.895 580 738.031> 438 145<-77.4613 -1.32291> 602 136<-278.217 -179.936> 774 159<611 749.303>
LayerCount: 2
Fore
SplineSet
519 1021 m 0
 896 1021 933 641 933 503 c 0
 933 483 933 468 932 460 c 1
 647 456 411 439 246 427 c 1
 246 274 329 143 515 143 c 0
 672 143 760 230 795 286 c 1
 916 183 l 1
 904 163 811 20 584 -6 c 1
 583 -26 583 -69 583 -71 c 1
 680 -76 738 -138 738 -242 c 0
 738 -343 638 -410 554 -410 c 0
 488 -410 416 -385 360 -349 c 1
 398 -243 l 1
 431 -261 471 -285 522 -285 c 0
 558 -285 599 -265 602 -227 c 1
 602 -225 l 2
 602 -196 564 -171 516 -171 c 0
 468 -171 466 -178 438 -188 c 1
 438 -5 l 1
 202 29 88 231 88 516 c 0
 88 802 236 1021 519 1021 c 0
246 580 m 1
 354 591 596 606 739 610 c 2
 774 611 l 1
 768 767 656 869 520 869 c 0
 350 869 247 734 246 580 c 1
EndSplineSet
Validated: 1
EndChar

StartChar: uni0311
Encoding: 785 785 483
Width: 1060
VWidth: -12
Flags: HW
HStem: 1360 21G<226 343.5 723 836.667> 1510 153<388.698 668.547>
VStem: 174 156<1387.24 1448.72> 726 166<1396.41 1453.85>
LayerCount: 2
Fore
SplineSet
530 1510 m 0
 437 1510 357 1477 330 1360 c 1
 174 1390 l 1
 222 1615 404 1663 530 1663 c 0
 695 1663 868 1576 892 1399 c 1
 726 1369 l 1
 720 1447 638 1510 530 1510 c 0
EndSplineSet
Validated: 1
EndChar

StartChar: uni0312
Encoding: 786 786 485
Width: 1060
VWidth: -43
Flags: HW
HStem: 1235 420
VStem: 406 152<1502.25 1624.21>
LayerCount: 2
Fore
SplineSet
297 1283 m 1
 335 1395 361 1504 406 1655 c 1
 558 1621 l 1
 540 1479 512 1338 491 1235 c 1
 297 1283 l 1
EndSplineSet
Validated: 1
EndChar

StartChar: uni0313
Encoding: 787 787 486
Width: 1060
VWidth: 26
Flags: HW
HStem: 1099 498
VStem: 448 220<1376 1597> 505 163<1250.63 1376>
LayerCount: 2
Fore
SplineSet
448 1597 m 1xc0
 668 1597 l 1
 668 1382 l 2xc0
 668 1231 601 1155 472 1099 c 1
 419 1226 l 1
 479 1254 505 1277 505 1376 c 1xa0
 448 1376 l 1
 448 1597 l 1xc0
EndSplineSet
Validated: 1
EndChar

StartChar: uni0314
Encoding: 788 788 487
Width: 1060
VWidth: 26
Flags: HW
HStem: 1099 498
VStem: 431 220<1376 1597> 431 163<1250.63 1376>
LayerCount: 2
Fore
SplineSet
651 1597 m 1xc0
 651 1376 l 1xc0
 594 1376 l 1xa0
 594 1277 620 1254 680 1226 c 1
 627 1099 l 1
 498 1155 431 1231 431 1382 c 2
 431 1597 l 1
 651 1597 l 1xc0
EndSplineSet
Validated: 1
EndChar

StartChar: ogonek
Encoding: 731 731 502
Width: 1060
VWidth: 12
Flags: HW
HStem: -358 111<523.429 726.172>
VStem: 380 136<-234.728 -74.4377>
LayerCount: 2
Fore
SplineSet
504 56 m 1
 670 59 l 1
 612 -36 516 -89 516 -173 c 2
 516 -175 l 2
 516 -218 562 -247 606 -247 c 0
 664 -247 712 -233 745 -215 c 1
 779 -282 l 1
 723 -318 655 -358 564 -358 c 0
 480 -358 380 -291 380 -190 c 0
 380 -61 440 -13 504 56 c 1
EndSplineSet
Validated: 1
EndChar

StartChar: uni01EA
Encoding: 490 490 505
Width: 1060
VWidth: 0
Flags: HW
HStem: -421 111<463.429 665.318> 1275 167<392.109 676.308>
VStem: 34 167<352.638 994.501> 320 136<-297.728 -137.969> 846 166<389.013 1008.4>
LayerCount: 2
Fore
SplineSet
539 1442 m 1
 669 1442 1007 1362 1012 689 c 1
 1012 677 l 2
 1012 498 965 331 915 230 c 0
 849 98 741 12 605 -11 c 1
 547 -101 456 -154 456 -236 c 2
 456 -238 l 2
 456 -281 502 -310 546 -310 c 0
 604 -310 651 -296 684 -278 c 1
 718 -345 l 1
 662 -381 595 -421 504 -421 c 0
 420 -421 320 -354 320 -253 c 0
 320 -126 377 -77 440 -10 c 1
 341 7 245 53 179 138 c 0
 85 258 34 424 34 620 c 0
 34 996 114 1158 188 1262 c 0
 257 1360 375 1439 539 1442 c 1
289 264 m 1
 340 193 413 149 526 149 c 0
 648 149 724 223 771 313 c 1
 813 383 845 563 846 680 c 1
 846 701 l 2
 846 826 827 993 771 1105 c 0
 710 1229 636 1275 544 1275 c 0
 444 1275 386 1245 325 1162 c 0
 253 1065 201 911 201 625 c 0
 201 512 230 344 289 264 c 1
EndSplineSet
Validated: 1
EndChar

StartChar: uni01EB
Encoding: 491 491 506
Width: 1060
VWidth: 0
Flags: HW
HStem: -402 111<429.429 632.172> 878 154<362.497 649.881>
VStem: 82 158<272.95 736.885> 286 136<-278.728 -119.285> 753 159<278.736 758.636>
LayerCount: 2
Fore
SplineSet
571 6 m 1
 513 -84 422 -136 422 -217 c 2
 422 -219 l 2
 422 -262 468 -291 512 -291 c 0
 570 -291 618 -277 651 -259 c 1
 685 -326 l 1
 629 -362 561 -402 470 -402 c 0
 386 -402 286 -335 286 -234 c 0
 286 -107 343 -59 406 8 c 1
 191 44 82 215 82 464 c 0
 82 756 184 1032 476 1032 c 0
 673 1032 783 963 853 831 c 0
 894 752 912 639 912 543 c 0
 912 282 832 44 571 6 c 1
664 215 m 1
 729 276 753 382 753 530 c 0
 753 536 753 542 753 548 c 0
 751 732 687 878 510 878 c 0
 302 878 240 713 240 469 c 0
 240 274 327 156 494 156 c 1
 570 157 614 173 664 215 c 1
EndSplineSet
Validated: 1
EndChar

StartChar: uni0326
Encoding: 806 806 509
Width: 1060
VWidth: 26
Flags: HW
HStem: -494 498
VStem: 450 220<-217 4> 506 164<-342.366 -217>
LayerCount: 2
Fore
SplineSet
450 4 m 1xc0
 670 4 l 1
 670 -211 l 2xc0
 670 -362 603 -438 474 -494 c 1
 420 -367 l 1
 480 -339 506 -316 506 -217 c 1xa0
 450 -217 l 1
 450 4 l 1xc0
EndSplineSet
Validated: 1
EndChar

StartChar: Hbar
Encoding: 294 294 512
Width: 1060
VWidth: 0
Flags: HW
HStem: 681 166<226.831 783> 1119 162<-30 54 222 782 949 1054> 1393 15G<54 222 782 949>
VStem: 54 168<0 659.026 816 1119 1281 1410> 783 166<0 681 847 1119 1281 1408>
LayerCount: 2
Fore
SplineSet
783 1119 m 1
 222 1119 l 1
 222 1014 221 921 221 816 c 1
 318 839 417 847 543 847 c 2
 783 847 l 1
 783 971 783 1047 783 1119 c 1
54 1281 m 1
 54 1410 l 1
 222 1413 l 1
 222 1281 l 1
 782 1281 l 1
 782 1321 782 1361 782 1408 c 1
 949 1408 l 1
 949 1281 l 1
 1054 1281 l 1
 1054 1119 l 1
 949 1119 l 1
 949 0 l 1
 783 0 l 1
 783 681 l 1
 738 681 692 681 647 681 c 0
 494 681 345 678 221 651 c 1
 221 277 223 197 223 0 c 1
 54 0 l 1
 54 1119 l 1
 -30 1119 l 1
 -30 1281 l 1
 54 1281 l 1
EndSplineSet
Validated: 1
EndChar

StartChar: hbar
Encoding: 295 295 513
Width: 1060
VWidth: -2
Flags: HW
HStem: -4 21G<88 248.5 842 897.043> 858 153<341.877 674.129> 1122 158<1 100 259 613> 1382 20G<100 258>
VStem: 100 158<4 785.233 940 1122 1280 1401> 728 157<130.048 802.125>
LayerCount: 2
Fore
SplineSet
728 576 m 2
 728 803 692 858 491 858 c 0
 390 858 289 793 258 731 c 1
 258 198 l 2
 258 119 251 42 246 -4 c 1
 88 4 l 1
 96 76 101 127 101 204 c 0
 101 505 100 874 100 1122 c 1
 1 1122 l 1
 1 1280 l 1
 100 1280 l 1
 100 1401 l 1
 258 1402 l 1
 258 1280 l 1
 613 1280 l 1
 613 1122 l 1
 259 1122 l 1
 259 1061 259 1001 259 940 c 1
 324 981 396 1011 498 1011 c 0
 619 1011 729 1011 808 915 c 1
 880 830 885 752 885 642 c 2
 885 576 l 2
 885 412 884 335 884 223 c 0
 884 168 910 139 970 100 c 1
 882 -17 l 1
 802 28 728 81 728 208 c 2
 728 576 l 2
EndSplineSet
Validated: 1
EndChar

StartChar: Lslash
Encoding: 321 321 514
Width: 1060
VWidth: 0
Flags: HW
HStem: -3 168<378 979.863> 1395 20G<209 378>
VStem: 209 169<165 562 850 1415>
LayerCount: 2
Fore
SplineSet
378 850 m 1
 665 1015 l 1
 747 872 l 1
 378 660 l 1
 378 165 l 1
 855 165 l 1
 917 168 936 173 982 189 c 1
 1025 29 l 1
 976 12 936 -3 857 -3 c 2
 209 -3 l 1
 209 562 l 1
 63 479 l 1
 -19 622 l 1
 209 753 l 1
 209 1415 l 1
 378 1415 l 1
 378 850 l 1
EndSplineSet
Validated: 1
EndChar

StartChar: lslash
Encoding: 322 322 515
Width: 1060
VWidth: -2
Flags: HW
HStem: -16 142<538.434 901.467> 1273 155<113.466 366>
VStem: 369 160<135.613 587 869 1273>
LayerCount: 2
Fore
SplineSet
406 1428 m 2
 526 1428 l 1
 526 1317 526 1094 527 869 c 1
 782 1015 l 1
 864 872 l 1
 528 679 l 1
 529 426 529 212 529 212 c 0
 534 130 574 126 666 126 c 0
 759 126 883 147 952 199 c 1
 1020 85 l 1
 934 14 791 -16 667 -16 c 0
 582 -16 506 -2 462 22 c 0
 377 69 369 149 369 208 c 2
 368 587 l 1
 180 479 l 1
 98 622 l 1
 367 777 l 1
 366 1273 l 1
 317 1273 204 1266 109 1244 c 1
 81 1387 l 1
 193 1413 302 1428 406 1428 c 2
EndSplineSet
Validated: 1
EndChar

StartChar: uni2016
Encoding: 8214 8214 522
Width: 1060
VWidth: 66
Flags: HW
VStem: 243 162<-194.108 1492> 684 162<-194.108 1492>
LayerCount: 2
Fore
SplineSet
242 152 m 0
 242 517 233 1111 233 1399 c 2
 233 1492 l 1
 393 1492 l 1
 393 1347 l 2
 393 1070 405 558 405 224 c 2
 405 74 l 2
 405 -41 404 -97 399 -198 c 1
 238 -197 l 1
 242 -135 243 -92 243 -37 c 0
 243 10 242 66 242 152 c 0
683 152 m 0
 683 517 674 1111 674 1399 c 2
 674 1492 l 1
 834 1492 l 1
 834 1347 l 2
 834 1070 846 558 846 224 c 2
 846 74 l 2
 846 -41 845 -97 840 -198 c 1
 679 -197 l 1
 683 -135 684 -92 684 -37 c 0
 684 10 683 66 683 152 c 0
EndSplineSet
Validated: 1
EndChar

StartChar: underscoredbl
Encoding: 8215 8215 523
Width: 1060
VWidth: 41
Flags: HW
HStem: -509 152<56 1002> -236 152<56 1002>
LayerCount: 2
Fore
SplineSet
56 -84 m 1
 1002 -84 l 1
 1002 -236 l 1
 52 -236 l 1
 56 -84 l 1
56 -357 m 1
 1002 -357 l 1
 1002 -509 l 1
 52 -509 l 1
 56 -357 l 1
EndSplineSet
Validated: 1
EndChar

StartChar: quoteleft
Encoding: 8216 8216 524
Width: 1060
VWidth: -25
Flags: HW
HStem: 846 651
VStem: 300 253<877.13 1034.19>
LayerCount: 2
Fore
SplineSet
553 846 m 1
 300 879 l 1
 336 1178 518 1388 647 1497 c 1
 783 1357 l 1
 716 1300 577 1074 553 846 c 1
EndSplineSet
Validated: 1
EndChar

StartChar: quoteright
Encoding: 8217 8217 525
Width: 1060
VWidth: -25
Flags: HW
HStem: 816 651
VStem: 562 253<1278.81 1435.87>
LayerCount: 2
Fore
SplineSet
562 1467 m 1
 815 1434 l 1
 779 1135 597 925 468 816 c 1
 332 956 l 1
 399 1013 538 1239 562 1467 c 1
EndSplineSet
Validated: 1
EndChar

StartChar: quotesinglbase
Encoding: 8218 8218 526
Width: 1060
VWidth: -25
Flags: HW
HStem: -328 651
VStem: 481 253<134.815 291.87>
LayerCount: 2
Fore
SplineSet
481 323 m 1
 734 290 l 1
 698 -9 516 -219 387 -328 c 1
 251 -188 l 1
 318 -131 457 95 481 323 c 1
EndSplineSet
Validated: 1
EndChar

StartChar: quotereversed
Encoding: 8219 8219 527
Width: 1060
VWidth: -25
Flags: HW
HStem: 816 651
VStem: 370 253<1278.81 1435.87>
LayerCount: 2
Fore
SplineSet
623 1467 m 1
 647 1239 787 1013 854 956 c 1
 718 816 l 1
 589 925 406 1135 370 1434 c 1
 623 1467 l 1
EndSplineSet
Validated: 1
EndChar

StartChar: quotedblleft
Encoding: 8220 8220 528
Width: 1060
VWidth: -25
Flags: HW
HStem: 911 654
VStem: 152 206<947.286 1112.65> 512 206<945.286 1110.65>
LayerCount: 2
Fore
SplineSet
374 1010 m 0
 366 976 362 944 358 911 c 1
 152 950 l 1
 156 991 161 1026 171 1068 c 0
 236 1328 307 1458 423 1565 c 1
 550 1442 l 1
 496 1391 425 1215 374 1010 c 0
734 1008 m 0
 726 974 722 942 718 909 c 1
 512 948 l 1
 516 989 521 1024 531 1066 c 0
 596 1326 667 1456 783 1563 c 1
 910 1440 l 1
 856 1389 785 1213 734 1008 c 0
EndSplineSet
Validated: 1
EndChar

StartChar: quotedblright
Encoding: 8221 8221 529
Width: 1060
VWidth: -25
Flags: HW
HStem: 830 654
VStem: 340 206<1293.28 1449.71> 700 206<1291.28 1446.78>
LayerCount: 2
Fore
SplineSet
683 1384 m 0
 691 1418 696 1451 700 1484 c 1
 906 1444 l 1
 902 1403 896 1369 886 1327 c 0
 821 1067 750 937 634 830 c 1
 507 952 l 1
 561 1003 632 1179 683 1384 c 0
323 1387 m 0
 331 1421 336 1453 340 1486 c 1
 546 1447 l 1
 542 1406 536 1371 526 1329 c 0
 461 1069 390 939 274 832 c 1
 147 955 l 1
 201 1006 272 1182 323 1387 c 0
EndSplineSet
Validated: 1
EndChar

StartChar: quotedblbase
Encoding: 8222 8222 530
Width: 1060
VWidth: -25
Flags: HW
HStem: -335 654
VStem: 340 206<128.283 284.714> 700 206<126.283 282.714>
LayerCount: 2
Fore
SplineSet
683 220 m 0
 691 254 696 286 700 319 c 1
 906 280 l 1
 902 239 896 204 886 162 c 0
 821 -98 750 -228 634 -335 c 1
 507 -212 l 1
 561 -161 632 15 683 220 c 0
323 222 m 0
 331 256 336 288 340 321 c 1
 546 282 l 1
 542 241 536 206 526 164 c 0
 461 -96 390 -226 274 -333 c 1
 147 -210 l 1
 201 -159 272 17 323 222 c 0
EndSplineSet
Validated: 1
EndChar

StartChar: uni201F
Encoding: 8223 8223 531
Width: 1060
VWidth: -25
Flags: HW
HStem: 830 653
VStem: 213 206<1281.35 1446.71> 573 206<1284.35 1449.71>
LayerCount: 2
Fore
SplineSet
435 1384 m 0
 486 1179 558 1003 612 952 c 1
 484 830 l 1
 368 937 297 1067 232 1327 c 0
 222 1369 217 1403 213 1444 c 1
 419 1483 l 1
 423 1450 427 1418 435 1384 c 0
795 1387 m 0
 846 1182 917 1006 971 955 c 1
 844 832 l 1
 728 939 657 1069 592 1329 c 0
 582 1371 577 1406 573 1447 c 1
 779 1486 l 1
 783 1453 787 1421 795 1387 c 0
EndSplineSet
Validated: 1
EndChar

StartChar: daggerdbl
Encoding: 8225 8225 532
Width: 1060
VWidth: 6
Flags: HW
HStem: 194 163<60 399 563 905> 1008 162<64.3538 392 554 905>
VStem: 391 160<-194.108 192 357 1008 1172 1492>
LayerCount: 2
Fore
SplineSet
563 192 m 1
 563 74 l 2
 563 -41 562 -97 557 -198 c 1
 396 -197 l 1
 400 -135 401 -92 401 -37 c 0
 401 10 400 66 400 152 c 0
 400 165 400 179 400 193 c 1
 351 193 303 194 252 194 c 0
 192 194 129 193 60 189 c 1
 60 349 l 1
 189 356 294 357 399 357 c 1
 398 562 396 799 394 1008 c 1
 301 1008 195 1014 55 1023 c 1
 55 1076 55 1130 58 1181 c 1
 194 1172 301 1170 392 1170 c 1
 391 1257 391 1336 391 1399 c 2
 391 1492 l 1
 551 1492 l 1
 551 1347 l 2
 551 1296 551 1237 552 1172 c 1
 666 1175 763 1179 905 1179 c 1
 905 1020 l 1
 766 1020 670 1013 554 1010 c 1
 557 799 561 559 562 356 c 1
 679 354 784 349 907 349 c 1
 905 188 l 1
 784 188 678 191 563 192 c 1
EndSplineSet
Validated: 1
EndChar

StartChar: bullet
Encoding: 8226 8226 533
Width: 1060
VWidth: 0
Flags: HW
HStem: 237 552<357.429 654.571>
VStem: 230 552<364.429 661.571>
LayerCount: 2
Fore
SplineSet
230 513 m 0
 230 665 354 789 506 789 c 0
 658 789 782 665 782 513 c 0
 782 361 658 237 506 237 c 0
 354 237 230 361 230 513 c 0
EndSplineSet
Validated: 1
EndChar

StartChar: uni2023
Encoding: 8227 8227 534
Width: 1060
VWidth: 0
Flags: HW
HStem: 190 667
VStem: 198 608<476 542>
LayerCount: 2
Fore
SplineSet
226 857 m 1
 806 542 l 1
 806 476 l 1
 230 190 l 1
 198 278 l 1
 198 781 l 1
 226 857 l 1
EndSplineSet
Validated: 1
EndChar

StartChar: dagger
Encoding: 8224 8224 539
Width: 1060
VWidth: 6
Flags: HW
HStem: 1023 158<58 389.631 554 905>
VStem: 401 162<-194.108 1008 1172 1492>
LayerCount: 2
Fore
SplineSet
552 1172 m 1
 666 1175 763 1179 905 1179 c 1
 905 1020 l 1
 766 1020 670 1013 554 1010 c 1
 558 751 563 448 563 224 c 2
 563 74 l 2
 563 -41 562 -97 557 -198 c 1
 396 -197 l 1
 400 -135 401 -92 401 -37 c 0
 401 10 400 66 400 152 c 0
 400 389 397 724 394 1008 c 1
 301 1008 195 1014 55 1023 c 1
 55 1076 55 1130 58 1181 c 1
 194 1172 301 1170 392 1170 c 1
 391 1257 391 1336 391 1399 c 2
 391 1492 l 1
 551 1492 l 1
 551 1347 l 2
 551 1296 551 1237 552 1172 c 1
EndSplineSet
Validated: 1
EndChar

StartChar: guilsinglleft
Encoding: 8249 8249 540
Width: 1060
VWidth: 6
Flags: HW
VStem: 585 152<103.907 161.156> 599 156<871.117 942.4>
LayerCount: 2
Fore
SplineSet
269 574 m 1x80
 413 704 576 836 599 976 c 1
 755 939 l 1x40
 715 750 579 627 454 518 c 1
 582 400 692 281 737 109 c 1
 585 55 l 1
 547 204 427 318 269 459 c 1
 269 574 l 1x80
EndSplineSet
Validated: 1
EndChar

StartChar: guilsinglright
Encoding: 8250 8250 541
Width: 1060
VWidth: 6
Flags: HW
VStem: 313 156<96.5998 167.883> 331 152<877.844 935.093>
LayerCount: 2
Fore
SplineSet
799 465 m 1x40
 655 335 492 203 469 63 c 1
 313 100 l 1x80
 353 289 489 412 614 521 c 1
 486 639 376 758 331 930 c 1
 483 984 l 1
 521 835 641 721 799 580 c 1
 799 465 l 1x40
EndSplineSet
Validated: 1
EndChar

StartChar: uni203D
Encoding: 8253 8253 543
Width: 1060
VWidth: 0
Flags: HW
HStem: 0 270<400 650> 1172 158<625 713.171> 1356 20G<428 626>
VStem: 148 157<870.844 1110.69> 400 250<0 270> 434 175<431 601.6 784 1165> 782 160<885.793 1106.04>
LayerCount: 2
Fore
SplineSet
400 0 m 1xfa
 400 270 l 1
 650 270 l 1
 650 0 l 1
 400 0 l 1xfa
429 1165 m 1
 356 1139 306 1082 305 989 c 0
 305 942 330 894 356 862 c 1
 222 772 l 1
 181 832 148 899 148 984 c 0
 148 1182 271 1291 428 1325 c 1
 428 1376 l 1
 626 1376 l 1
 625 1330 l 1
 804 1300 942 1177 942 993 c 0
 942 834 796 736 718 670 c 0
 667 627 613 562 610 483 c 1
 609 477 l 1
 609 431 l 1
 434 431 l 1
 434 475 l 1xf6
 429 1165 l 1
615 784 m 1
 701 851 782 899 782 989 c 0
 782 1078 725 1147 622 1172 c 1
 620 1043 617 913 615 784 c 1
EndSplineSet
Validated: 1
EndChar

StartChar: uni2047
Encoding: 8263 8263 544
Width: 1060
VWidth: 0
Flags: HW
HStem: 0 270<122 372 575 825> 1182 155<133.651 419.457 611.099 872.299>
VStem: 122 250<0 270> 156 175<431 598.664> 477 160<876.981 1125.27> 575 250<0 270> 609 175<431 598.664> 930 160<876.981 1122.17>
LayerCount: 2
Fore
SplineSet
122 270 m 1xe1
 372 270 l 1
 372 0 l 1
 122 0 l 1
 122 270 l 1xe1
-31 1197 m 1
 40 1292 162 1337 294 1337 c 0
 385 1337 458 1316 513 1278 c 1
 579 1318 661 1337 747 1337 c 0
 978 1337 1090 1205 1090 993 c 0
 1090 834 971 736 893 670 c 0
 841 626 784 559 784 477 c 2
 784 431 l 1
 609 431 l 1
 609 475 l 2
 609 595 661 673 745 747 c 0
 845 836 930 883 930 989 c 0
 930 1101 871 1182 739 1182 c 0
 691 1182 646 1172 609 1153 c 1xc3
 627 1107 637 1053 637 993 c 0
 637 834 518 736 440 670 c 0
 388 626 331 559 331 477 c 2
 331 431 l 1
 156 431 l 1
 156 475 l 2
 156 595 208 673 292 747 c 0
 392 836 477 883 477 989 c 0xd9
 477 1101 418 1182 286 1182 c 0
 193 1182 113 1147 79 1074 c 1
 -31 1197 l 1
575 270 m 1xc5
 825 270 l 1
 825 0 l 1
 575 0 l 1
 575 270 l 1xc5
EndSplineSet
Validated: 1
EndChar

StartChar: uni2048
Encoding: 8264 8264 545
Width: 1060
VWidth: 0
Flags: HW
HStem: 0 270<191 441 722 972> 1182 155<202.651 488.299> 1356 20<749 947>
VStem: 191 250<0 270> 225 175<431 598.664> 546 160<876.981 1122.17> 722 250<0 270> 749 198<557.952 1376> 765 166<463 1280.84>
LayerCount: 2
Fore
SplineSet
191 270 m 1xf4
 441 270 l 1
 441 0 l 1
 191 0 l 1
 191 270 l 1xf4
38 1197 m 1
 109 1292 231 1337 363 1337 c 0
 594 1337 706 1205 706 993 c 0
 706 834 587 736 509 670 c 0
 457 626 400 559 400 477 c 2
 400 431 l 1
 225 431 l 1
 225 475 l 2xec
 225 595 277 673 361 747 c 0
 461 836 546 883 546 989 c 0
 546 1101 487 1182 355 1182 c 0
 262 1182 182 1147 148 1074 c 1
 38 1197 l 1
EndSplineSet
Refer: 68 33 N 1 0 0 1 324 0 2
Validated: 1
EndChar

StartChar: uni2049
Encoding: 8265 8265 546
Width: 1060
VWidth: 0
Flags: HW
HStem: 0 270<101 351 564 814> 1182 155<575.651 861.299> 1356 20<128 326>
VStem: 101 250<0 270> 128 198<557.952 1376> 144 166<463 1280.84> 564 250<0 270> 598 175<431 598.664> 919 160<876.981 1122.17>
LayerCount: 2
Fore
SplineSet
564 270 m 1xe280
 814 270 l 1
 814 0 l 1
 564 0 l 1
 564 270 l 1xe280
411 1197 m 1
 482 1292 604 1337 736 1337 c 0
 967 1337 1079 1205 1079 993 c 0
 1079 834 960 736 882 670 c 0
 830 626 773 559 773 477 c 2
 773 431 l 1
 598 431 l 1
 598 475 l 2xe180
 598 595 650 673 734 747 c 0
 834 836 919 883 919 989 c 0
 919 1101 860 1182 728 1182 c 0
 635 1182 555 1147 521 1074 c 1
 411 1197 l 1
EndSplineSet
Refer: 68 33 N 1 0 0 1 -297 0 2
Validated: 1
EndChar

StartChar: arrowleft
Encoding: 8592 8592 547
Width: 1060
VWidth: 6
Flags: HW
HStem: 448 152<280 1058>
VStem: 321 152<97.9069 152.877> 335 156<862.084 936.4>
LayerCount: 2
Fore
SplineSet
5 568 m 1xc0
 149 698 312 830 335 970 c 1
 491 933 l 1xa0
 461 789 374 684 280 594 c 1
 400 599 528 600 615 600 c 0
 656 600 695 600 734 600 c 0
 816 600 933 599 1040 598 c 1
 1058 598 l 1
 1058 445 l 1
 1040 445 l 1
 905 448 738 448 613 448 c 0
 552 448 406 446 265 440 c 1
 360 344 437 240 473 103 c 1
 321 49 l 1
 283 198 163 312 5 453 c 1
 5 568 l 1xc0
EndSplineSet
Validated: 1
EndChar

StartChar: arrowup
Encoding: 8593 8593 548
Width: 1060
VWidth: 66
Flags: HW
HStem: 910 156<848.001 922.4> 928 152<83.9069 141.156> 1376 20G<368.5 619>
VStem: 418 163<-126 1122>
LayerCount: 2
Fore
SplineSet
554 1396 m 1x70
 684 1252 816 1089 956 1066 c 1
 919 910 l 1xb0
 775 941 669 1027 578 1122 c 1
 578 861 581 612 581 296 c 2
 581 146 l 2
 581 31 580 -25 575 -126 c 1
 414 -126 l 1
 418 -64 419 -21 419 34 c 0
 419 81 418 138 418 224 c 2
 418 1128 l 1
 324 1037 222 963 89 928 c 1
 35 1080 l 1
 184 1118 298 1238 439 1396 c 1
 554 1396 l 1x70
EndSplineSet
Validated: 1
EndChar

StartChar: arrowright
Encoding: 8594 8594 549
Width: 1060
VWidth: 6
Flags: HW
HStem: 447 152<15 793>
VStem: 582 156<861.084 935.4> 600 152<96.9069 151.877>
LayerCount: 2
Fore
SplineSet
1068 567 m 1xc0
 1068 452 l 1
 910 311 790 197 752 48 c 1
 600 102 l 1xa0
 636 239 713 343 808 439 c 1
 667 445 521 447 460 447 c 0
 335 447 168 447 33 444 c 1
 15 444 l 1
 15 597 l 1
 33 597 l 1
 140 598 257 599 339 599 c 0
 378 599 417 599 458 599 c 0
 545 599 673 598 793 593 c 1
 699 683 612 788 582 932 c 1
 738 969 l 1
 761 829 924 697 1068 567 c 1xc0
EndSplineSet
Validated: 1
EndChar

StartChar: arrowdown
Encoding: 8595 8595 550
Width: 1060
VWidth: 66
Flags: HW
HStem: 224 152<83.9069 141.156> 238 156<848.001 922.4> 1410 20G<414 577.5>
VStem: 418 163<181 1425.11>
LayerCount: 2
Fore
SplineSet
554 -92 m 1x70
 439 -92 l 1
 298 66 184 186 35 224 c 1
 89 376 l 1xb0
 222 341 324 266 418 175 c 1
 418 1080 l 2
 418 1166 419 1221 419 1268 c 0
 419 1323 418 1366 414 1428 c 1
 575 1430 l 1
 580 1329 581 1273 581 1158 c 2
 581 1008 l 2
 581 692 578 442 578 181 c 1
 669 276 775 363 919 394 c 1
 956 238 l 1
 816 215 684 52 554 -92 c 1x70
EndSplineSet
Validated: 1
EndChar

StartChar: arrowboth
Encoding: 8596 8596 551
Width: 1060
VWidth: 6
Flags: HW
HStem: 447 152<258 793>
VStem: 298 152<102.907 158.209> 312 156<867.084 941.4> 582 156<861.084 935.4> 600 152<96.9069 151.877>
LayerCount: 2
Fore
SplineSet
1068 567 m 1xb0
 1068 452 l 1
 910 311 790 197 752 48 c 1
 600 102 l 1
 636 239 713 343 808 439 c 1
 667 445 521 447 460 447 c 0
 395 447 318 447 241 447 c 1
 337 350 414 246 450 108 c 1
 298 54 l 1xc8
 260 203 140 317 -18 458 c 1
 -18 573 l 1
 126 703 289 835 312 975 c 1
 468 938 l 1
 438 794 352 689 258 599 c 1
 287 599 315 599 339 599 c 0
 378 599 417 599 458 599 c 0
 545 599 673 598 793 593 c 1
 699 683 612 788 582 932 c 1
 738 969 l 1
 761 829 924 697 1068 567 c 1xb0
EndSplineSet
Validated: 1
EndChar

StartChar: arrowupdn
Encoding: 8597 8597 552
Width: 1060
VWidth: 66
Flags: HW
HStem: 224 152<83.9069 141.156> 238 156<848.517 922.4> 910 156<848.001 922.4> 928 152<83.9069 141.156> 1376 20G<368.5 619>
VStem: 418 163<184 1122>
LayerCount: 2
Fore
SplineSet
554 -92 m 1x6c
 439 -92 l 1
 298 66 184 186 35 224 c 1
 89 376 l 1
 222 341 324 266 418 175 c 1
 418 177 l 2
 418 192 418 207 418 224 c 2
 418 1128 l 1
 324 1037 222 963 89 928 c 1
 35 1080 l 1x9c
 184 1118 298 1238 439 1396 c 1
 554 1396 l 1
 684 1252 816 1089 956 1066 c 1
 919 910 l 1
 775 941 669 1027 578 1122 c 1
 578 861 581 612 581 296 c 2
 581 184 l 1
 671 278 776 364 919 394 c 1
 956 238 l 1
 816 215 684 52 554 -92 c 1x6c
EndSplineSet
Validated: 1
EndChar

StartChar: uni21C4
Encoding: 8644 8644 553
Width: 1060
VWidth: 6
Flags: HW
HStem: 256 152<254 1032> 1087 152<35 813>
VStem: 295 152<-94.0931 -39.166> 309 156<670.006 744.4> 602 156<1502.01 1576.4> 620 152<737.907 792.834>
LayerCount: 2
Fore
SplineSet
1088 1208 m 1xc8
 1088 1093 l 1
 930 952 810 838 772 689 c 1
 620 743 l 1xc4
 656 880 732 983 827 1079 c 1
 686 1085 541 1087 480 1087 c 0
 355 1087 188 1087 53 1084 c 1
 35 1084 l 1
 35 1237 l 1
 53 1237 l 1
 160 1238 277 1239 359 1239 c 0
 398 1239 437 1239 478 1239 c 0
 565 1239 693 1238 813 1233 c 1
 719 1323 632 1429 602 1573 c 1
 758 1610 l 1
 781 1470 944 1338 1088 1208 c 1xc8
-21 376 m 1
 123 506 286 638 309 778 c 1
 465 741 l 1xd0
 435 597 348 491 254 401 c 1
 374 406 502 408 589 408 c 0
 630 408 669 408 708 408 c 0
 790 408 907 407 1014 406 c 1
 1032 406 l 1
 1032 253 l 1
 1014 253 l 1
 879 256 712 256 587 256 c 0
 526 256 380 253 239 247 c 1
 334 151 411 48 447 -89 c 1
 295 -143 l 1xe0
 257 6 137 120 -21 261 c 1
 -21 376 l 1
EndSplineSet
Validated: 1
EndChar

StartChar: uni21C5
Encoding: 8645 8645 554
Width: 1060
VWidth: 66
Flags: HW
HStem: 1307 89G<175.5 425.5 706.5 870>
VStem: 225 163<-126 234 237 1122> 703 163<79 964 966 1323.11>
LayerCount: 2
Fore
SplineSet
703 966 m 1
 703 1055 l 2
 703 1170 704 1226 709 1327 c 1
 870 1326 l 1
 866 1264 865 1221 865 1166 c 0
 865 1119 866 1063 866 977 c 2
 866 73 l 1
 948 162 934 212 1014 324 c 1
 1118 231 l 1
 1028 106 986 -37 845 -195 c 1
 730 -195 l 1
 601 -52 503 152 388 234 c 1
 388 146 l 2
 388 31 387 -25 382 -126 c 1
 221 -126 l 1
 225 -64 226 -21 226 34 c 0
 226 81 225 138 225 224 c 2
 225 1128 l 1
 131 1037 166 979 86 867 c 1
 -52 949 l 1
 38 1074 105 1238 246 1396 c 1
 361 1396 l 1
 490 1253 588 1048 703 966 c 1
703 964 m 1
 603 841 l 1
 486 931 476 1027 385 1122 c 1
 385 861 388 612 388 296 c 2
 388 237 l 1
 488 359 l 1
 605 269 615 174 706 79 c 1
 706 340 703 589 703 905 c 2
 703 964 l 1
EndSplineSet
Validated: 1
EndChar

StartChar: uni21C6
Encoding: 8646 8646 555
Width: 1060
VWidth: 6
Flags: HW
HStem: 256 152<41 819> 1087 152<260 1038>
VStem: 301 152<737.907 792.834> 315 156<1502.01 1576.4> 608 156<670.006 744.4> 626 152<-94.0931 -39.166>
LayerCount: 2
Fore
SplineSet
1094 376 m 1xc8
 1094 261 l 1
 936 120 816 6 778 -143 c 1
 626 -89 l 1xc4
 662 48 738 151 833 247 c 1
 692 253 547 256 486 256 c 0
 361 256 194 256 59 253 c 1
 41 253 l 1
 41 406 l 1
 59 406 l 1
 166 407 283 408 365 408 c 0
 404 408 443 408 484 408 c 0
 571 408 699 406 819 401 c 1
 725 491 638 597 608 741 c 1
 764 778 l 1
 787 638 950 506 1094 376 c 1xc8
-15 1208 m 1
 129 1338 292 1470 315 1610 c 1
 471 1573 l 1xd0
 441 1429 354 1323 260 1233 c 1
 380 1238 508 1239 595 1239 c 0
 636 1239 675 1239 714 1239 c 0
 796 1239 913 1238 1020 1237 c 1
 1038 1237 l 1
 1038 1084 l 1
 1020 1084 l 1
 885 1087 718 1087 593 1087 c 0
 532 1087 386 1085 245 1079 c 1
 340 983 417 880 453 743 c 1
 301 689 l 1xe0
 263 838 143 952 -15 1093 c 1
 -15 1208 l 1
EndSplineSet
Validated: 1
EndChar

StartChar: uni21C7
Encoding: 8647 8647 556
Width: 1060
VWidth: 6
Flags: HW
HStem: 258 152<255 1033> 1088 152<250 1028>
VStem: 296 152<-86.4746 -36.166 1489.77 1573.35>
LayerCount: 2
Fore
SplineSet
-25 1208 m 1
 119 1338 282 1470 305 1610 c 1
 461 1573 l 1
 431 1429 344 1323 250 1233 c 1
 370 1238 498 1240 585 1240 c 0
 626 1240 665 1240 704 1240 c 0
 786 1240 903 1239 1010 1238 c 1
 1028 1238 l 1
 1028 1085 l 1
 1010 1085 l 1
 875 1088 708 1088 583 1088 c 0
 522 1088 376 1086 235 1080 c 1
 330 984 407 880 443 743 c 1
 413 599 349 494 255 404 c 1
 375 409 503 410 590 410 c 0
 631 410 670 410 709 410 c 0
 791 410 908 409 1015 408 c 1
 1033 408 l 1
 1033 255 l 1
 1015 255 l 1
 880 258 713 258 588 258 c 0
 527 258 381 256 240 250 c 1
 335 154 412 51 448 -86 c 1
 296 -140 l 1
 258 9 138 123 -20 264 c 1
 -20 379 l 1
 108 495 232 616 274 740 c 1
 224 865 114 969 -25 1093 c 1
 -25 1208 l 1
EndSplineSet
Validated: 1
EndChar

StartChar: uni21C8
Encoding: 8648 8648 557
Width: 1060
VWidth: 66
Flags: HW
HStem: 1376 20G<196.5 427.5 702.5 925>
VStem: 246 163<-126 1122> 724 163<-126 1122>
LayerCount: 2
Fore
SplineSet
860 1396 m 1
 990 1252 1022 1122 1090 963 c 1
 986 891 l 1
 947 978 932 1053 884 1122 c 1
 884 861 887 612 887 296 c 2
 887 146 l 2
 887 31 886 -25 881 -126 c 1
 720 -126 l 1
 724 -64 725 -21 725 34 c 0
 725 81 724 138 724 224 c 2
 724 1128 l 1
 686 1061 657 972 608 861 c 1
 506 861 l 1
 470 995 441 1080 406 1122 c 1
 406 861 409 612 409 296 c 2
 409 146 l 2
 409 31 408 -25 403 -126 c 1
 242 -126 l 1
 246 -64 247 -21 247 34 c 0
 247 81 246 138 246 224 c 2
 246 1128 l 1
 152 1037 160 988 80 876 c 1
 -30 951 l 1
 60 1076 126 1238 267 1396 c 1
 382 1396 l 1
 473 1311 531 1235 567 1168 c 1
 604 1237 660 1315 745 1396 c 1
 860 1396 l 1
EndSplineSet
Validated: 1
EndChar

StartChar: uni21C9
Encoding: 8649 8649 558
Width: 1060
VWidth: 6
Flags: HW
HStem: 262 152<5 783> 1088 152<9 787>
VStem: 590 152<-82.1194 -32.166 1489.77 1573.09>
LayerCount: 2
Fore
SplineSet
1062 1208 m 1
 1062 1093 l 1
 915 961 790 865 743 732 c 1
 792 612 932 496 1058 383 c 1
 1058 268 l 1
 900 127 780 13 742 -136 c 1
 590 -82 l 1
 626 55 703 158 798 254 c 1
 657 260 511 262 450 262 c 0
 325 262 158 262 23 259 c 1
 5 259 l 1
 5 412 l 1
 23 412 l 1
 130 413 247 414 329 414 c 0
 368 414 407 414 448 414 c 0
 535 414 663 413 783 408 c 1
 689 498 602 604 572 748 c 1
 608 885 707 984 802 1080 c 1
 661 1086 515 1088 454 1088 c 0
 329 1088 162 1088 27 1085 c 1
 9 1085 l 1
 9 1238 l 1
 27 1238 l 1
 134 1239 251 1240 333 1240 c 0
 372 1240 411 1240 452 1240 c 0
 539 1240 667 1238 787 1233 c 1
 693 1323 606 1429 576 1573 c 1
 732 1610 l 1
 755 1470 918 1338 1062 1208 c 1
EndSplineSet
Validated: 1
EndChar

StartChar: uni21CA
Encoding: 8650 8650 559
Width: 1060
VWidth: 66
Flags: HW
HStem: 1309 20G<203.5 367 681.5 845>
VStem: 200 163<80 1325.11> 678 163<80 1325.11>
LayerCount: 2
Fore
SplineSet
227 -193 m 1
 97 -49 22 101 -46 260 c 1
 58 332 l 1
 97 245 155 149 203 80 c 1
 203 341 200 591 200 907 c 2
 200 1057 l 2
 200 1172 201 1228 206 1329 c 1
 367 1328 l 1
 363 1266 362 1223 362 1168 c 0
 362 1121 363 1065 363 979 c 2
 363 74 l 1
 401 141 430 230 479 341 c 1
 581 341 l 1
 617 207 646 122 681 80 c 1
 681 341 678 591 678 907 c 2
 678 1057 l 2
 678 1172 679 1228 684 1329 c 1
 845 1328 l 1
 841 1266 840 1223 840 1168 c 0
 840 1121 841 1065 841 979 c 2
 841 74 l 1
 908 145 909 214 989 326 c 1
 1100 251 l 1
 1010 126 961 -35 820 -193 c 1
 705 -193 l 1
 614 -108 556 -33 520 34 c 1
 483 -35 427 -112 342 -193 c 1
 227 -193 l 1
EndSplineSet
Validated: 1
EndChar

StartChar: uniE0A0
Encoding: 57504 57504 560
Width: 1060
Flags: HW
LayerCount: 2
Fore
SplineSet
416 -364 m 1
 140 -364 l 1
 140 0 l 2
 140 119 166 217 219 292 c 1
 255 345 311 396 388 446 c 2
 540 545 l 2
 600 584 643 630 668 684 c 128
 694 736 707 806 707 893 c 2
 707 1222 l 1
 498 1222 l 1
 790 1564 l 1
 1082 1222 l 1
 873 1222 l 1
 873 837 l 2
 873 709 855 611 820 542 c 128
 784 474 730 417 659 370 c 1
 584 320 l 2
 522 279 479 238 456 196 c 0
 429 149 416 83 416 0 c 2
 416 -364 l 1
416 703 m 1
 140 525 l 1
 140 1596 l 1
 416 1596 l 1
 416 703 l 1
EndSplineSet
Validated: 1
EndChar

StartChar: uniE0A1
Encoding: 57505 57505 561
Width: 1060
Flags: HW
LayerCount: 2
Fore
SplineSet
690 880 m 1
 690 748 l 1
 184 748 l 1
 184 1648 l 1
 339 1648 l 1
 339 880 l 1
 690 880 l 1
696 667 m 1
 855 667 l 1
 855 -233 l 1
 688 -233 l 1
 443 352 l 1
 462 -38 l 1
 462 -233 l 1
 305 -233 l 1
 305 667 l 1
 470 667 l 1
 717 80 l 1
 696 509 l 1
 696 667 l 1
EndSplineSet
Validated: 1
EndChar

StartChar: uniE0A2
Encoding: 57506 57506 562
Width: 1060
Flags: HW
LayerCount: 2
Fore
SplineSet
255 0 m 2
 161 0 114 47 114 141 c 2
 114 830 l 2
 114 931 154 981 235 981 c 1
 235 1287 l 2
 235 1378 263 1454 319 1515 c 0
 373 1573 440 1602 520 1602 c 256
 600 1602 667 1573 721 1515 c 0
 777 1454 805 1378 805 1287 c 2
 805 981 l 1
 886 981 926 931 926 830 c 2
 926 141 l 2
 926 47 879 0 785 0 c 2
 255 0 l 2
520 1472 m 256
 475 1472 440 1455 412 1422 c 128
 386 1389 372 1344 372 1287 c 2
 372 981 l 1
 668 981 l 1
 668 1287 l 2
 668 1344 654 1389 628 1422 c 128
 600 1455 565 1472 520 1472 c 256
576 236 m 1
 576 559 l 1
 621 582 644 619 644 670 c 0
 644 704 632 733 608 758 c 128
 583 782 554 794 520 794 c 256
 486 794 457 782 432 758 c 128
 408 733 396 704 396 670 c 0
 396 619 419 582 464 559 c 1
 464 236 l 1
 576 236 l 1
EndSplineSet
Validated: 1
EndChar

StartChar: uniE0B0
Encoding: 57520 57520 563
Width: 1060
VWidth: 1918
Flags: HW
LayerCount: 2
Fore
SplineSet
0 1820 m 5
 1060 658 l 5
 0 -505 l 5
 0 1820 l 5
EndSplineSet
Validated: 1
EndChar

StartChar: uniE0B1
Encoding: 57521 57521 564
Width: 1060
VWidth: 1918
Flags: HW
LayerCount: 2
Fore
SplineSet
-57 1682 m 1
 39 1777 l 1
 1060 658 l 1
 39 -461 l 1
 -57 -366 l 1
 875 658 l 1
 -57 1682 l 1
EndSplineSet
Validated: 1
EndChar

StartChar: uniE0B2
Encoding: 57522 57522 565
Width: 1060
VWidth: 1918
Flags: HW
LayerCount: 2
Fore
SplineSet
1080 -505 m 1
 0 658 l 1
 1080 1820 l 1
 1080 -505 l 1
EndSplineSet
Validated: 1
EndChar

StartChar: uniE0B3
Encoding: 57523 57523 566
Width: 1060
VWidth: 1918
Flags: HW
LayerCount: 2
Fore
SplineSet
185.009 658 m 1
 1117.01 -366 l 1
 1021.01 -461 l 1
 0.00878906 658 l 1
 1021.01 1777 l 1
 1117.01 1682 l 1
 185.009 658 l 1
EndSplineSet
Validated: 524289
EndChar

StartChar: block
Encoding: 9608 9608 567
Width: 1060
VWidth: 1918
Flags: HW
LayerCount: 2
Fore
SplineSet
-10 1820 m 1
 1110 1820 l 1
 1110 -505 l 1
 -10 -505 l 1
 -10 1820 l 1
EndSplineSet
Validated: 1
EndChar
